<?xml version="1.0" encoding="UTF-8" standalone="no"?>
<svg width="30.6917mm" height="5.99722mm"
 viewBox="0 0 87 17"
 xmlns="http://www.w3.org/2000/svg" xmlns:xlink="http://www.w3.org/1999/xlink"  version="1.2" baseProfile="tiny">
<title>dc simulation</title>
<desc>dc simulation</desc>
<defs>
</defs>
<g fill="none" stroke="black" stroke-width="1" fill-rule="evenodd" stroke-linecap="square" stroke-linejoin="bevel" >

<g fill="none" stroke="#000000" stroke-opacity="1" stroke-width="1" stroke-linecap="square" stroke-linejoin="bevel" transform="matrix(1,0,0,1,0,0)"
font-family="Oxygen-Sans Sans-Book" font-size="10" font-weight="400" font-style="normal" 
>
</g>

<g fill="none" stroke="#000000" stroke-opacity="1" stroke-width="1" stroke-linecap="square" stroke-linejoin="bevel" transform="matrix(1,0,0,1,0,0)"
font-family="Oxygen-Sans Sans-Book" font-size="10" font-weight="400" font-style="normal" 
>
</g>

<g fill="none" stroke="#000000" stroke-opacity="1" stroke-width="1" stroke-linecap="square" stroke-linejoin="bevel" transform="matrix(0.997313,0,0,0.997313,0,0)"
font-family="Oxygen-Sans Sans-Book" font-size="10" font-weight="400" font-style="normal" 
>
</g>

<g fill="none" stroke="#000000" stroke-opacity="1" stroke-width="1" stroke-linecap="square" stroke-linejoin="bevel" transform="matrix(0.997313,0,0,0.997313,0,0)"
font-family="Oxygen-Sans Sans-Book" font-size="10" font-weight="400" font-style="normal" 
>
</g>

<g fill="none" stroke="#000000" stroke-opacity="1" stroke-width="1" stroke-linecap="square" stroke-linejoin="bevel" transform="matrix(0.997313,0,0,0.997313,0,0)"
font-family="Oxygen-Sans Sans-Book" font-size="10" font-weight="400" font-style="normal" 
>
</g>

<g fill="none" stroke="#000080" stroke-opacity="1" stroke-width="1" stroke-linecap="square" stroke-linejoin="bevel" transform="matrix(0.997313,0,0,0.997313,0,0)"
font-family="Oxygen-Sans Sans-Book" font-size="10" font-weight="400" font-style="normal" 
>
</g>

<g fill="#000080" fill-opacity="1" stroke="#000000" stroke-opacity="1" stroke-width="1" stroke-linecap="round" stroke-linejoin="round" transform="matrix(0.997313,0,0,0.997313,0,0)"
font-family="Oxygen-Sans Sans-Book" font-size="10" font-weight="400" font-style="normal" 
>
<path vector-effect="non-scaling-stroke" fill-rule="nonzero" d="M5.90625,6.96875 L5.90625,3.125 L7.07812,3.125 L7.07812,13 L5.90625,13 L5.90625,11.9375 C5.65625,12.3542 5.34375,12.6667 4.96875,12.875 C4.59375,13.0833 4.14583,13.1875 3.625,13.1875 C2.77083,13.1875 2.07292,12.8438 1.53125,12.1562 C0.989583,11.4688 0.71875,10.5677 0.71875,9.45312 C0.71875,8.33854 0.989583,7.4375 1.53125,6.75 C2.07292,6.0625 2.77083,5.71875 3.625,5.71875 C4.14583,5.71875 4.59375,5.82031 4.96875,6.02344 C5.34375,6.22656 5.65625,6.54167 5.90625,6.96875 M1.92188,9.45312 C1.92188,10.3073 2.09896,10.9792 2.45312,11.4688 C2.80729,11.9583 3.29167,12.2031 3.90625,12.2031 C4.53125,12.2031 5.02083,11.9583 5.375,11.4688 C5.72917,10.9792 5.90625,10.3073 5.90625,9.45312 C5.90625,8.58854 5.72917,7.91406 5.375,7.42969 C5.02083,6.94531 4.53125,6.70312 3.90625,6.70312 C3.29167,6.70312 2.80729,6.94531 2.45312,7.42969 C2.09896,7.91406 1.92188,8.58854 1.92188,9.45312 M14.5938,6.15625 L14.5938,7.25 C14.2604,7.07292 13.9271,6.9375 13.5938,6.84375 C13.2604,6.75 12.9271,6.70312 12.5938,6.70312 C11.8333,6.70312 11.2448,6.94531 10.8281,7.42969 C10.4115,7.91406 10.2031,8.58854 10.2031,9.45312 C10.2031,10.3177 10.4115,10.9896 10.8281,11.4688 C11.2448,11.9479 11.8333,12.1875 12.5938,12.1875 C12.9271,12.1875 13.2604,12.1432 13.5938,12.0547 C13.9271,11.9661 14.2604,11.8281 14.5938,11.6406 L14.5938,12.7344 C14.2708,12.8802 13.9349,12.9922 13.5859,13.0703 C13.237,13.1484 12.8646,13.1875 12.4688,13.1875 C11.3958,13.1875 10.5443,12.8516 9.91406,12.1797 C9.28385,11.5078 8.96875,10.599 8.96875,9.45312 C8.96875,8.29688 9.28646,7.38542 9.92188,6.71875 C10.5573,6.05208 11.4323,5.71875 12.5469,5.71875 C12.901,5.71875 13.25,5.75521 13.5938,5.82812 C13.9375,5.90104 14.2708,6.01042 14.5938,6.15625 M25.2656,6.09375 L25.2656,7.20312 C24.9427,7.03646 24.6042,6.91146 24.25,6.82812 C23.8958,6.74479 23.526,6.70312 23.1406,6.70312 C22.5573,6.70312 22.1224,6.79167 21.8359,6.96875 C21.5495,7.14583 21.4062,7.41146 21.4062,7.76562 C21.4062,8.03646 21.5078,8.2474 21.7109,8.39844 C21.9141,8.54948 22.3333,8.69792 22.9688,8.84375 L23.3594,8.9375 C24.1927,9.11458 24.7839,9.36458 25.1328,9.6875 C25.4818,10.0104 25.6562,10.4583 25.6562,11.0312 C25.6562,11.6979 25.3958,12.224 24.875,12.6094 C24.3542,12.9948 23.6354,13.1875 22.7188,13.1875 C22.3333,13.1875 21.9349,13.151 21.5234,13.0781 C21.112,13.0052 20.6771,12.8906 20.2188,12.7344 L20.2188,11.5312 C20.6562,11.7604 21.0833,11.9297 21.5,12.0391 C21.9167,12.1484 22.3281,12.2031 22.7344,12.2031 C23.2865,12.2031 23.7109,12.1094 24.0078,11.9219 C24.3047,11.7344 24.4531,11.4688 24.4531,11.125 C24.4531,10.8125 24.3464,10.5703 24.1328,10.3984 C23.9193,10.2266 23.4531,10.0625 22.7344,9.90625 L22.3281,9.8125 C21.599,9.65625 21.0729,9.42188 20.75,9.10938 C20.4271,8.79688 20.2656,8.36458 20.2656,7.8125 C20.2656,7.14583 20.5026,6.63021 20.9766,6.26562 C21.4505,5.90104 22.125,5.71875 23,5.71875 C23.4271,5.71875 23.8333,5.75 24.2188,5.8125 C24.6042,5.875 24.9531,5.96875 25.2656,6.09375 M27.5,5.89062 L28.6719,5.89062 L28.6719,13 L27.5,13 L27.5,5.89062 M27.5,3.125 L28.6719,3.125 L28.6719,4.60938 L27.5,4.60938 L27.5,3.125 M36.6562,7.25 C36.9479,6.72917 37.2969,6.34375 37.7031,6.09375 C38.1094,5.84375 38.5885,5.71875 39.1406,5.71875 C39.8802,5.71875 40.4505,5.97917 40.8516,6.5 C41.2526,7.02083 41.4531,7.75521 41.4531,8.70312 L41.4531,13 L40.2812,13 L40.2812,8.75 C40.2812,8.0625 40.1589,7.55469 39.9141,7.22656 C39.6693,6.89844 39.3021,6.73438 38.8125,6.73438 C38.2083,6.73438 37.7292,6.9349 37.375,7.33594 C37.0208,7.73698 36.8438,8.28646 36.8438,8.98438 L36.8438,13 L35.6719,13 L35.6719,8.75 C35.6719,8.0625 35.5521,7.55469 35.3125,7.22656 C35.0729,6.89844 34.6979,6.73438 34.1875,6.73438 C33.5938,6.73438 33.1224,6.9375 32.7734,7.34375 C32.4245,7.75 32.25,8.29688 32.25,8.98438 L32.25,13 L31.0781,13 L31.0781,5.89062 L32.25,5.89062 L32.25,7 C32.5104,6.5625 32.8281,6.23958 33.2031,6.03125 C33.5781,5.82292 34.0208,5.71875 34.5312,5.71875 C35.0521,5.71875 35.4922,5.84896 35.8516,6.10938 C36.2109,6.36979 36.4792,6.75 36.6562,7.25 M43.6562,10.1875 L43.6562,5.89062 L44.8125,5.89062 L44.8125,10.1562 C44.8125,10.8229 44.9453,11.3255 45.2109,11.6641 C45.4766,12.0026 45.8698,12.1719 46.3906,12.1719 C47.026,12.1719 47.526,11.9714 47.8906,11.5703 C48.2552,11.1693 48.4375,10.6198 48.4375,9.92188 L48.4375,5.89062 L49.6094,5.89062 L49.6094,13 L48.4375,13 L48.4375,11.9062 C48.1562,12.3438 47.8281,12.6667 47.4531,12.875 C47.0781,13.0833 46.6406,13.1875 46.1406,13.1875 C45.3281,13.1875 44.7109,12.9323 44.2891,12.4219 C43.8672,11.9115 43.6562,11.1667 43.6562,10.1875 M52,3.125 L53.1719,3.125 L53.1719,13 L52,13 L52,3.125 M58.8438,9.42188 C57.9062,9.42188 57.2552,9.53125 56.8906,9.75 C56.526,9.96875 56.3438,10.3385 56.3438,10.8594 C56.3438,11.2656 56.4792,11.5911 56.75,11.8359 C57.0208,12.0807 57.3906,12.2031 57.8594,12.2031 C58.5052,12.2031 59.026,11.974 59.4219,11.5156 C59.8177,11.0573 60.0156,10.4479 60.0156,9.6875 L60.0156,9.42188 L58.8438,9.42188 M61.1719,8.9375 L61.1719,13 L60.0156,13 L60.0156,11.9219 C59.7448,12.349 59.4115,12.6667 59.0156,12.875 C58.6198,13.0833 58.1302,13.1875 57.5469,13.1875 C56.8177,13.1875 56.2396,12.9818 55.8125,12.5703 C55.3854,12.1589 55.1719,11.6146 55.1719,10.9375 C55.1719,10.1354 55.4401,9.53125 55.9766,9.125 C56.513,8.71875 57.3125,8.51562 58.375,8.51562 L60.0156,8.51562 L60.0156,8.39062 C60.0156,7.85938 59.8385,7.44531 59.4844,7.14844 C59.1302,6.85156 58.6302,6.70312 57.9844,6.70312 C57.5781,6.70312 57.1823,6.7526 56.7969,6.85156 C56.4115,6.95052 56.0417,7.09896 55.6875,7.29688 L55.6875,6.21875 C56.1146,6.05208 56.5312,5.92708 56.9375,5.84375 C57.3438,5.76042 57.7344,5.71875 58.1094,5.71875 C59.1406,5.71875 59.9089,5.98438 60.4141,6.51562 C60.9193,7.04688 61.1719,7.85417 61.1719,8.9375 M64.7188,3.875 L64.7188,5.89062 L67.125,5.89062 L67.125,6.79688 L64.7188,6.79688 L64.7188,10.6562 C64.7188,11.2396 64.7995,11.612 64.9609,11.7734 C65.1224,11.9349 65.4479,12.0156 65.9375,12.0156 L67.125,12.0156 L67.125,13 L65.9375,13 C65.0312,13 64.4062,12.8307 64.0625,12.4922 C63.7188,12.1536 63.5469,11.5417 63.5469,10.6562 L63.5469,6.79688 L62.6875,6.79688 L62.6875,5.89062 L63.5469,5.89062 L63.5469,3.875 L64.7188,3.875 M68.6562,5.89062 L69.8281,5.89062 L69.8281,13 L68.6562,13 L68.6562,5.89062 M68.6562,3.125 L69.8281,3.125 L69.8281,4.60938 L68.6562,4.60938 L68.6562,3.125 M75.0312,6.70312 C74.4062,6.70312 73.9115,6.94792 73.5469,7.4375 C73.1823,7.92708 73,8.59896 73,9.45312 C73,10.3073 73.1797,10.9766 73.5391,11.4609 C73.8984,11.9453 74.3958,12.1875 75.0312,12.1875 C75.6458,12.1875 76.1354,11.9427 76.5,11.4531 C76.8646,10.9635 77.0469,10.2969 77.0469,9.45312 C77.0469,8.60938 76.8646,7.9401 76.5,7.44531 C76.1354,6.95052 75.6458,6.70312 75.0312,6.70312 M75.0312,5.71875 C76.0417,5.71875 76.8385,6.04948 77.4219,6.71094 C78.0052,7.3724 78.2969,8.28646 78.2969,9.45312 C78.2969,10.6198 78.0052,11.5339 77.4219,12.1953 C76.8385,12.8568 76.0417,13.1875 75.0312,13.1875 C74.0104,13.1875 73.2109,12.8568 72.6328,12.1953 C72.0547,11.5339 71.7656,10.6198 71.7656,9.45312 C71.7656,8.28646 72.0547,7.3724 72.6328,6.71094 C73.2109,6.04948 74.0104,5.71875 75.0312,5.71875 M86.1406,8.70312 L86.1406,13 L84.9688,13 L84.9688,8.75 C84.9688,8.07292 84.8385,7.56771 84.5781,7.23438 C84.3177,6.90104 83.9219,6.73438 83.3906,6.73438 C82.7656,6.73438 82.2708,6.9349 81.9062,7.33594 C81.5417,7.73698 81.3594,8.28646 81.3594,8.98438 L81.3594,13 L80.1875,13 L80.1875,5.89062 L81.3594,5.89062 L81.3594,7 C81.6406,6.57292 81.9688,6.2526 82.3438,6.03906 C82.7188,5.82552 83.1562,5.71875 83.6562,5.71875 C84.4688,5.71875 85.0859,5.97135 85.5078,6.47656 C85.9297,6.98177 86.1406,7.72396 86.1406,8.70312 "/>
</g>

<g fill="none" stroke="#000080" stroke-opacity="1" stroke-width="1" stroke-linecap="square" stroke-linejoin="bevel" transform="matrix(0.997313,0,0,0.997313,0,0)"
font-family="Oxygen-Sans Sans-Book" font-size="10" font-weight="400" font-style="normal" 
>
</g>

<g fill="none" stroke="#000000" stroke-opacity="1" stroke-width="1" stroke-linecap="square" stroke-linejoin="bevel" transform="matrix(0.997313,0,0,0.997313,0,0)"
font-family="Oxygen-Sans Sans-Book" font-size="10" font-weight="400" font-style="normal" 
>
</g>

<g fill="none" stroke="#000000" stroke-opacity="1" stroke-width="1" stroke-linecap="square" stroke-linejoin="bevel" transform="matrix(1,0,0,1,0,0)"
font-family="Oxygen-Sans Sans-Book" font-size="10" font-weight="400" font-style="normal" 
>
</g>
</g>
</svg>
