<?xml version="1.0" encoding="UTF-8" standalone="no"?>
<svg width="23.9889mm" height="5.99722mm"
 viewBox="0 0 68 17"
 xmlns="http://www.w3.org/2000/svg" xmlns:xlink="http://www.w3.org/1999/xlink"  version="1.2" baseProfile="tiny">
<title>Transient simulation</title>
<desc>transient simulation</desc>
<defs>
</defs>
<g fill="none" stroke="black" stroke-width="1" fill-rule="evenodd" stroke-linecap="square" stroke-linejoin="bevel" >

<g fill="none" stroke="#000000" stroke-opacity="1" stroke-width="1" stroke-linecap="square" stroke-linejoin="bevel" transform="matrix(1,0,0,1,0,0)"
font-family="Oxygen-Sans Sans-Book" font-size="10" font-weight="400" font-style="normal" 
>
</g>

<g fill="none" stroke="#000000" stroke-opacity="1" stroke-width="1" stroke-linecap="square" stroke-linejoin="bevel" transform="matrix(1,0,0,1,0,0)"
font-family="Oxygen-Sans Sans-Book" font-size="10" font-weight="400" font-style="normal" 
>
</g>

<g fill="none" stroke="#000000" stroke-opacity="1" stroke-width="1" stroke-linecap="square" stroke-linejoin="bevel" transform="matrix(1,0,0,1,0,0)"
font-family="Oxygen-Sans Sans-Book" font-size="10" font-weight="400" font-style="normal" 
>
</g>

<g fill="none" stroke="#000000" stroke-opacity="1" stroke-width="1" stroke-linecap="square" stroke-linejoin="bevel" transform="matrix(1,0,0,1,0,0)"
font-family="Oxygen-Sans Sans-Book" font-size="10" font-weight="400" font-style="normal" 
>
</g>

<g fill="none" stroke="#000000" stroke-opacity="1" stroke-width="1" stroke-linecap="square" stroke-linejoin="bevel" transform="matrix(1,0,0,1,0,0)"
font-family="Oxygen-Sans Sans-Book" font-size="10" font-weight="400" font-style="normal" 
>
</g>

<g fill="none" stroke="#000080" stroke-opacity="1" stroke-width="1" stroke-linecap="square" stroke-linejoin="bevel" transform="matrix(1,0,0,1,0,0)"
font-family="Oxygen-Sans Sans-Book" font-size="10" font-weight="400" font-style="normal" 
>
</g>

<g fill="#000080" fill-opacity="1" stroke="#000000" stroke-opacity="1" stroke-width="1" stroke-linecap="round" stroke-linejoin="round" transform="matrix(1,0,0,1,0,0)"
font-family="Oxygen-Sans Sans-Book" font-size="10" font-weight="400" font-style="normal" 
>
<path vector-effect="non-scaling-stroke" fill-rule="nonzero" d="M2.375,3.875 L2.375,5.89062 L4.78125,5.89062 L4.78125,6.79688 L2.375,6.79688 L2.375,10.6562 C2.375,11.2396 2.45573,11.612 2.61719,11.7734 C2.77865,11.9349 3.10417,12.0156 3.59375,12.0156 L4.78125,12.0156 L4.78125,13 L3.59375,13 C2.6875,13 2.0625,12.8307 1.71875,12.4922 C1.375,12.1536 1.20312,11.5417 1.20312,10.6562 L1.20312,6.79688 L0.34375,6.79688 L0.34375,5.89062 L1.20312,5.89062 L1.20312,3.875 L2.375,3.875 M10.4375,6.98438 C10.3021,6.91146 10.1589,6.85677 10.0078,6.82031 C9.85677,6.78385 9.6875,6.76562 9.5,6.76562 C8.84375,6.76562 8.33854,6.97917 7.98438,7.40625 C7.63021,7.83333 7.45312,8.44792 7.45312,9.25 L7.45312,13 L6.28125,13 L6.28125,5.89062 L7.45312,5.89062 L7.45312,7 C7.69271,6.5625 8.01042,6.23958 8.40625,6.03125 C8.80208,5.82292 9.28125,5.71875 9.84375,5.71875 C9.92708,5.71875 10.0156,5.72396 10.1094,5.73438 C10.2031,5.74479 10.3125,5.76042 10.4375,5.78125 L10.4375,6.98438 M14.8906,9.42188 C13.9531,9.42188 13.3021,9.53125 12.9375,9.75 C12.5729,9.96875 12.3906,10.3385 12.3906,10.8594 C12.3906,11.2656 12.526,11.5911 12.7969,11.8359 C13.0677,12.0807 13.4375,12.2031 13.9062,12.2031 C14.5521,12.2031 15.0729,11.974 15.4688,11.5156 C15.8646,11.0573 16.0625,10.4479 16.0625,9.6875 L16.0625,9.42188 L14.8906,9.42188 M17.2188,8.9375 L17.2188,13 L16.0625,13 L16.0625,11.9219 C15.7917,12.349 15.4583,12.6667 15.0625,12.875 C14.6667,13.0833 14.1771,13.1875 13.5938,13.1875 C12.8646,13.1875 12.2865,12.9818 11.8594,12.5703 C11.4323,12.1589 11.2188,11.6146 11.2188,10.9375 C11.2188,10.1354 11.487,9.53125 12.0234,9.125 C12.5599,8.71875 13.3594,8.51562 14.4219,8.51562 L16.0625,8.51562 L16.0625,8.39062 C16.0625,7.85938 15.8854,7.44531 15.5312,7.14844 C15.1771,6.85156 14.6771,6.70312 14.0312,6.70312 C13.625,6.70312 13.2292,6.7526 12.8438,6.85156 C12.4583,6.95052 12.0885,7.09896 11.7344,7.29688 L11.7344,6.21875 C12.1615,6.05208 12.5781,5.92708 12.9844,5.84375 C13.3906,5.76042 13.7812,5.71875 14.1562,5.71875 C15.1875,5.71875 15.9557,5.98438 16.4609,6.51562 C16.9661,7.04688 17.2188,7.85417 17.2188,8.9375 M25.5312,8.70312 L25.5312,13 L24.3594,13 L24.3594,8.75 C24.3594,8.07292 24.2292,7.56771 23.9688,7.23438 C23.7083,6.90104 23.3125,6.73438 22.7812,6.73438 C22.1562,6.73438 21.6615,6.9349 21.2969,7.33594 C20.9323,7.73698 20.75,8.28646 20.75,8.98438 L20.75,13 L19.5781,13 L19.5781,5.89062 L20.75,5.89062 L20.75,7 C21.0312,6.57292 21.3594,6.2526 21.7344,6.03906 C22.1094,5.82552 22.5469,5.71875 23.0469,5.71875 C23.8594,5.71875 24.4766,5.97135 24.8984,6.47656 C25.3203,6.98177 25.5312,7.72396 25.5312,8.70312 M32.375,6.09375 L32.375,7.20312 C32.0521,7.03646 31.7135,6.91146 31.3594,6.82812 C31.0052,6.74479 30.6354,6.70312 30.25,6.70312 C29.6667,6.70312 29.2318,6.79167 28.9453,6.96875 C28.6589,7.14583 28.5156,7.41146 28.5156,7.76562 C28.5156,8.03646 28.6172,8.2474 28.8203,8.39844 C29.0234,8.54948 29.4427,8.69792 30.0781,8.84375 L30.4688,8.9375 C31.3021,9.11458 31.8932,9.36458 32.2422,9.6875 C32.5911,10.0104 32.7656,10.4583 32.7656,11.0312 C32.7656,11.6979 32.5052,12.224 31.9844,12.6094 C31.4635,12.9948 30.7448,13.1875 29.8281,13.1875 C29.4427,13.1875 29.0443,13.151 28.6328,13.0781 C28.2214,13.0052 27.7865,12.8906 27.3281,12.7344 L27.3281,11.5312 C27.7656,11.7604 28.1927,11.9297 28.6094,12.0391 C29.026,12.1484 29.4375,12.2031 29.8438,12.2031 C30.3958,12.2031 30.8203,12.1094 31.1172,11.9219 C31.4141,11.7344 31.5625,11.4688 31.5625,11.125 C31.5625,10.8125 31.4557,10.5703 31.2422,10.3984 C31.0286,10.2266 30.5625,10.0625 29.8438,9.90625 L29.4375,9.8125 C28.7083,9.65625 28.1823,9.42188 27.8594,9.10938 C27.5365,8.79688 27.375,8.36458 27.375,7.8125 C27.375,7.14583 27.612,6.63021 28.0859,6.26562 C28.5599,5.90104 29.2344,5.71875 30.1094,5.71875 C30.5365,5.71875 30.9427,5.75 31.3281,5.8125 C31.7135,5.875 32.0625,5.96875 32.375,6.09375 M34.6094,5.89062 L35.7812,5.89062 L35.7812,13 L34.6094,13 L34.6094,5.89062 M34.6094,3.125 L35.7812,3.125 L35.7812,4.60938 L34.6094,4.60938 L34.6094,3.125 M44.3125,9.15625 L44.3125,9.71875 L38.9375,9.71875 C38.9896,10.5312 39.2318,11.1458 39.6641,11.5625 C40.0964,11.9792 40.6979,12.1875 41.4688,12.1875 C41.9167,12.1875 42.3516,12.1328 42.7734,12.0234 C43.1953,11.9141 43.6146,11.75 44.0312,11.5312 L44.0312,12.6406 C43.6146,12.8177 43.1849,12.9531 42.7422,13.0469 C42.2995,13.1406 41.8542,13.1875 41.4062,13.1875 C40.2708,13.1875 39.3724,12.8568 38.7109,12.1953 C38.0495,11.5339 37.7188,10.6406 37.7188,9.51562 C37.7188,8.34896 38.0339,7.42448 38.6641,6.74219 C39.2943,6.0599 40.1406,5.71875 41.2031,5.71875 C42.1615,5.71875 42.9193,6.02604 43.4766,6.64062 C44.0339,7.25521 44.3125,8.09375 44.3125,9.15625 M43.1406,8.8125 C43.1302,8.17708 42.9505,7.66667 42.6016,7.28125 C42.2526,6.89583 41.7917,6.70312 41.2188,6.70312 C40.5625,6.70312 40.0391,6.88802 39.6484,7.25781 C39.2578,7.6276 39.0312,8.14583 38.9688,8.8125 L43.1406,8.8125 M52.125,8.70312 L52.125,13 L50.9531,13 L50.9531,8.75 C50.9531,8.07292 50.8229,7.56771 50.5625,7.23438 C50.3021,6.90104 49.9062,6.73438 49.375,6.73438 C48.75,6.73438 48.2552,6.9349 47.8906,7.33594 C47.526,7.73698 47.3438,8.28646 47.3438,8.98438 L47.3438,13 L46.1719,13 L46.1719,5.89062 L47.3438,5.89062 L47.3438,7 C47.625,6.57292 47.9531,6.2526 48.3281,6.03906 C48.7031,5.82552 49.1406,5.71875 49.6406,5.71875 C50.4531,5.71875 51.0703,5.97135 51.4922,6.47656 C51.9141,6.98177 52.125,7.72396 52.125,8.70312 M55.5938,3.875 L55.5938,5.89062 L58,5.89062 L58,6.79688 L55.5938,6.79688 L55.5938,10.6562 C55.5938,11.2396 55.6745,11.612 55.8359,11.7734 C55.9974,11.9349 56.3229,12.0156 56.8125,12.0156 L58,12.0156 L58,13 L56.8125,13 C55.9062,13 55.2812,12.8307 54.9375,12.4922 C54.5938,12.1536 54.4219,11.5417 54.4219,10.6562 L54.4219,6.79688 L53.5625,6.79688 L53.5625,5.89062 L54.4219,5.89062 L54.4219,3.875 L55.5938,3.875"/>
</g>

<g fill="none" stroke="#000080" stroke-opacity="1" stroke-width="1" stroke-linecap="square" stroke-linejoin="bevel" transform="matrix(1,0,0,1,0,0)"
font-family="Oxygen-Sans Sans-Book" font-size="10" font-weight="400" font-style="normal" 
>
</g>

<g fill="none" stroke="#000000" stroke-opacity="1" stroke-width="1" stroke-linecap="square" stroke-linejoin="bevel" transform="matrix(1,0,0,1,0,0)"
font-family="Oxygen-Sans Sans-Book" font-size="10" font-weight="400" font-style="normal" 
>
</g>

<g fill="none" stroke="#000000" stroke-opacity="1" stroke-width="1" stroke-linecap="square" stroke-linejoin="bevel" transform="matrix(1,0,0,1,0,0)"
font-family="Oxygen-Sans Sans-Book" font-size="10" font-weight="400" font-style="normal" 
>
</g>

<g fill="none" stroke="#000080" stroke-opacity="1" stroke-width="1" stroke-linecap="square" stroke-linejoin="bevel" transform="matrix(1,0,0,1,0,0)"
font-family="Oxygen-Sans Sans-Book" font-size="10" font-weight="400" font-style="normal" 
>
</g>

<g fill="#000080" fill-opacity="1" stroke="#000000" stroke-opacity="1" stroke-width="1" stroke-linecap="round" stroke-linejoin="round" transform="matrix(1,0,0,1,0,0)"
font-family="Oxygen-Sans Sans-Book" font-size="10" font-weight="400" font-style="normal" 
>
<path vector-effect="non-scaling-stroke" fill-rule="nonzero" d="M5.75,6.09375 L5.75,7.20312 C5.42708,7.03646 5.08854,6.91146 4.73438,6.82812 C4.38021,6.74479 4.01042,6.70312 3.625,6.70312 C3.04167,6.70312 2.60677,6.79167 2.32031,6.96875 C2.03385,7.14583 1.89062,7.41146 1.89062,7.76562 C1.89062,8.03646 1.99219,8.2474 2.19531,8.39844 C2.39844,8.54948 2.81771,8.69792 3.45312,8.84375 L3.84375,8.9375 C4.67708,9.11458 5.26823,9.36458 5.61719,9.6875 C5.96615,10.0104 6.14062,10.4583 6.14062,11.0312 C6.14062,11.6979 5.88021,12.224 5.35938,12.6094 C4.83854,12.9948 4.11979,13.1875 3.20312,13.1875 C2.81771,13.1875 2.41927,13.151 2.00781,13.0781 C1.59635,13.0052 1.16146,12.8906 0.703125,12.7344 L0.703125,11.5312 C1.14062,11.7604 1.56771,11.9297 1.98438,12.0391 C2.40104,12.1484 2.8125,12.2031 3.21875,12.2031 C3.77083,12.2031 4.19531,12.1094 4.49219,11.9219 C4.78906,11.7344 4.9375,11.4688 4.9375,11.125 C4.9375,10.8125 4.83073,10.5703 4.61719,10.3984 C4.40365,10.2266 3.9375,10.0625 3.21875,9.90625 L2.8125,9.8125 C2.08333,9.65625 1.55729,9.42188 1.23438,9.10938 C0.911458,8.79688 0.75,8.36458 0.75,7.8125 C0.75,7.14583 0.986979,6.63021 1.46094,6.26562 C1.9349,5.90104 2.60938,5.71875 3.48438,5.71875 C3.91146,5.71875 4.31771,5.75 4.70312,5.8125 C5.08854,5.875 5.4375,5.96875 5.75,6.09375 M7.98438,5.89062 L9.15625,5.89062 L9.15625,13 L7.98438,13 L7.98438,5.89062 M7.98438,3.125 L9.15625,3.125 L9.15625,4.60938 L7.98438,4.60938 L7.98438,3.125 M17.1406,7.25 C17.4323,6.72917 17.7812,6.34375 18.1875,6.09375 C18.5938,5.84375 19.0729,5.71875 19.625,5.71875 C20.3646,5.71875 20.9349,5.97917 21.3359,6.5 C21.737,7.02083 21.9375,7.75521 21.9375,8.70312 L21.9375,13 L20.7656,13 L20.7656,8.75 C20.7656,8.0625 20.6432,7.55469 20.3984,7.22656 C20.1536,6.89844 19.7865,6.73438 19.2969,6.73438 C18.6927,6.73438 18.2135,6.9349 17.8594,7.33594 C17.5052,7.73698 17.3281,8.28646 17.3281,8.98438 L17.3281,13 L16.1562,13 L16.1562,8.75 C16.1562,8.0625 16.0365,7.55469 15.7969,7.22656 C15.5573,6.89844 15.1823,6.73438 14.6719,6.73438 C14.0781,6.73438 13.6068,6.9375 13.2578,7.34375 C12.9089,7.75 12.7344,8.29688 12.7344,8.98438 L12.7344,13 L11.5625,13 L11.5625,5.89062 L12.7344,5.89062 L12.7344,7 C12.9948,6.5625 13.3125,6.23958 13.6875,6.03125 C14.0625,5.82292 14.5052,5.71875 15.0156,5.71875 C15.5365,5.71875 15.9766,5.84896 16.3359,6.10938 C16.6953,6.36979 16.9635,6.75 17.1406,7.25 M24.1406,10.1875 L24.1406,5.89062 L25.2969,5.89062 L25.2969,10.1562 C25.2969,10.8229 25.4297,11.3255 25.6953,11.6641 C25.9609,12.0026 26.3542,12.1719 26.875,12.1719 C27.5104,12.1719 28.0104,11.9714 28.375,11.5703 C28.7396,11.1693 28.9219,10.6198 28.9219,9.92188 L28.9219,5.89062 L30.0938,5.89062 L30.0938,13 L28.9219,13 L28.9219,11.9062 C28.6406,12.3438 28.3125,12.6667 27.9375,12.875 C27.5625,13.0833 27.125,13.1875 26.625,13.1875 C25.8125,13.1875 25.1953,12.9323 24.7734,12.4219 C24.3516,11.9115 24.1406,11.1667 24.1406,10.1875 M32.4844,3.125 L33.6562,3.125 L33.6562,13 L32.4844,13 L32.4844,3.125 M39.3281,9.42188 C38.3906,9.42188 37.7396,9.53125 37.375,9.75 C37.0104,9.96875 36.8281,10.3385 36.8281,10.8594 C36.8281,11.2656 36.9635,11.5911 37.2344,11.8359 C37.5052,12.0807 37.875,12.2031 38.3438,12.2031 C38.9896,12.2031 39.5104,11.974 39.9062,11.5156 C40.3021,11.0573 40.5,10.4479 40.5,9.6875 L40.5,9.42188 L39.3281,9.42188 M41.6562,8.9375 L41.6562,13 L40.5,13 L40.5,11.9219 C40.2292,12.349 39.8958,12.6667 39.5,12.875 C39.1042,13.0833 38.6146,13.1875 38.0312,13.1875 C37.3021,13.1875 36.724,12.9818 36.2969,12.5703 C35.8698,12.1589 35.6562,11.6146 35.6562,10.9375 C35.6562,10.1354 35.9245,9.53125 36.4609,9.125 C36.9974,8.71875 37.7969,8.51562 38.8594,8.51562 L40.5,8.51562 L40.5,8.39062 C40.5,7.85938 40.3229,7.44531 39.9688,7.14844 C39.6146,6.85156 39.1146,6.70312 38.4688,6.70312 C38.0625,6.70312 37.6667,6.7526 37.2812,6.85156 C36.8958,6.95052 36.526,7.09896 36.1719,7.29688 L36.1719,6.21875 C36.599,6.05208 37.0156,5.92708 37.4219,5.84375 C37.8281,5.76042 38.2188,5.71875 38.5938,5.71875 C39.625,5.71875 40.3932,5.98438 40.8984,6.51562 C41.4036,7.04688 41.6562,7.85417 41.6562,8.9375 M45.2031,3.875 L45.2031,5.89062 L47.6094,5.89062 L47.6094,6.79688 L45.2031,6.79688 L45.2031,10.6562 C45.2031,11.2396 45.2839,11.612 45.4453,11.7734 C45.6068,11.9349 45.9323,12.0156 46.4219,12.0156 L47.6094,12.0156 L47.6094,13 L46.4219,13 C45.5156,13 44.8906,12.8307 44.5469,12.4922 C44.2031,12.1536 44.0312,11.5417 44.0312,10.6562 L44.0312,6.79688 L43.1719,6.79688 L43.1719,5.89062 L44.0312,5.89062 L44.0312,3.875 L45.2031,3.875 M49.1406,5.89062 L50.3125,5.89062 L50.3125,13 L49.1406,13 L49.1406,5.89062 M49.1406,3.125 L50.3125,3.125 L50.3125,4.60938 L49.1406,4.60938 L49.1406,3.125 M55.5156,6.70312 C54.8906,6.70312 54.3958,6.94792 54.0312,7.4375 C53.6667,7.92708 53.4844,8.59896 53.4844,9.45312 C53.4844,10.3073 53.6641,10.9766 54.0234,11.4609 C54.3828,11.9453 54.8802,12.1875 55.5156,12.1875 C56.1302,12.1875 56.6198,11.9427 56.9844,11.4531 C57.349,10.9635 57.5312,10.2969 57.5312,9.45312 C57.5312,8.60938 57.349,7.9401 56.9844,7.44531 C56.6198,6.95052 56.1302,6.70312 55.5156,6.70312 M55.5156,5.71875 C56.526,5.71875 57.3229,6.04948 57.9062,6.71094 C58.4896,7.3724 58.7812,8.28646 58.7812,9.45312 C58.7812,10.6198 58.4896,11.5339 57.9062,12.1953 C57.3229,12.8568 56.526,13.1875 55.5156,13.1875 C54.4948,13.1875 53.6953,12.8568 53.1172,12.1953 C52.5391,11.5339 52.25,10.6198 52.25,9.45312 C52.25,8.28646 52.5391,7.3724 53.1172,6.71094 C53.6953,6.04948 54.4948,5.71875 55.5156,5.71875 M66.625,8.70312 L66.625,13 L65.4531,13 L65.4531,8.75 C65.4531,8.07292 65.3229,7.56771 65.0625,7.23438 C64.8021,6.90104 64.4062,6.73438 63.875,6.73438 C63.25,6.73438 62.7552,6.9349 62.3906,7.33594 C62.026,7.73698 61.8438,8.28646 61.8438,8.98438 L61.8438,13 L60.6719,13 L60.6719,5.89062 L61.8438,5.89062 L61.8438,7 C62.125,6.57292 62.4531,6.2526 62.8281,6.03906 C63.2031,5.82552 63.6406,5.71875 64.1406,5.71875 C64.9531,5.71875 65.5703,5.97135 65.9922,6.47656 C66.4141,6.98177 66.625,7.72396 66.625,8.70312 "/>
</g>

<g fill="none" stroke="#000080" stroke-opacity="1" stroke-width="1" stroke-linecap="square" stroke-linejoin="bevel" transform="matrix(1,0,0,1,0,0)"
font-family="Oxygen-Sans Sans-Book" font-size="10" font-weight="400" font-style="normal" 
>
</g>

<g fill="none" stroke="#000000" stroke-opacity="1" stroke-width="1" stroke-linecap="square" stroke-linejoin="bevel" transform="matrix(1,0,0,1,0,0)"
font-family="Oxygen-Sans Sans-Book" font-size="10" font-weight="400" font-style="normal" 
>
</g>

<g fill="none" stroke="#000000" stroke-opacity="1" stroke-width="1" stroke-linecap="square" stroke-linejoin="bevel" transform="matrix(1,0,0,1,0,0)"
font-family="Oxygen-Sans Sans-Book" font-size="10" font-weight="400" font-style="normal" 
>
</g>
</g>
</svg>
