<?xml version="1.0" encoding="UTF-8" standalone="no"?>
<svg width="30.6917mm" height="5.99722mm"
 viewBox="0 0 87 17"
 xmlns="http://www.w3.org/2000/svg" xmlns:xlink="http://www.w3.org/1999/xlink"  version="1.2" baseProfile="tiny">
<title>ac simulation</title>
<desc>ac simulation</desc>
<defs>
</defs>
<g fill="none" stroke="black" stroke-width="1" fill-rule="evenodd" stroke-linecap="square" stroke-linejoin="bevel" >

<g fill="none" stroke="#000000" stroke-opacity="1" stroke-width="1" stroke-linecap="square" stroke-linejoin="bevel" transform="matrix(1,0,0,1,0,0)"
font-family="Oxygen-Sans Sans-Book" font-size="10" font-weight="400" font-style="normal" 
>
</g>

<g fill="none" stroke="#000000" stroke-opacity="1" stroke-width="1" stroke-linecap="square" stroke-linejoin="bevel" transform="matrix(1,0,0,1,0,0)"
font-family="Oxygen-Sans Sans-Book" font-size="10" font-weight="400" font-style="normal" 
>
</g>

<g fill="none" stroke="#000000" stroke-opacity="1" stroke-width="1" stroke-linecap="square" stroke-linejoin="bevel" transform="matrix(1,0,0,1,0,0)"
font-family="Oxygen-Sans Sans-Book" font-size="10" font-weight="400" font-style="normal" 
>
</g>

<g fill="none" stroke="#000000" stroke-opacity="1" stroke-width="1" stroke-linecap="square" stroke-linejoin="bevel" transform="matrix(1,0,0,1,0,0)"
font-family="Oxygen-Sans Sans-Book" font-size="10" font-weight="400" font-style="normal" 
>
</g>

<g fill="none" stroke="#000000" stroke-opacity="1" stroke-width="1" stroke-linecap="square" stroke-linejoin="bevel" transform="matrix(1,0,0,1,0,0)"
font-family="Oxygen-Sans Sans-Book" font-size="10" font-weight="400" font-style="normal" 
>
</g>

<g fill="none" stroke="#000080" stroke-opacity="1" stroke-width="1" stroke-linecap="square" stroke-linejoin="bevel" transform="matrix(1,0,0,1,0,0)"
font-family="Oxygen-Sans Sans-Book" font-size="10" font-weight="400" font-style="normal" 
>
</g>

<g fill="#000080" fill-opacity="1" stroke="#000000" stroke-opacity="1" stroke-width="1" stroke-linecap="round" stroke-linejoin="round" transform="matrix(1,0,0,1,0,0)"
font-family="Oxygen-Sans Sans-Book" font-size="10" font-weight="400" font-style="normal" 
>
<path vector-effect="non-scaling-stroke" fill-rule="nonzero" d="M4.45312,9.42188 C3.51562,9.42188 2.86458,9.53125 2.5,9.75 C2.13542,9.96875 1.95312,10.3385 1.95312,10.8594 C1.95312,11.2656 2.08854,11.5911 2.35938,11.8359 C2.63021,12.0807 3,12.2031 3.46875,12.2031 C4.11458,12.2031 4.63542,11.974 5.03125,11.5156 C5.42708,11.0573 5.625,10.4479 5.625,9.6875 L5.625,9.42188 L4.45312,9.42188 M6.78125,8.9375 L6.78125,13 L5.625,13 L5.625,11.9219 C5.35417,12.349 5.02083,12.6667 4.625,12.875 C4.22917,13.0833 3.73958,13.1875 3.15625,13.1875 C2.42708,13.1875 1.84896,12.9818 1.42188,12.5703 C0.994792,12.1589 0.78125,11.6146 0.78125,10.9375 C0.78125,10.1354 1.04948,9.53125 1.58594,9.125 C2.1224,8.71875 2.92188,8.51562 3.98438,8.51562 L5.625,8.51562 L5.625,8.39062 C5.625,7.85938 5.44792,7.44531 5.09375,7.14844 C4.73958,6.85156 4.23958,6.70312 3.59375,6.70312 C3.1875,6.70312 2.79167,6.7526 2.40625,6.85156 C2.02083,6.95052 1.65104,7.09896 1.29688,7.29688 L1.29688,6.21875 C1.72396,6.05208 2.14062,5.92708 2.54688,5.84375 C2.95312,5.76042 3.34375,5.71875 3.71875,5.71875 C4.75,5.71875 5.51823,5.98438 6.02344,6.51562 C6.52865,7.04688 6.78125,7.85417 6.78125,8.9375 M14.2969,6.15625 L14.2969,7.25 C13.9635,7.07292 13.6302,6.9375 13.2969,6.84375 C12.9635,6.75 12.6302,6.70312 12.2969,6.70312 C11.5365,6.70312 10.9479,6.94531 10.5312,7.42969 C10.1146,7.91406 9.90625,8.58854 9.90625,9.45312 C9.90625,10.3177 10.1146,10.9896 10.5312,11.4688 C10.9479,11.9479 11.5365,12.1875 12.2969,12.1875 C12.6302,12.1875 12.9635,12.1432 13.2969,12.0547 C13.6302,11.9661 13.9635,11.8281 14.2969,11.6406 L14.2969,12.7344 C13.974,12.8802 13.638,12.9922 13.2891,13.0703 C12.9401,13.1484 12.5677,13.1875 12.1719,13.1875 C11.099,13.1875 10.2474,12.8516 9.61719,12.1797 C8.98698,11.5078 8.67188,10.599 8.67188,9.45312 C8.67188,8.29688 8.98958,7.38542 9.625,6.71875 C10.2604,6.05208 11.1354,5.71875 12.25,5.71875 C12.6042,5.71875 12.9531,5.75521 13.2969,5.82812 C13.6406,5.90104 13.974,6.01042 14.2969,6.15625 M24.9688,6.09375 L24.9688,7.20312 C24.6458,7.03646 24.3073,6.91146 23.9531,6.82812 C23.599,6.74479 23.2292,6.70312 22.8438,6.70312 C22.2604,6.70312 21.8255,6.79167 21.5391,6.96875 C21.2526,7.14583 21.1094,7.41146 21.1094,7.76562 C21.1094,8.03646 21.2109,8.2474 21.4141,8.39844 C21.6172,8.54948 22.0365,8.69792 22.6719,8.84375 L23.0625,8.9375 C23.8958,9.11458 24.487,9.36458 24.8359,9.6875 C25.1849,10.0104 25.3594,10.4583 25.3594,11.0312 C25.3594,11.6979 25.099,12.224 24.5781,12.6094 C24.0573,12.9948 23.3385,13.1875 22.4219,13.1875 C22.0365,13.1875 21.638,13.151 21.2266,13.0781 C20.8151,13.0052 20.3802,12.8906 19.9219,12.7344 L19.9219,11.5312 C20.3594,11.7604 20.7865,11.9297 21.2031,12.0391 C21.6198,12.1484 22.0312,12.2031 22.4375,12.2031 C22.9896,12.2031 23.4141,12.1094 23.7109,11.9219 C24.0078,11.7344 24.1562,11.4688 24.1562,11.125 C24.1562,10.8125 24.0495,10.5703 23.8359,10.3984 C23.6224,10.2266 23.1562,10.0625 22.4375,9.90625 L22.0312,9.8125 C21.3021,9.65625 20.776,9.42188 20.4531,9.10938 C20.1302,8.79688 19.9688,8.36458 19.9688,7.8125 C19.9688,7.14583 20.2057,6.63021 20.6797,6.26562 C21.1536,5.90104 21.8281,5.71875 22.7031,5.71875 C23.1302,5.71875 23.5365,5.75 23.9219,5.8125 C24.3073,5.875 24.6562,5.96875 24.9688,6.09375 M27.2031,5.89062 L28.375,5.89062 L28.375,13 L27.2031,13 L27.2031,5.89062 M27.2031,3.125 L28.375,3.125 L28.375,4.60938 L27.2031,4.60938 L27.2031,3.125 M36.3594,7.25 C36.651,6.72917 37,6.34375 37.4062,6.09375 C37.8125,5.84375 38.2917,5.71875 38.8438,5.71875 C39.5833,5.71875 40.1536,5.97917 40.5547,6.5 C40.9557,7.02083 41.1562,7.75521 41.1562,8.70312 L41.1562,13 L39.9844,13 L39.9844,8.75 C39.9844,8.0625 39.862,7.55469 39.6172,7.22656 C39.3724,6.89844 39.0052,6.73438 38.5156,6.73438 C37.9115,6.73438 37.4323,6.9349 37.0781,7.33594 C36.724,7.73698 36.5469,8.28646 36.5469,8.98438 L36.5469,13 L35.375,13 L35.375,8.75 C35.375,8.0625 35.2552,7.55469 35.0156,7.22656 C34.776,6.89844 34.401,6.73438 33.8906,6.73438 C33.2969,6.73438 32.8255,6.9375 32.4766,7.34375 C32.1276,7.75 31.9531,8.29688 31.9531,8.98438 L31.9531,13 L30.7812,13 L30.7812,5.89062 L31.9531,5.89062 L31.9531,7 C32.2135,6.5625 32.5312,6.23958 32.9062,6.03125 C33.2812,5.82292 33.724,5.71875 34.2344,5.71875 C34.7552,5.71875 35.1953,5.84896 35.5547,6.10938 C35.9141,6.36979 36.1823,6.75 36.3594,7.25 M43.3594,10.1875 L43.3594,5.89062 L44.5156,5.89062 L44.5156,10.1562 C44.5156,10.8229 44.6484,11.3255 44.9141,11.6641 C45.1797,12.0026 45.5729,12.1719 46.0938,12.1719 C46.7292,12.1719 47.2292,11.9714 47.5938,11.5703 C47.9583,11.1693 48.1406,10.6198 48.1406,9.92188 L48.1406,5.89062 L49.3125,5.89062 L49.3125,13 L48.1406,13 L48.1406,11.9062 C47.8594,12.3438 47.5312,12.6667 47.1562,12.875 C46.7812,13.0833 46.3438,13.1875 45.8438,13.1875 C45.0312,13.1875 44.4141,12.9323 43.9922,12.4219 C43.5703,11.9115 43.3594,11.1667 43.3594,10.1875 M51.7031,3.125 L52.875,3.125 L52.875,13 L51.7031,13 L51.7031,3.125 M58.5469,9.42188 C57.6094,9.42188 56.9583,9.53125 56.5938,9.75 C56.2292,9.96875 56.0469,10.3385 56.0469,10.8594 C56.0469,11.2656 56.1823,11.5911 56.4531,11.8359 C56.724,12.0807 57.0938,12.2031 57.5625,12.2031 C58.2083,12.2031 58.7292,11.974 59.125,11.5156 C59.5208,11.0573 59.7188,10.4479 59.7188,9.6875 L59.7188,9.42188 L58.5469,9.42188 M60.875,8.9375 L60.875,13 L59.7188,13 L59.7188,11.9219 C59.4479,12.349 59.1146,12.6667 58.7188,12.875 C58.3229,13.0833 57.8333,13.1875 57.25,13.1875 C56.5208,13.1875 55.9427,12.9818 55.5156,12.5703 C55.0885,12.1589 54.875,11.6146 54.875,10.9375 C54.875,10.1354 55.1432,9.53125 55.6797,9.125 C56.2161,8.71875 57.0156,8.51562 58.0781,8.51562 L59.7188,8.51562 L59.7188,8.39062 C59.7188,7.85938 59.5417,7.44531 59.1875,7.14844 C58.8333,6.85156 58.3333,6.70312 57.6875,6.70312 C57.2812,6.70312 56.8854,6.7526 56.5,6.85156 C56.1146,6.95052 55.7448,7.09896 55.3906,7.29688 L55.3906,6.21875 C55.8177,6.05208 56.2344,5.92708 56.6406,5.84375 C57.0469,5.76042 57.4375,5.71875 57.8125,5.71875 C58.8438,5.71875 59.612,5.98438 60.1172,6.51562 C60.6224,7.04688 60.875,7.85417 60.875,8.9375 M64.4219,3.875 L64.4219,5.89062 L66.8281,5.89062 L66.8281,6.79688 L64.4219,6.79688 L64.4219,10.6562 C64.4219,11.2396 64.5026,11.612 64.6641,11.7734 C64.8255,11.9349 65.151,12.0156 65.6406,12.0156 L66.8281,12.0156 L66.8281,13 L65.6406,13 C64.7344,13 64.1094,12.8307 63.7656,12.4922 C63.4219,12.1536 63.25,11.5417 63.25,10.6562 L63.25,6.79688 L62.3906,6.79688 L62.3906,5.89062 L63.25,5.89062 L63.25,3.875 L64.4219,3.875 M68.3594,5.89062 L69.5312,5.89062 L69.5312,13 L68.3594,13 L68.3594,5.89062 M68.3594,3.125 L69.5312,3.125 L69.5312,4.60938 L68.3594,4.60938 L68.3594,3.125 M74.7344,6.70312 C74.1094,6.70312 73.6146,6.94792 73.25,7.4375 C72.8854,7.92708 72.7031,8.59896 72.7031,9.45312 C72.7031,10.3073 72.8828,10.9766 73.2422,11.4609 C73.6016,11.9453 74.099,12.1875 74.7344,12.1875 C75.349,12.1875 75.8385,11.9427 76.2031,11.4531 C76.5677,10.9635 76.75,10.2969 76.75,9.45312 C76.75,8.60938 76.5677,7.9401 76.2031,7.44531 C75.8385,6.95052 75.349,6.70312 74.7344,6.70312 M74.7344,5.71875 C75.7448,5.71875 76.5417,6.04948 77.125,6.71094 C77.7083,7.3724 78,8.28646 78,9.45312 C78,10.6198 77.7083,11.5339 77.125,12.1953 C76.5417,12.8568 75.7448,13.1875 74.7344,13.1875 C73.7135,13.1875 72.9141,12.8568 72.3359,12.1953 C71.7578,11.5339 71.4688,10.6198 71.4688,9.45312 C71.4688,8.28646 71.7578,7.3724 72.3359,6.71094 C72.9141,6.04948 73.7135,5.71875 74.7344,5.71875 M85.8438,8.70312 L85.8438,13 L84.6719,13 L84.6719,8.75 C84.6719,8.07292 84.5417,7.56771 84.2812,7.23438 C84.0208,6.90104 83.625,6.73438 83.0938,6.73438 C82.4688,6.73438 81.974,6.9349 81.6094,7.33594 C81.2448,7.73698 81.0625,8.28646 81.0625,8.98438 L81.0625,13 L79.8906,13 L79.8906,5.89062 L81.0625,5.89062 L81.0625,7 C81.3438,6.57292 81.6719,6.2526 82.0469,6.03906 C82.4219,5.82552 82.8594,5.71875 83.3594,5.71875 C84.1719,5.71875 84.7891,5.97135 85.2109,6.47656 C85.6328,6.98177 85.8438,7.72396 85.8438,8.70312 "/>
</g>

<g fill="none" stroke="#000080" stroke-opacity="1" stroke-width="1" stroke-linecap="square" stroke-linejoin="bevel" transform="matrix(1,0,0,1,0,0)"
font-family="Oxygen-Sans Sans-Book" font-size="10" font-weight="400" font-style="normal" 
>
</g>

<g fill="none" stroke="#000000" stroke-opacity="1" stroke-width="1" stroke-linecap="square" stroke-linejoin="bevel" transform="matrix(1,0,0,1,0,0)"
font-family="Oxygen-Sans Sans-Book" font-size="10" font-weight="400" font-style="normal" 
>
</g>

<g fill="none" stroke="#000000" stroke-opacity="1" stroke-width="1" stroke-linecap="square" stroke-linejoin="bevel" transform="matrix(1,0,0,1,0,0)"
font-family="Oxygen-Sans Sans-Book" font-size="10" font-weight="400" font-style="normal" 
>
</g>
</g>
</svg>
