<?xml version="1.0" encoding="UTF-8" standalone="no"?>
<svg width="28.9278mm" height="5.99722mm"
 viewBox="0 0 82 17"
 xmlns="http://www.w3.org/2000/svg" xmlns:xlink="http://www.w3.org/1999/xlink"  version="1.2" baseProfile="tiny">
<title>S-parameter simulation</title>
<desc>S parameter simulation</desc>
<defs>
</defs>
<g fill="none" stroke="black" stroke-width="1" fill-rule="evenodd" stroke-linecap="square" stroke-linejoin="bevel" >

<g fill="none" stroke="#000000" stroke-opacity="1" stroke-width="1" stroke-linecap="square" stroke-linejoin="bevel" transform="matrix(1,0,0,1,0,0)"
font-family="Oxygen-Sans Sans-Book" font-size="10" font-weight="400" font-style="normal" 
>
</g>

<g fill="none" stroke="#000000" stroke-opacity="1" stroke-width="1" stroke-linecap="square" stroke-linejoin="bevel" transform="matrix(1,0,0,1,0,0)"
font-family="Oxygen-Sans Sans-Book" font-size="10" font-weight="400" font-style="normal" 
>
</g>

<g fill="none" stroke="#000000" stroke-opacity="1" stroke-width="1" stroke-linecap="square" stroke-linejoin="bevel" transform="matrix(1,0,0,1,0,0)"
font-family="Oxygen-Sans Sans-Book" font-size="10" font-weight="400" font-style="normal" 
>
</g>

<g fill="none" stroke="#000000" stroke-opacity="1" stroke-width="1" stroke-linecap="square" stroke-linejoin="bevel" transform="matrix(1,0,0,1,0,0)"
font-family="Oxygen-Sans Sans-Book" font-size="10" font-weight="400" font-style="normal" 
>
</g>

<g fill="none" stroke="#000000" stroke-opacity="1" stroke-width="1" stroke-linecap="square" stroke-linejoin="bevel" transform="matrix(1,0,0,1,0,0)"
font-family="Oxygen-Sans Sans-Book" font-size="10" font-weight="400" font-style="normal" 
>
</g>

<g fill="none" stroke="#000080" stroke-opacity="1" stroke-width="1" stroke-linecap="square" stroke-linejoin="bevel" transform="matrix(1,0,0,1,0,0)"
font-family="Oxygen-Sans Sans-Book" font-size="10" font-weight="400" font-style="normal" 
>
</g>

<g fill="#000080" fill-opacity="1" stroke="#000000" stroke-opacity="1" stroke-width="1" stroke-linecap="round" stroke-linejoin="round" transform="matrix(1,0,0,1,0,0)"
font-family="Oxygen-Sans Sans-Book" font-size="10" font-weight="400" font-style="normal" 
>
<path vector-effect="non-scaling-stroke" fill-rule="nonzero" d="M6.95312,3.82812 L6.95312,5.07812 C6.47396,4.84896 6.01823,4.67708 5.58594,4.5625 C5.15365,4.44792 4.73438,4.39062 4.32812,4.39062 C3.63021,4.39062 3.09115,4.52604 2.71094,4.79688 C2.33073,5.06771 2.14062,5.45312 2.14062,5.95312 C2.14062,6.36979 2.26823,6.6849 2.52344,6.89844 C2.77865,7.11198 3.25521,7.28646 3.95312,7.42188 L4.73438,7.57812 C5.68229,7.76562 6.38542,8.08854 6.84375,8.54688 C7.30208,9.00521 7.53125,9.61979 7.53125,10.3906 C7.53125,11.3073 7.22396,12.0026 6.60938,12.4766 C5.99479,12.9505 5.08854,13.1875 3.89062,13.1875 C3.44271,13.1875 2.96615,13.1354 2.46094,13.0312 C1.95573,12.9271 1.43229,12.776 0.890625,12.5781 L0.890625,11.2656 C1.41146,11.5573 1.92188,11.776 2.42188,11.9219 C2.92188,12.0677 3.41146,12.1406 3.89062,12.1406 C4.63021,12.1406 5.19792,11.9974 5.59375,11.7109 C5.98958,11.4245 6.1875,11.0156 6.1875,10.4844 C6.1875,10.0156 6.04427,9.65104 5.75781,9.39062 C5.47135,9.13021 5.00521,8.93229 4.35938,8.79688 L3.57812,8.64062 C2.61979,8.45312 1.92708,8.15625 1.5,7.75 C1.07292,7.34375 0.859375,6.78125 0.859375,6.0625 C0.859375,5.21875 1.15365,4.55469 1.74219,4.07031 C2.33073,3.58594 3.14583,3.34375 4.1875,3.34375 C4.625,3.34375 5.07552,3.38542 5.53906,3.46875 C6.0026,3.55208 6.47396,3.67188 6.95312,3.82812 M14.7344,11.9375 L14.7344,15.7031 L13.5625,15.7031 L13.5625,5.89062 L14.7344,5.89062 L14.7344,6.96875 C14.974,6.54167 15.2812,6.22656 15.6562,6.02344 C16.0312,5.82031 16.4792,5.71875 17,5.71875 C17.8646,5.71875 18.5677,6.0625 19.1094,6.75 C19.651,7.4375 19.9219,8.33854 19.9219,9.45312 C19.9219,10.5677 19.651,11.4688 19.1094,12.1562 C18.5677,12.8438 17.8646,13.1875 17,13.1875 C16.4792,13.1875 16.0312,13.0833 15.6562,12.875 C15.2812,12.6667 14.974,12.3542 14.7344,11.9375 M18.7031,9.45312 C18.7031,8.58854 18.526,7.91406 18.1719,7.42969 C17.8177,6.94531 17.3333,6.70312 16.7188,6.70312 C16.1042,6.70312 15.6198,6.94531 15.2656,7.42969 C14.9115,7.91406 14.7344,8.58854 14.7344,9.45312 C14.7344,10.3073 14.9115,10.9792 15.2656,11.4688 C15.6198,11.9583 16.1042,12.2031 16.7188,12.2031 C17.3333,12.2031 17.8177,11.9583 18.1719,11.4688 C18.526,10.9792 18.7031,10.3073 18.7031,9.45312 M25.0781,9.42188 C24.1406,9.42188 23.4896,9.53125 23.125,9.75 C22.7604,9.96875 22.5781,10.3385 22.5781,10.8594 C22.5781,11.2656 22.7135,11.5911 22.9844,11.8359 C23.2552,12.0807 23.625,12.2031 24.0938,12.2031 C24.7396,12.2031 25.2604,11.974 25.6562,11.5156 C26.0521,11.0573 26.25,10.4479 26.25,9.6875 L26.25,9.42188 L25.0781,9.42188 M27.4062,8.9375 L27.4062,13 L26.25,13 L26.25,11.9219 C25.9792,12.349 25.6458,12.6667 25.25,12.875 C24.8542,13.0833 24.3646,13.1875 23.7812,13.1875 C23.0521,13.1875 22.474,12.9818 22.0469,12.5703 C21.6198,12.1589 21.4062,11.6146 21.4062,10.9375 C21.4062,10.1354 21.6745,9.53125 22.2109,9.125 C22.7474,8.71875 23.5469,8.51562 24.6094,8.51562 L26.25,8.51562 L26.25,8.39062 C26.25,7.85938 26.0729,7.44531 25.7188,7.14844 C25.3646,6.85156 24.8646,6.70312 24.2188,6.70312 C23.8125,6.70312 23.4167,6.7526 23.0312,6.85156 C22.6458,6.95052 22.276,7.09896 21.9219,7.29688 L21.9219,6.21875 C22.349,6.05208 22.7656,5.92708 23.1719,5.84375 C23.5781,5.76042 23.9688,5.71875 24.3438,5.71875 C25.375,5.71875 26.1432,5.98438 26.6484,6.51562 C27.1536,7.04688 27.4062,7.85417 27.4062,8.9375 M33.9219,6.98438 C33.7865,6.91146 33.6432,6.85677 33.4922,6.82031 C33.3411,6.78385 33.1719,6.76562 32.9844,6.76562 C32.3281,6.76562 31.8229,6.97917 31.4688,7.40625 C31.1146,7.83333 30.9375,8.44792 30.9375,9.25 L30.9375,13 L29.7656,13 L29.7656,5.89062 L30.9375,5.89062 L30.9375,7 C31.1771,6.5625 31.4948,6.23958 31.8906,6.03125 C32.2865,5.82292 32.7656,5.71875 33.3281,5.71875 C33.4115,5.71875 33.5,5.72396 33.5938,5.73438 C33.6875,5.74479 33.7969,5.76042 33.9219,5.78125 L33.9219,6.98438 M38.375,9.42188 C37.4375,9.42188 36.7865,9.53125 36.4219,9.75 C36.0573,9.96875 35.875,10.3385 35.875,10.8594 C35.875,11.2656 36.0104,11.5911 36.2812,11.8359 C36.5521,12.0807 36.9219,12.2031 37.3906,12.2031 C38.0365,12.2031 38.5573,11.974 38.9531,11.5156 C39.349,11.0573 39.5469,10.4479 39.5469,9.6875 L39.5469,9.42188 L38.375,9.42188 M40.7031,8.9375 L40.7031,13 L39.5469,13 L39.5469,11.9219 C39.276,12.349 38.9427,12.6667 38.5469,12.875 C38.151,13.0833 37.6615,13.1875 37.0781,13.1875 C36.349,13.1875 35.7708,12.9818 35.3438,12.5703 C34.9167,12.1589 34.7031,11.6146 34.7031,10.9375 C34.7031,10.1354 34.9714,9.53125 35.5078,9.125 C36.0443,8.71875 36.8438,8.51562 37.9062,8.51562 L39.5469,8.51562 L39.5469,8.39062 C39.5469,7.85938 39.3698,7.44531 39.0156,7.14844 C38.6615,6.85156 38.1615,6.70312 37.5156,6.70312 C37.1094,6.70312 36.7135,6.7526 36.3281,6.85156 C35.9427,6.95052 35.5729,7.09896 35.2188,7.29688 L35.2188,6.21875 C35.6458,6.05208 36.0625,5.92708 36.4688,5.84375 C36.875,5.76042 37.2656,5.71875 37.6406,5.71875 C38.6719,5.71875 39.4401,5.98438 39.9453,6.51562 C40.4505,7.04688 40.7031,7.85417 40.7031,8.9375 M48.6406,7.25 C48.9323,6.72917 49.2812,6.34375 49.6875,6.09375 C50.0938,5.84375 50.5729,5.71875 51.125,5.71875 C51.8646,5.71875 52.4349,5.97917 52.8359,6.5 C53.237,7.02083 53.4375,7.75521 53.4375,8.70312 L53.4375,13 L52.2656,13 L52.2656,8.75 C52.2656,8.0625 52.1432,7.55469 51.8984,7.22656 C51.6536,6.89844 51.2865,6.73438 50.7969,6.73438 C50.1927,6.73438 49.7135,6.9349 49.3594,7.33594 C49.0052,7.73698 48.8281,8.28646 48.8281,8.98438 L48.8281,13 L47.6562,13 L47.6562,8.75 C47.6562,8.0625 47.5365,7.55469 47.2969,7.22656 C47.0573,6.89844 46.6823,6.73438 46.1719,6.73438 C45.5781,6.73438 45.1068,6.9375 44.7578,7.34375 C44.4089,7.75 44.2344,8.29688 44.2344,8.98438 L44.2344,13 L43.0625,13 L43.0625,5.89062 L44.2344,5.89062 L44.2344,7 C44.4948,6.5625 44.8125,6.23958 45.1875,6.03125 C45.5625,5.82292 46.0052,5.71875 46.5156,5.71875 C47.0365,5.71875 47.4766,5.84896 47.8359,6.10938 C48.1953,6.36979 48.4635,6.75 48.6406,7.25 M61.8438,9.15625 L61.8438,9.71875 L56.4688,9.71875 C56.5208,10.5312 56.763,11.1458 57.1953,11.5625 C57.6276,11.9792 58.2292,12.1875 59,12.1875 C59.4479,12.1875 59.8828,12.1328 60.3047,12.0234 C60.7266,11.9141 61.1458,11.75 61.5625,11.5312 L61.5625,12.6406 C61.1458,12.8177 60.7161,12.9531 60.2734,13.0469 C59.8307,13.1406 59.3854,13.1875 58.9375,13.1875 C57.8021,13.1875 56.9036,12.8568 56.2422,12.1953 C55.5807,11.5339 55.25,10.6406 55.25,9.51562 C55.25,8.34896 55.5651,7.42448 56.1953,6.74219 C56.8255,6.0599 57.6719,5.71875 58.7344,5.71875 C59.6927,5.71875 60.4505,6.02604 61.0078,6.64062 C61.5651,7.25521 61.8438,8.09375 61.8438,9.15625 M60.6719,8.8125 C60.6615,8.17708 60.4818,7.66667 60.1328,7.28125 C59.7839,6.89583 59.3229,6.70312 58.75,6.70312 C58.0938,6.70312 57.5703,6.88802 57.1797,7.25781 C56.7891,7.6276 56.5625,8.14583 56.5,8.8125 L60.6719,8.8125 M64.8906,3.875 L64.8906,5.89062 L67.2969,5.89062 L67.2969,6.79688 L64.8906,6.79688 L64.8906,10.6562 C64.8906,11.2396 64.9714,11.612 65.1328,11.7734 C65.2943,11.9349 65.6198,12.0156 66.1094,12.0156 L67.2969,12.0156 L67.2969,13 L66.1094,13 C65.2031,13 64.5781,12.8307 64.2344,12.4922 C63.8906,12.1536 63.7188,11.5417 63.7188,10.6562 L63.7188,6.79688 L62.8594,6.79688 L62.8594,5.89062 L63.7188,5.89062 L63.7188,3.875 L64.8906,3.875 M74.9219,9.15625 L74.9219,9.71875 L69.5469,9.71875 C69.599,10.5312 69.8411,11.1458 70.2734,11.5625 C70.7057,11.9792 71.3073,12.1875 72.0781,12.1875 C72.526,12.1875 72.9609,12.1328 73.3828,12.0234 C73.8047,11.9141 74.224,11.75 74.6406,11.5312 L74.6406,12.6406 C74.224,12.8177 73.7943,12.9531 73.3516,13.0469 C72.9089,13.1406 72.4635,13.1875 72.0156,13.1875 C70.8802,13.1875 69.9818,12.8568 69.3203,12.1953 C68.6589,11.5339 68.3281,10.6406 68.3281,9.51562 C68.3281,8.34896 68.6432,7.42448 69.2734,6.74219 C69.9036,6.0599 70.75,5.71875 71.8125,5.71875 C72.7708,5.71875 73.5286,6.02604 74.0859,6.64062 C74.6432,7.25521 74.9219,8.09375 74.9219,9.15625 M73.75,8.8125 C73.7396,8.17708 73.5599,7.66667 73.2109,7.28125 C72.862,6.89583 72.401,6.70312 71.8281,6.70312 C71.1719,6.70312 70.6484,6.88802 70.2578,7.25781 C69.8672,7.6276 69.6406,8.14583 69.5781,8.8125 L73.75,8.8125 M80.9375,6.98438 C80.8021,6.91146 80.6589,6.85677 80.5078,6.82031 C80.3568,6.78385 80.1875,6.76562 80,6.76562 C79.3438,6.76562 78.8385,6.97917 78.4844,7.40625 C78.1302,7.83333 77.9531,8.44792 77.9531,9.25 L77.9531,13 L76.7812,13 L76.7812,5.89062 L77.9531,5.89062 L77.9531,7 C78.1927,6.5625 78.5104,6.23958 78.9062,6.03125 C79.3021,5.82292 79.7812,5.71875 80.3438,5.71875 C80.4271,5.71875 80.5156,5.72396 80.6094,5.73438 C80.7031,5.74479 80.8125,5.76042 80.9375,5.78125 L80.9375,6.98438"/>
</g>

<g fill="none" stroke="#000080" stroke-opacity="1" stroke-width="1" stroke-linecap="square" stroke-linejoin="bevel" transform="matrix(1,0,0,1,0,0)"
font-family="Oxygen-Sans Sans-Book" font-size="10" font-weight="400" font-style="normal" 
>
</g>

<g fill="none" stroke="#000000" stroke-opacity="1" stroke-width="1" stroke-linecap="square" stroke-linejoin="bevel" transform="matrix(1,0,0,1,0,0)"
font-family="Oxygen-Sans Sans-Book" font-size="10" font-weight="400" font-style="normal" 
>
</g>

<g fill="none" stroke="#000000" stroke-opacity="1" stroke-width="1" stroke-linecap="square" stroke-linejoin="bevel" transform="matrix(1,0,0,1,0,0)"
font-family="Oxygen-Sans Sans-Book" font-size="10" font-weight="400" font-style="normal" 
>
</g>

<g fill="none" stroke="#000080" stroke-opacity="1" stroke-width="1" stroke-linecap="square" stroke-linejoin="bevel" transform="matrix(1,0,0,1,0,0)"
font-family="Oxygen-Sans Sans-Book" font-size="10" font-weight="400" font-style="normal" 
>
</g>

<g fill="#000080" fill-opacity="1" stroke="#000000" stroke-opacity="1" stroke-width="1" stroke-linecap="round" stroke-linejoin="round" transform="matrix(1,0,0,1,0,0)"
font-family="Oxygen-Sans Sans-Book" font-size="10" font-weight="400" font-style="normal" 
>
<path vector-effect="non-scaling-stroke" fill-rule="nonzero" d="M5.75,6.09375 L5.75,7.20312 C5.42708,7.03646 5.08854,6.91146 4.73438,6.82812 C4.38021,6.74479 4.01042,6.70312 3.625,6.70312 C3.04167,6.70312 2.60677,6.79167 2.32031,6.96875 C2.03385,7.14583 1.89062,7.41146 1.89062,7.76562 C1.89062,8.03646 1.99219,8.2474 2.19531,8.39844 C2.39844,8.54948 2.81771,8.69792 3.45312,8.84375 L3.84375,8.9375 C4.67708,9.11458 5.26823,9.36458 5.61719,9.6875 C5.96615,10.0104 6.14062,10.4583 6.14062,11.0312 C6.14062,11.6979 5.88021,12.224 5.35938,12.6094 C4.83854,12.9948 4.11979,13.1875 3.20312,13.1875 C2.81771,13.1875 2.41927,13.151 2.00781,13.0781 C1.59635,13.0052 1.16146,12.8906 0.703125,12.7344 L0.703125,11.5312 C1.14062,11.7604 1.56771,11.9297 1.98438,12.0391 C2.40104,12.1484 2.8125,12.2031 3.21875,12.2031 C3.77083,12.2031 4.19531,12.1094 4.49219,11.9219 C4.78906,11.7344 4.9375,11.4688 4.9375,11.125 C4.9375,10.8125 4.83073,10.5703 4.61719,10.3984 C4.40365,10.2266 3.9375,10.0625 3.21875,9.90625 L2.8125,9.8125 C2.08333,9.65625 1.55729,9.42188 1.23438,9.10938 C0.911458,8.79688 0.75,8.36458 0.75,7.8125 C0.75,7.14583 0.986979,6.63021 1.46094,6.26562 C1.9349,5.90104 2.60938,5.71875 3.48438,5.71875 C3.91146,5.71875 4.31771,5.75 4.70312,5.8125 C5.08854,5.875 5.4375,5.96875 5.75,6.09375 M7.98438,5.89062 L9.15625,5.89062 L9.15625,13 L7.98438,13 L7.98438,5.89062 M7.98438,3.125 L9.15625,3.125 L9.15625,4.60938 L7.98438,4.60938 L7.98438,3.125 M17.1406,7.25 C17.4323,6.72917 17.7812,6.34375 18.1875,6.09375 C18.5938,5.84375 19.0729,5.71875 19.625,5.71875 C20.3646,5.71875 20.9349,5.97917 21.3359,6.5 C21.737,7.02083 21.9375,7.75521 21.9375,8.70312 L21.9375,13 L20.7656,13 L20.7656,8.75 C20.7656,8.0625 20.6432,7.55469 20.3984,7.22656 C20.1536,6.89844 19.7865,6.73438 19.2969,6.73438 C18.6927,6.73438 18.2135,6.9349 17.8594,7.33594 C17.5052,7.73698 17.3281,8.28646 17.3281,8.98438 L17.3281,13 L16.1562,13 L16.1562,8.75 C16.1562,8.0625 16.0365,7.55469 15.7969,7.22656 C15.5573,6.89844 15.1823,6.73438 14.6719,6.73438 C14.0781,6.73438 13.6068,6.9375 13.2578,7.34375 C12.9089,7.75 12.7344,8.29688 12.7344,8.98438 L12.7344,13 L11.5625,13 L11.5625,5.89062 L12.7344,5.89062 L12.7344,7 C12.9948,6.5625 13.3125,6.23958 13.6875,6.03125 C14.0625,5.82292 14.5052,5.71875 15.0156,5.71875 C15.5365,5.71875 15.9766,5.84896 16.3359,6.10938 C16.6953,6.36979 16.9635,6.75 17.1406,7.25 M24.1406,10.1875 L24.1406,5.89062 L25.2969,5.89062 L25.2969,10.1562 C25.2969,10.8229 25.4297,11.3255 25.6953,11.6641 C25.9609,12.0026 26.3542,12.1719 26.875,12.1719 C27.5104,12.1719 28.0104,11.9714 28.375,11.5703 C28.7396,11.1693 28.9219,10.6198 28.9219,9.92188 L28.9219,5.89062 L30.0938,5.89062 L30.0938,13 L28.9219,13 L28.9219,11.9062 C28.6406,12.3438 28.3125,12.6667 27.9375,12.875 C27.5625,13.0833 27.125,13.1875 26.625,13.1875 C25.8125,13.1875 25.1953,12.9323 24.7734,12.4219 C24.3516,11.9115 24.1406,11.1667 24.1406,10.1875 M32.4844,3.125 L33.6562,3.125 L33.6562,13 L32.4844,13 L32.4844,3.125 M39.3281,9.42188 C38.3906,9.42188 37.7396,9.53125 37.375,9.75 C37.0104,9.96875 36.8281,10.3385 36.8281,10.8594 C36.8281,11.2656 36.9635,11.5911 37.2344,11.8359 C37.5052,12.0807 37.875,12.2031 38.3438,12.2031 C38.9896,12.2031 39.5104,11.974 39.9062,11.5156 C40.3021,11.0573 40.5,10.4479 40.5,9.6875 L40.5,9.42188 L39.3281,9.42188 M41.6562,8.9375 L41.6562,13 L40.5,13 L40.5,11.9219 C40.2292,12.349 39.8958,12.6667 39.5,12.875 C39.1042,13.0833 38.6146,13.1875 38.0312,13.1875 C37.3021,13.1875 36.724,12.9818 36.2969,12.5703 C35.8698,12.1589 35.6562,11.6146 35.6562,10.9375 C35.6562,10.1354 35.9245,9.53125 36.4609,9.125 C36.9974,8.71875 37.7969,8.51562 38.8594,8.51562 L40.5,8.51562 L40.5,8.39062 C40.5,7.85938 40.3229,7.44531 39.9688,7.14844 C39.6146,6.85156 39.1146,6.70312 38.4688,6.70312 C38.0625,6.70312 37.6667,6.7526 37.2812,6.85156 C36.8958,6.95052 36.526,7.09896 36.1719,7.29688 L36.1719,6.21875 C36.599,6.05208 37.0156,5.92708 37.4219,5.84375 C37.8281,5.76042 38.2188,5.71875 38.5938,5.71875 C39.625,5.71875 40.3932,5.98438 40.8984,6.51562 C41.4036,7.04688 41.6562,7.85417 41.6562,8.9375 M45.2031,3.875 L45.2031,5.89062 L47.6094,5.89062 L47.6094,6.79688 L45.2031,6.79688 L45.2031,10.6562 C45.2031,11.2396 45.2839,11.612 45.4453,11.7734 C45.6068,11.9349 45.9323,12.0156 46.4219,12.0156 L47.6094,12.0156 L47.6094,13 L46.4219,13 C45.5156,13 44.8906,12.8307 44.5469,12.4922 C44.2031,12.1536 44.0312,11.5417 44.0312,10.6562 L44.0312,6.79688 L43.1719,6.79688 L43.1719,5.89062 L44.0312,5.89062 L44.0312,3.875 L45.2031,3.875 M49.1406,5.89062 L50.3125,5.89062 L50.3125,13 L49.1406,13 L49.1406,5.89062 M49.1406,3.125 L50.3125,3.125 L50.3125,4.60938 L49.1406,4.60938 L49.1406,3.125 M55.5156,6.70312 C54.8906,6.70312 54.3958,6.94792 54.0312,7.4375 C53.6667,7.92708 53.4844,8.59896 53.4844,9.45312 C53.4844,10.3073 53.6641,10.9766 54.0234,11.4609 C54.3828,11.9453 54.8802,12.1875 55.5156,12.1875 C56.1302,12.1875 56.6198,11.9427 56.9844,11.4531 C57.349,10.9635 57.5312,10.2969 57.5312,9.45312 C57.5312,8.60938 57.349,7.9401 56.9844,7.44531 C56.6198,6.95052 56.1302,6.70312 55.5156,6.70312 M55.5156,5.71875 C56.526,5.71875 57.3229,6.04948 57.9062,6.71094 C58.4896,7.3724 58.7812,8.28646 58.7812,9.45312 C58.7812,10.6198 58.4896,11.5339 57.9062,12.1953 C57.3229,12.8568 56.526,13.1875 55.5156,13.1875 C54.4948,13.1875 53.6953,12.8568 53.1172,12.1953 C52.5391,11.5339 52.25,10.6198 52.25,9.45312 C52.25,8.28646 52.5391,7.3724 53.1172,6.71094 C53.6953,6.04948 54.4948,5.71875 55.5156,5.71875 M66.625,8.70312 L66.625,13 L65.4531,13 L65.4531,8.75 C65.4531,8.07292 65.3229,7.56771 65.0625,7.23438 C64.8021,6.90104 64.4062,6.73438 63.875,6.73438 C63.25,6.73438 62.7552,6.9349 62.3906,7.33594 C62.026,7.73698 61.8438,8.28646 61.8438,8.98438 L61.8438,13 L60.6719,13 L60.6719,5.89062 L61.8438,5.89062 L61.8438,7 C62.125,6.57292 62.4531,6.2526 62.8281,6.03906 C63.2031,5.82552 63.6406,5.71875 64.1406,5.71875 C64.9531,5.71875 65.5703,5.97135 65.9922,6.47656 C66.4141,6.98177 66.625,7.72396 66.625,8.70312 "/>
</g>

<g fill="none" stroke="#000080" stroke-opacity="1" stroke-width="1" stroke-linecap="square" stroke-linejoin="bevel" transform="matrix(1,0,0,1,0,0)"
font-family="Oxygen-Sans Sans-Book" font-size="10" font-weight="400" font-style="normal" 
>
</g>

<g fill="none" stroke="#000000" stroke-opacity="1" stroke-width="1" stroke-linecap="square" stroke-linejoin="bevel" transform="matrix(1,0,0,1,0,0)"
font-family="Oxygen-Sans Sans-Book" font-size="10" font-weight="400" font-style="normal" 
>
</g>

<g fill="none" stroke="#000000" stroke-opacity="1" stroke-width="1" stroke-linecap="square" stroke-linejoin="bevel" transform="matrix(1,0,0,1,0,0)"
font-family="Oxygen-Sans Sans-Book" font-size="10" font-weight="400" font-style="normal" 
>
</g>
</g>
</svg>
