<?xml version="1.0" encoding="UTF-8" standalone="no"?>
<svg width="41.6278mm" height="5.99722mm"
 viewBox="0 0 118 17"
 xmlns="http://www.w3.org/2000/svg" xmlns:xlink="http://www.w3.org/1999/xlink"  version="1.2" baseProfile="tiny">
<title>Harmonic balance</title>
<desc>Harmonic balance simulation</desc>
<defs>
</defs>
<g fill="none" stroke="black" stroke-width="1" fill-rule="evenodd" stroke-linecap="square" stroke-linejoin="bevel" >

<g fill="none" stroke="#000000" stroke-opacity="1" stroke-width="1" stroke-linecap="square" stroke-linejoin="bevel" transform="matrix(1,0,0,1,0,0)"
font-family="Oxygen-Sans Sans-Book" font-size="10" font-weight="400" font-style="normal" 
>
</g>

<g fill="none" stroke="#000000" stroke-opacity="1" stroke-width="1" stroke-linecap="square" stroke-linejoin="bevel" transform="matrix(1,0,0,1,0,0)"
font-family="Oxygen-Sans Sans-Book" font-size="10" font-weight="400" font-style="normal" 
>
</g>

<g fill="none" stroke="#000000" stroke-opacity="1" stroke-width="1" stroke-linecap="square" stroke-linejoin="bevel" transform="matrix(1,0,0,1,0,0)"
font-family="Oxygen-Sans Sans-Book" font-size="10" font-weight="400" font-style="normal" 
>
</g>

<g fill="none" stroke="#000000" stroke-opacity="1" stroke-width="1" stroke-linecap="square" stroke-linejoin="bevel" transform="matrix(1,0,0,1,0,0)"
font-family="Oxygen-Sans Sans-Book" font-size="10" font-weight="400" font-style="normal" 
>
</g>

<g fill="none" stroke="#000000" stroke-opacity="1" stroke-width="1" stroke-linecap="square" stroke-linejoin="bevel" transform="matrix(1,0,0,1,0,0)"
font-family="Oxygen-Sans Sans-Book" font-size="10" font-weight="400" font-style="normal" 
>
</g>

<g fill="none" stroke="#000080" stroke-opacity="1" stroke-width="1" stroke-linecap="square" stroke-linejoin="bevel" transform="matrix(1,0,0,1,0,0)"
font-family="Oxygen-Sans Sans-Book" font-size="10" font-weight="400" font-style="normal" 
>
</g>

<g fill="#000080" fill-opacity="1" stroke="#000000" stroke-opacity="1" stroke-width="1" stroke-linecap="round" stroke-linejoin="round" transform="matrix(1,0,0,1,0,0)"
font-family="Oxygen-Sans Sans-Book" font-size="10" font-weight="400" font-style="normal" 
>
<path vector-effect="non-scaling-stroke" fill-rule="nonzero" d="M1.28125,3.51562 L2.5625,3.51562 L2.5625,7.40625 L7.21875,7.40625 L7.21875,3.51562 L8.5,3.51562 L8.5,13 L7.21875,13 L7.21875,8.48438 L2.5625,8.48438 L2.5625,13 L1.28125,13 L1.28125,3.51562 M14.2188,9.42188 C13.2812,9.42188 12.6302,9.53125 12.2656,9.75 C11.901,9.96875 11.7188,10.3385 11.7188,10.8594 C11.7188,11.2656 11.8542,11.5911 12.125,11.8359 C12.3958,12.0807 12.7656,12.2031 13.2344,12.2031 C13.8802,12.2031 14.401,11.974 14.7969,11.5156 C15.1927,11.0573 15.3906,10.4479 15.3906,9.6875 L15.3906,9.42188 L14.2188,9.42188 M16.5469,8.9375 L16.5469,13 L15.3906,13 L15.3906,11.9219 C15.1198,12.349 14.7865,12.6667 14.3906,12.875 C13.9948,13.0833 13.5052,13.1875 12.9219,13.1875 C12.1927,13.1875 11.6146,12.9818 11.1875,12.5703 C10.7604,12.1589 10.5469,11.6146 10.5469,10.9375 C10.5469,10.1354 10.8151,9.53125 11.3516,9.125 C11.888,8.71875 12.6875,8.51562 13.75,8.51562 L15.3906,8.51562 L15.3906,8.39062 C15.3906,7.85938 15.2135,7.44531 14.8594,7.14844 C14.5052,6.85156 14.0052,6.70312 13.3594,6.70312 C12.9531,6.70312 12.5573,6.7526 12.1719,6.85156 C11.7865,6.95052 11.4167,7.09896 11.0625,7.29688 L11.0625,6.21875 C11.4896,6.05208 11.9062,5.92708 12.3125,5.84375 C12.7188,5.76042 13.1094,5.71875 13.4844,5.71875 C14.5156,5.71875 15.2839,5.98438 15.7891,6.51562 C16.2943,7.04688 16.5469,7.85417 16.5469,8.9375 M23.0625,6.98438 C22.9271,6.91146 22.7839,6.85677 22.6328,6.82031 C22.4818,6.78385 22.3125,6.76562 22.125,6.76562 C21.4688,6.76562 20.9635,6.97917 20.6094,7.40625 C20.2552,7.83333 20.0781,8.44792 20.0781,9.25 L20.0781,13 L18.9062,13 L18.9062,5.89062 L20.0781,5.89062 L20.0781,7 C20.3177,6.5625 20.6354,6.23958 21.0312,6.03125 C21.4271,5.82292 21.9062,5.71875 22.4688,5.71875 C22.5521,5.71875 22.6406,5.72396 22.7344,5.73438 C22.8281,5.74479 22.9375,5.76042 23.0625,5.78125 L23.0625,6.98438 M29.8281,7.25 C30.1198,6.72917 30.4688,6.34375 30.875,6.09375 C31.2812,5.84375 31.7604,5.71875 32.3125,5.71875 C33.0521,5.71875 33.6224,5.97917 34.0234,6.5 C34.4245,7.02083 34.625,7.75521 34.625,8.70312 L34.625,13 L33.4531,13 L33.4531,8.75 C33.4531,8.0625 33.3307,7.55469 33.0859,7.22656 C32.8411,6.89844 32.474,6.73438 31.9844,6.73438 C31.3802,6.73438 30.901,6.9349 30.5469,7.33594 C30.1927,7.73698 30.0156,8.28646 30.0156,8.98438 L30.0156,13 L28.8438,13 L28.8438,8.75 C28.8438,8.0625 28.724,7.55469 28.4844,7.22656 C28.2448,6.89844 27.8698,6.73438 27.3594,6.73438 C26.7656,6.73438 26.2943,6.9375 25.9453,7.34375 C25.5964,7.75 25.4219,8.29688 25.4219,8.98438 L25.4219,13 L24.25,13 L24.25,5.89062 L25.4219,5.89062 L25.4219,7 C25.6823,6.5625 26,6.23958 26.375,6.03125 C26.75,5.82292 27.1927,5.71875 27.7031,5.71875 C28.224,5.71875 28.6641,5.84896 29.0234,6.10938 C29.3828,6.36979 29.651,6.75 29.8281,7.25 M39.7031,6.70312 C39.0781,6.70312 38.5833,6.94792 38.2188,7.4375 C37.8542,7.92708 37.6719,8.59896 37.6719,9.45312 C37.6719,10.3073 37.8516,10.9766 38.2109,11.4609 C38.5703,11.9453 39.0677,12.1875 39.7031,12.1875 C40.3177,12.1875 40.8073,11.9427 41.1719,11.4531 C41.5365,10.9635 41.7188,10.2969 41.7188,9.45312 C41.7188,8.60938 41.5365,7.9401 41.1719,7.44531 C40.8073,6.95052 40.3177,6.70312 39.7031,6.70312 M39.7031,5.71875 C40.7135,5.71875 41.5104,6.04948 42.0938,6.71094 C42.6771,7.3724 42.9688,8.28646 42.9688,9.45312 C42.9688,10.6198 42.6771,11.5339 42.0938,12.1953 C41.5104,12.8568 40.7135,13.1875 39.7031,13.1875 C38.6823,13.1875 37.8828,12.8568 37.3047,12.1953 C36.7266,11.5339 36.4375,10.6198 36.4375,9.45312 C36.4375,8.28646 36.7266,7.3724 37.3047,6.71094 C37.8828,6.04948 38.6823,5.71875 39.7031,5.71875 M50.8125,8.70312 L50.8125,13 L49.6406,13 L49.6406,8.75 C49.6406,8.07292 49.5104,7.56771 49.25,7.23438 C48.9896,6.90104 48.5938,6.73438 48.0625,6.73438 C47.4375,6.73438 46.9427,6.9349 46.5781,7.33594 C46.2135,7.73698 46.0312,8.28646 46.0312,8.98438 L46.0312,13 L44.8594,13 L44.8594,5.89062 L46.0312,5.89062 L46.0312,7 C46.3125,6.57292 46.6406,6.2526 47.0156,6.03906 C47.3906,5.82552 47.8281,5.71875 48.3281,5.71875 C49.1406,5.71875 49.7578,5.97135 50.1797,6.47656 C50.6016,6.98177 50.8125,7.72396 50.8125,8.70312 M53.125,5.89062 L54.2969,5.89062 L54.2969,13 L53.125,13 L53.125,5.89062 M53.125,3.125 L54.2969,3.125 L54.2969,4.60938 L53.125,4.60938 L53.125,3.125 M61.8594,6.15625 L61.8594,7.25 C61.526,7.07292 61.1927,6.9375 60.8594,6.84375 C60.526,6.75 60.1927,6.70312 59.8594,6.70312 C59.099,6.70312 58.5104,6.94531 58.0938,7.42969 C57.6771,7.91406 57.4688,8.58854 57.4688,9.45312 C57.4688,10.3177 57.6771,10.9896 58.0938,11.4688 C58.5104,11.9479 59.099,12.1875 59.8594,12.1875 C60.1927,12.1875 60.526,12.1432 60.8594,12.0547 C61.1927,11.9661 61.526,11.8281 61.8594,11.6406 L61.8594,12.7344 C61.5365,12.8802 61.2005,12.9922 60.8516,13.0703 C60.5026,13.1484 60.1302,13.1875 59.7344,13.1875 C58.6615,13.1875 57.8099,12.8516 57.1797,12.1797 C56.5495,11.5078 56.2344,10.599 56.2344,9.45312 C56.2344,8.29688 56.5521,7.38542 57.1875,6.71875 C57.8229,6.05208 58.6979,5.71875 59.8125,5.71875 C60.1667,5.71875 60.5156,5.75521 60.8594,5.82812 C61.2031,5.90104 61.5365,6.01042 61.8594,6.15625 M73.1094,9.45312 C73.1094,8.58854 72.9323,7.91406 72.5781,7.42969 C72.224,6.94531 71.7396,6.70312 71.125,6.70312 C70.5104,6.70312 70.026,6.94531 69.6719,7.42969 C69.3177,7.91406 69.1406,8.58854 69.1406,9.45312 C69.1406,10.3073 69.3177,10.9792 69.6719,11.4688 C70.026,11.9583 70.5104,12.2031 71.125,12.2031 C71.7396,12.2031 72.224,11.9583 72.5781,11.4688 C72.9323,10.9792 73.1094,10.3073 73.1094,9.45312 M69.1406,6.96875 C69.3802,6.54167 69.6875,6.22656 70.0625,6.02344 C70.4375,5.82031 70.8854,5.71875 71.4062,5.71875 C72.2708,5.71875 72.974,6.0625 73.5156,6.75 C74.0573,7.4375 74.3281,8.33854 74.3281,9.45312 C74.3281,10.5677 74.0573,11.4688 73.5156,12.1562 C72.974,12.8438 72.2708,13.1875 71.4062,13.1875 C70.8854,13.1875 70.4375,13.0833 70.0625,12.875 C69.6875,12.6667 69.3802,12.3542 69.1406,11.9375 L69.1406,13 L67.9688,13 L67.9688,3.125 L69.1406,3.125 L69.1406,6.96875 M79.4844,9.42188 C78.5469,9.42188 77.8958,9.53125 77.5312,9.75 C77.1667,9.96875 76.9844,10.3385 76.9844,10.8594 C76.9844,11.2656 77.1198,11.5911 77.3906,11.8359 C77.6615,12.0807 78.0312,12.2031 78.5,12.2031 C79.1458,12.2031 79.6667,11.974 80.0625,11.5156 C80.4583,11.0573 80.6562,10.4479 80.6562,9.6875 L80.6562,9.42188 L79.4844,9.42188 M81.8125,8.9375 L81.8125,13 L80.6562,13 L80.6562,11.9219 C80.3854,12.349 80.0521,12.6667 79.6562,12.875 C79.2604,13.0833 78.7708,13.1875 78.1875,13.1875 C77.4583,13.1875 76.8802,12.9818 76.4531,12.5703 C76.026,12.1589 75.8125,11.6146 75.8125,10.9375 C75.8125,10.1354 76.0807,9.53125 76.6172,9.125 C77.1536,8.71875 77.9531,8.51562 79.0156,8.51562 L80.6562,8.51562 L80.6562,8.39062 C80.6562,7.85938 80.4792,7.44531 80.125,7.14844 C79.7708,6.85156 79.2708,6.70312 78.625,6.70312 C78.2188,6.70312 77.8229,6.7526 77.4375,6.85156 C77.0521,6.95052 76.6823,7.09896 76.3281,7.29688 L76.3281,6.21875 C76.7552,6.05208 77.1719,5.92708 77.5781,5.84375 C77.9844,5.76042 78.375,5.71875 78.75,5.71875 C79.7812,5.71875 80.5495,5.98438 81.0547,6.51562 C81.5599,7.04688 81.8125,7.85417 81.8125,8.9375 M84.2031,3.125 L85.375,3.125 L85.375,13 L84.2031,13 L84.2031,3.125 M91.0469,9.42188 C90.1094,9.42188 89.4583,9.53125 89.0938,9.75 C88.7292,9.96875 88.5469,10.3385 88.5469,10.8594 C88.5469,11.2656 88.6823,11.5911 88.9531,11.8359 C89.224,12.0807 89.5938,12.2031 90.0625,12.2031 C90.7083,12.2031 91.2292,11.974 91.625,11.5156 C92.0208,11.0573 92.2188,10.4479 92.2188,9.6875 L92.2188,9.42188 L91.0469,9.42188 M93.375,8.9375 L93.375,13 L92.2188,13 L92.2188,11.9219 C91.9479,12.349 91.6146,12.6667 91.2188,12.875 C90.8229,13.0833 90.3333,13.1875 89.75,13.1875 C89.0208,13.1875 88.4427,12.9818 88.0156,12.5703 C87.5885,12.1589 87.375,11.6146 87.375,10.9375 C87.375,10.1354 87.6432,9.53125 88.1797,9.125 C88.7161,8.71875 89.5156,8.51562 90.5781,8.51562 L92.2188,8.51562 L92.2188,8.39062 C92.2188,7.85938 92.0417,7.44531 91.6875,7.14844 C91.3333,6.85156 90.8333,6.70312 90.1875,6.70312 C89.7812,6.70312 89.3854,6.7526 89,6.85156 C88.6146,6.95052 88.2448,7.09896 87.8906,7.29688 L87.8906,6.21875 C88.3177,6.05208 88.7344,5.92708 89.1406,5.84375 C89.5469,5.76042 89.9375,5.71875 90.3125,5.71875 C91.3438,5.71875 92.112,5.98438 92.6172,6.51562 C93.1224,7.04688 93.375,7.85417 93.375,8.9375 M101.688,8.70312 L101.688,13 L100.516,13 L100.516,8.75 C100.516,8.07292 100.385,7.56771 100.125,7.23438 C99.8646,6.90104 99.4688,6.73438 98.9375,6.73438 C98.3125,6.73438 97.8177,6.9349 97.4531,7.33594 C97.0885,7.73698 96.9062,8.28646 96.9062,8.98438 L96.9062,13 L95.7344,13 L95.7344,5.89062 L96.9062,5.89062 L96.9062,7 C97.1875,6.57292 97.5156,6.2526 97.8906,6.03906 C98.2656,5.82552 98.7031,5.71875 99.2031,5.71875 C100.016,5.71875 100.633,5.97135 101.055,6.47656 C101.477,6.98177 101.688,7.72396 101.688,8.70312 M109.125,6.15625 L109.125,7.25 C108.792,7.07292 108.458,6.9375 108.125,6.84375 C107.792,6.75 107.458,6.70312 107.125,6.70312 C106.365,6.70312 105.776,6.94531 105.359,7.42969 C104.943,7.91406 104.734,8.58854 104.734,9.45312 C104.734,10.3177 104.943,10.9896 105.359,11.4688 C105.776,11.9479 106.365,12.1875 107.125,12.1875 C107.458,12.1875 107.792,12.1432 108.125,12.0547 C108.458,11.9661 108.792,11.8281 109.125,11.6406 L109.125,12.7344 C108.802,12.8802 108.466,12.9922 108.117,13.0703 C107.768,13.1484 107.396,13.1875 107,13.1875 C105.927,13.1875 105.076,12.8516 104.445,12.1797 C103.815,11.5078 103.5,10.599 103.5,9.45312 C103.5,8.29688 103.818,7.38542 104.453,6.71875 C105.089,6.05208 105.964,5.71875 107.078,5.71875 C107.432,5.71875 107.781,5.75521 108.125,5.82812 C108.469,5.90104 108.802,6.01042 109.125,6.15625 M117.234,9.15625 L117.234,9.71875 L111.859,9.71875 C111.911,10.5312 112.154,11.1458 112.586,11.5625 C113.018,11.9792 113.62,12.1875 114.391,12.1875 C114.839,12.1875 115.273,12.1328 115.695,12.0234 C116.117,11.9141 116.536,11.75 116.953,11.5312 L116.953,12.6406 C116.536,12.8177 116.107,12.9531 115.664,13.0469 C115.221,13.1406 114.776,13.1875 114.328,13.1875 C113.193,13.1875 112.294,12.8568 111.633,12.1953 C110.971,11.5339 110.641,10.6406 110.641,9.51562 C110.641,8.34896 110.956,7.42448 111.586,6.74219 C112.216,6.0599 113.062,5.71875 114.125,5.71875 C115.083,5.71875 115.841,6.02604 116.398,6.64062 C116.956,7.25521 117.234,8.09375 117.234,9.15625 M116.062,8.8125 C116.052,8.17708 115.872,7.66667 115.523,7.28125 C115.174,6.89583 114.714,6.70312 114.141,6.70312 C113.484,6.70312 112.961,6.88802 112.57,7.25781 C112.18,7.6276 111.953,8.14583 111.891,8.8125 L116.062,8.8125"/>
</g>

<g fill="none" stroke="#000080" stroke-opacity="1" stroke-width="1" stroke-linecap="square" stroke-linejoin="bevel" transform="matrix(1,0,0,1,0,0)"
font-family="Oxygen-Sans Sans-Book" font-size="10" font-weight="400" font-style="normal" 
>
</g>

<g fill="none" stroke="#000000" stroke-opacity="1" stroke-width="1" stroke-linecap="square" stroke-linejoin="bevel" transform="matrix(1,0,0,1,0,0)"
font-family="Oxygen-Sans Sans-Book" font-size="10" font-weight="400" font-style="normal" 
>
</g>

<g fill="none" stroke="#000000" stroke-opacity="1" stroke-width="1" stroke-linecap="square" stroke-linejoin="bevel" transform="matrix(1,0,0,1,0,0)"
font-family="Oxygen-Sans Sans-Book" font-size="10" font-weight="400" font-style="normal" 
>
</g>

<g fill="none" stroke="#000080" stroke-opacity="1" stroke-width="1" stroke-linecap="square" stroke-linejoin="bevel" transform="matrix(1,0,0,1,0,0)"
font-family="Oxygen-Sans Sans-Book" font-size="10" font-weight="400" font-style="normal" 
>
</g>

<g fill="#000080" fill-opacity="1" stroke="#000000" stroke-opacity="1" stroke-width="1" stroke-linecap="round" stroke-linejoin="round" transform="matrix(1,0,0,1,0,0)"
font-family="Oxygen-Sans Sans-Book" font-size="10" font-weight="400" font-style="normal" 
>
<path vector-effect="non-scaling-stroke" fill-rule="nonzero" d="M5.75,6.09375 L5.75,7.20312 C5.42708,7.03646 5.08854,6.91146 4.73438,6.82812 C4.38021,6.74479 4.01042,6.70312 3.625,6.70312 C3.04167,6.70312 2.60677,6.79167 2.32031,6.96875 C2.03385,7.14583 1.89062,7.41146 1.89062,7.76562 C1.89062,8.03646 1.99219,8.2474 2.19531,8.39844 C2.39844,8.54948 2.81771,8.69792 3.45312,8.84375 L3.84375,8.9375 C4.67708,9.11458 5.26823,9.36458 5.61719,9.6875 C5.96615,10.0104 6.14062,10.4583 6.14062,11.0312 C6.14062,11.6979 5.88021,12.224 5.35938,12.6094 C4.83854,12.9948 4.11979,13.1875 3.20312,13.1875 C2.81771,13.1875 2.41927,13.151 2.00781,13.0781 C1.59635,13.0052 1.16146,12.8906 0.703125,12.7344 L0.703125,11.5312 C1.14062,11.7604 1.56771,11.9297 1.98438,12.0391 C2.40104,12.1484 2.8125,12.2031 3.21875,12.2031 C3.77083,12.2031 4.19531,12.1094 4.49219,11.9219 C4.78906,11.7344 4.9375,11.4688 4.9375,11.125 C4.9375,10.8125 4.83073,10.5703 4.61719,10.3984 C4.40365,10.2266 3.9375,10.0625 3.21875,9.90625 L2.8125,9.8125 C2.08333,9.65625 1.55729,9.42188 1.23438,9.10938 C0.911458,8.79688 0.75,8.36458 0.75,7.8125 C0.75,7.14583 0.986979,6.63021 1.46094,6.26562 C1.9349,5.90104 2.60938,5.71875 3.48438,5.71875 C3.91146,5.71875 4.31771,5.75 4.70312,5.8125 C5.08854,5.875 5.4375,5.96875 5.75,6.09375 M7.98438,5.89062 L9.15625,5.89062 L9.15625,13 L7.98438,13 L7.98438,5.89062 M7.98438,3.125 L9.15625,3.125 L9.15625,4.60938 L7.98438,4.60938 L7.98438,3.125 M17.1406,7.25 C17.4323,6.72917 17.7812,6.34375 18.1875,6.09375 C18.5938,5.84375 19.0729,5.71875 19.625,5.71875 C20.3646,5.71875 20.9349,5.97917 21.3359,6.5 C21.737,7.02083 21.9375,7.75521 21.9375,8.70312 L21.9375,13 L20.7656,13 L20.7656,8.75 C20.7656,8.0625 20.6432,7.55469 20.3984,7.22656 C20.1536,6.89844 19.7865,6.73438 19.2969,6.73438 C18.6927,6.73438 18.2135,6.9349 17.8594,7.33594 C17.5052,7.73698 17.3281,8.28646 17.3281,8.98438 L17.3281,13 L16.1562,13 L16.1562,8.75 C16.1562,8.0625 16.0365,7.55469 15.7969,7.22656 C15.5573,6.89844 15.1823,6.73438 14.6719,6.73438 C14.0781,6.73438 13.6068,6.9375 13.2578,7.34375 C12.9089,7.75 12.7344,8.29688 12.7344,8.98438 L12.7344,13 L11.5625,13 L11.5625,5.89062 L12.7344,5.89062 L12.7344,7 C12.9948,6.5625 13.3125,6.23958 13.6875,6.03125 C14.0625,5.82292 14.5052,5.71875 15.0156,5.71875 C15.5365,5.71875 15.9766,5.84896 16.3359,6.10938 C16.6953,6.36979 16.9635,6.75 17.1406,7.25 M24.1406,10.1875 L24.1406,5.89062 L25.2969,5.89062 L25.2969,10.1562 C25.2969,10.8229 25.4297,11.3255 25.6953,11.6641 C25.9609,12.0026 26.3542,12.1719 26.875,12.1719 C27.5104,12.1719 28.0104,11.9714 28.375,11.5703 C28.7396,11.1693 28.9219,10.6198 28.9219,9.92188 L28.9219,5.89062 L30.0938,5.89062 L30.0938,13 L28.9219,13 L28.9219,11.9062 C28.6406,12.3438 28.3125,12.6667 27.9375,12.875 C27.5625,13.0833 27.125,13.1875 26.625,13.1875 C25.8125,13.1875 25.1953,12.9323 24.7734,12.4219 C24.3516,11.9115 24.1406,11.1667 24.1406,10.1875 M32.4844,3.125 L33.6562,3.125 L33.6562,13 L32.4844,13 L32.4844,3.125 M39.3281,9.42188 C38.3906,9.42188 37.7396,9.53125 37.375,9.75 C37.0104,9.96875 36.8281,10.3385 36.8281,10.8594 C36.8281,11.2656 36.9635,11.5911 37.2344,11.8359 C37.5052,12.0807 37.875,12.2031 38.3438,12.2031 C38.9896,12.2031 39.5104,11.974 39.9062,11.5156 C40.3021,11.0573 40.5,10.4479 40.5,9.6875 L40.5,9.42188 L39.3281,9.42188 M41.6562,8.9375 L41.6562,13 L40.5,13 L40.5,11.9219 C40.2292,12.349 39.8958,12.6667 39.5,12.875 C39.1042,13.0833 38.6146,13.1875 38.0312,13.1875 C37.3021,13.1875 36.724,12.9818 36.2969,12.5703 C35.8698,12.1589 35.6562,11.6146 35.6562,10.9375 C35.6562,10.1354 35.9245,9.53125 36.4609,9.125 C36.9974,8.71875 37.7969,8.51562 38.8594,8.51562 L40.5,8.51562 L40.5,8.39062 C40.5,7.85938 40.3229,7.44531 39.9688,7.14844 C39.6146,6.85156 39.1146,6.70312 38.4688,6.70312 C38.0625,6.70312 37.6667,6.7526 37.2812,6.85156 C36.8958,6.95052 36.526,7.09896 36.1719,7.29688 L36.1719,6.21875 C36.599,6.05208 37.0156,5.92708 37.4219,5.84375 C37.8281,5.76042 38.2188,5.71875 38.5938,5.71875 C39.625,5.71875 40.3932,5.98438 40.8984,6.51562 C41.4036,7.04688 41.6562,7.85417 41.6562,8.9375 M45.2031,3.875 L45.2031,5.89062 L47.6094,5.89062 L47.6094,6.79688 L45.2031,6.79688 L45.2031,10.6562 C45.2031,11.2396 45.2839,11.612 45.4453,11.7734 C45.6068,11.9349 45.9323,12.0156 46.4219,12.0156 L47.6094,12.0156 L47.6094,13 L46.4219,13 C45.5156,13 44.8906,12.8307 44.5469,12.4922 C44.2031,12.1536 44.0312,11.5417 44.0312,10.6562 L44.0312,6.79688 L43.1719,6.79688 L43.1719,5.89062 L44.0312,5.89062 L44.0312,3.875 L45.2031,3.875 M49.1406,5.89062 L50.3125,5.89062 L50.3125,13 L49.1406,13 L49.1406,5.89062 M49.1406,3.125 L50.3125,3.125 L50.3125,4.60938 L49.1406,4.60938 L49.1406,3.125 M55.5156,6.70312 C54.8906,6.70312 54.3958,6.94792 54.0312,7.4375 C53.6667,7.92708 53.4844,8.59896 53.4844,9.45312 C53.4844,10.3073 53.6641,10.9766 54.0234,11.4609 C54.3828,11.9453 54.8802,12.1875 55.5156,12.1875 C56.1302,12.1875 56.6198,11.9427 56.9844,11.4531 C57.349,10.9635 57.5312,10.2969 57.5312,9.45312 C57.5312,8.60938 57.349,7.9401 56.9844,7.44531 C56.6198,6.95052 56.1302,6.70312 55.5156,6.70312 M55.5156,5.71875 C56.526,5.71875 57.3229,6.04948 57.9062,6.71094 C58.4896,7.3724 58.7812,8.28646 58.7812,9.45312 C58.7812,10.6198 58.4896,11.5339 57.9062,12.1953 C57.3229,12.8568 56.526,13.1875 55.5156,13.1875 C54.4948,13.1875 53.6953,12.8568 53.1172,12.1953 C52.5391,11.5339 52.25,10.6198 52.25,9.45312 C52.25,8.28646 52.5391,7.3724 53.1172,6.71094 C53.6953,6.04948 54.4948,5.71875 55.5156,5.71875 M66.625,8.70312 L66.625,13 L65.4531,13 L65.4531,8.75 C65.4531,8.07292 65.3229,7.56771 65.0625,7.23438 C64.8021,6.90104 64.4062,6.73438 63.875,6.73438 C63.25,6.73438 62.7552,6.9349 62.3906,7.33594 C62.026,7.73698 61.8438,8.28646 61.8438,8.98438 L61.8438,13 L60.6719,13 L60.6719,5.89062 L61.8438,5.89062 L61.8438,7 C62.125,6.57292 62.4531,6.2526 62.8281,6.03906 C63.2031,5.82552 63.6406,5.71875 64.1406,5.71875 C64.9531,5.71875 65.5703,5.97135 65.9922,6.47656 C66.4141,6.98177 66.625,7.72396 66.625,8.70312 "/>
</g>

<g fill="none" stroke="#000080" stroke-opacity="1" stroke-width="1" stroke-linecap="square" stroke-linejoin="bevel" transform="matrix(1,0,0,1,0,0)"
font-family="Oxygen-Sans Sans-Book" font-size="10" font-weight="400" font-style="normal" 
>
</g>

<g fill="none" stroke="#000000" stroke-opacity="1" stroke-width="1" stroke-linecap="square" stroke-linejoin="bevel" transform="matrix(1,0,0,1,0,0)"
font-family="Oxygen-Sans Sans-Book" font-size="10" font-weight="400" font-style="normal" 
>
</g>

<g fill="none" stroke="#000000" stroke-opacity="1" stroke-width="1" stroke-linecap="square" stroke-linejoin="bevel" transform="matrix(1,0,0,1,0,0)"
font-family="Oxygen-Sans Sans-Book" font-size="10" font-weight="400" font-style="normal" 
>
</g>
</g>
</svg>
