<?xml version="1.0" encoding="UTF-8" standalone="no"?>
<svg width="24.3417mm" height="5.99722mm"
 viewBox="0 0 69 17"
 xmlns="http://www.w3.org/2000/svg" xmlns:xlink="http://www.w3.org/1999/xlink"  version="1.2" baseProfile="tiny">
<title>Parameter sweep</title>
<desc>Parameter sweep</desc>
<defs>
</defs>
<g fill="none" stroke="black" stroke-width="1" fill-rule="evenodd" stroke-linecap="square" stroke-linejoin="bevel" >

<g fill="none" stroke="#000000" stroke-opacity="1" stroke-width="1" stroke-linecap="square" stroke-linejoin="bevel" transform="matrix(1,0,0,1,0,0)"
font-family="Oxygen-Sans Sans-Book" font-size="10" font-weight="400" font-style="normal" 
>
</g>

<g fill="none" stroke="#000000" stroke-opacity="1" stroke-width="1" stroke-linecap="square" stroke-linejoin="bevel" transform="matrix(1,0,0,1,0,0)"
font-family="Oxygen-Sans Sans-Book" font-size="10" font-weight="400" font-style="normal" 
>
</g>

<g fill="none" stroke="#000000" stroke-opacity="1" stroke-width="1" stroke-linecap="square" stroke-linejoin="bevel" transform="matrix(0.997966,0,0,0.997966,0,0)"
font-family="Oxygen-Sans Sans-Book" font-size="10" font-weight="400" font-style="normal" 
>
</g>

<g fill="none" stroke="#000000" stroke-opacity="1" stroke-width="1" stroke-linecap="square" stroke-linejoin="bevel" transform="matrix(0.997966,0,0,0.997966,0,0)"
font-family="Oxygen-Sans Sans-Book" font-size="10" font-weight="400" font-style="normal" 
>
</g>

<g fill="none" stroke="#000000" stroke-opacity="1" stroke-width="1" stroke-linecap="square" stroke-linejoin="bevel" transform="matrix(0.997966,0,0,0.997966,0,0)"
font-family="Oxygen-Sans Sans-Book" font-size="10" font-weight="400" font-style="normal" 
>
</g>

<g fill="none" stroke="#000080" stroke-opacity="1" stroke-width="1" stroke-linecap="square" stroke-linejoin="bevel" transform="matrix(0.997966,0,0,0.997966,0,0)"
font-family="Oxygen-Sans Sans-Book" font-size="10" font-weight="400" font-style="normal" 
>
</g>

<g fill="#000080" fill-opacity="1" stroke="#000000" stroke-opacity="1" stroke-width="1" stroke-linecap="round" stroke-linejoin="round" transform="matrix(0.997966,0,0,0.997966,0,0)"
font-family="Oxygen-Sans Sans-Book" font-size="10" font-weight="400" font-style="normal" 
>
<path vector-effect="non-scaling-stroke" fill-rule="nonzero" d="M2.5625,4.57812 L2.5625,8.14062 L4.17188,8.14062 C4.76562,8.14062 5.22656,7.98438 5.55469,7.67188 C5.88281,7.35938 6.04688,6.92188 6.04688,6.35938 C6.04688,5.78646 5.88281,5.34635 5.55469,5.03906 C5.22656,4.73177 4.76562,4.57812 4.17188,4.57812 L2.5625,4.57812 M1.28125,3.51562 L4.17188,3.51562 C5.23438,3.51562 6.03646,3.75781 6.57812,4.24219 C7.11979,4.72656 7.39062,5.43229 7.39062,6.35938 C7.39062,7.28646 7.11979,7.98958 6.57812,8.46875 C6.03646,8.94792 5.23438,9.1875 4.17188,9.1875 L2.5625,9.1875 L2.5625,13 L1.28125,13 L1.28125,3.51562 M12.2812,9.42188 C11.3438,9.42188 10.6927,9.53125 10.3281,9.75 C9.96354,9.96875 9.78125,10.3385 9.78125,10.8594 C9.78125,11.2656 9.91667,11.5911 10.1875,11.8359 C10.4583,12.0807 10.8281,12.2031 11.2969,12.2031 C11.9427,12.2031 12.4635,11.974 12.8594,11.5156 C13.2552,11.0573 13.4531,10.4479 13.4531,9.6875 L13.4531,9.42188 L12.2812,9.42188 M14.6094,8.9375 L14.6094,13 L13.4531,13 L13.4531,11.9219 C13.1823,12.349 12.849,12.6667 12.4531,12.875 C12.0573,13.0833 11.5677,13.1875 10.9844,13.1875 C10.2552,13.1875 9.67708,12.9818 9.25,12.5703 C8.82292,12.1589 8.60938,11.6146 8.60938,10.9375 C8.60938,10.1354 8.8776,9.53125 9.41406,9.125 C9.95052,8.71875 10.75,8.51562 11.8125,8.51562 L13.4531,8.51562 L13.4531,8.39062 C13.4531,7.85938 13.276,7.44531 12.9219,7.14844 C12.5677,6.85156 12.0677,6.70312 11.4219,6.70312 C11.0156,6.70312 10.6198,6.7526 10.2344,6.85156 C9.84896,6.95052 9.47917,7.09896 9.125,7.29688 L9.125,6.21875 C9.55208,6.05208 9.96875,5.92708 10.375,5.84375 C10.7812,5.76042 11.1719,5.71875 11.5469,5.71875 C12.5781,5.71875 13.3464,5.98438 13.8516,6.51562 C14.3568,7.04688 14.6094,7.85417 14.6094,8.9375 M21.125,6.98438 C20.9896,6.91146 20.8464,6.85677 20.6953,6.82031 C20.5443,6.78385 20.375,6.76562 20.1875,6.76562 C19.5312,6.76562 19.026,6.97917 18.6719,7.40625 C18.3177,7.83333 18.1406,8.44792 18.1406,9.25 L18.1406,13 L16.9688,13 L16.9688,5.89062 L18.1406,5.89062 L18.1406,7 C18.3802,6.5625 18.6979,6.23958 19.0938,6.03125 C19.4896,5.82292 19.9688,5.71875 20.5312,5.71875 C20.6146,5.71875 20.7031,5.72396 20.7969,5.73438 C20.8906,5.74479 21,5.76042 21.125,5.78125 L21.125,6.98438 M25.5781,9.42188 C24.6406,9.42188 23.9896,9.53125 23.625,9.75 C23.2604,9.96875 23.0781,10.3385 23.0781,10.8594 C23.0781,11.2656 23.2135,11.5911 23.4844,11.8359 C23.7552,12.0807 24.125,12.2031 24.5938,12.2031 C25.2396,12.2031 25.7604,11.974 26.1562,11.5156 C26.5521,11.0573 26.75,10.4479 26.75,9.6875 L26.75,9.42188 L25.5781,9.42188 M27.9062,8.9375 L27.9062,13 L26.75,13 L26.75,11.9219 C26.4792,12.349 26.1458,12.6667 25.75,12.875 C25.3542,13.0833 24.8646,13.1875 24.2812,13.1875 C23.5521,13.1875 22.974,12.9818 22.5469,12.5703 C22.1198,12.1589 21.9062,11.6146 21.9062,10.9375 C21.9062,10.1354 22.1745,9.53125 22.7109,9.125 C23.2474,8.71875 24.0469,8.51562 25.1094,8.51562 L26.75,8.51562 L26.75,8.39062 C26.75,7.85938 26.5729,7.44531 26.2188,7.14844 C25.8646,6.85156 25.3646,6.70312 24.7188,6.70312 C24.3125,6.70312 23.9167,6.7526 23.5312,6.85156 C23.1458,6.95052 22.776,7.09896 22.4219,7.29688 L22.4219,6.21875 C22.849,6.05208 23.2656,5.92708 23.6719,5.84375 C24.0781,5.76042 24.4688,5.71875 24.8438,5.71875 C25.875,5.71875 26.6432,5.98438 27.1484,6.51562 C27.6536,7.04688 27.9062,7.85417 27.9062,8.9375 M35.8438,7.25 C36.1354,6.72917 36.4844,6.34375 36.8906,6.09375 C37.2969,5.84375 37.776,5.71875 38.3281,5.71875 C39.0677,5.71875 39.638,5.97917 40.0391,6.5 C40.4401,7.02083 40.6406,7.75521 40.6406,8.70312 L40.6406,13 L39.4688,13 L39.4688,8.75 C39.4688,8.0625 39.3464,7.55469 39.1016,7.22656 C38.8568,6.89844 38.4896,6.73438 38,6.73438 C37.3958,6.73438 36.9167,6.9349 36.5625,7.33594 C36.2083,7.73698 36.0312,8.28646 36.0312,8.98438 L36.0312,13 L34.8594,13 L34.8594,8.75 C34.8594,8.0625 34.7396,7.55469 34.5,7.22656 C34.2604,6.89844 33.8854,6.73438 33.375,6.73438 C32.7812,6.73438 32.3099,6.9375 31.9609,7.34375 C31.612,7.75 31.4375,8.29688 31.4375,8.98438 L31.4375,13 L30.2656,13 L30.2656,5.89062 L31.4375,5.89062 L31.4375,7 C31.6979,6.5625 32.0156,6.23958 32.3906,6.03125 C32.7656,5.82292 33.2083,5.71875 33.7188,5.71875 C34.2396,5.71875 34.6797,5.84896 35.0391,6.10938 C35.3984,6.36979 35.6667,6.75 35.8438,7.25 M49.0469,9.15625 L49.0469,9.71875 L43.6719,9.71875 C43.724,10.5312 43.9661,11.1458 44.3984,11.5625 C44.8307,11.9792 45.4323,12.1875 46.2031,12.1875 C46.651,12.1875 47.0859,12.1328 47.5078,12.0234 C47.9297,11.9141 48.349,11.75 48.7656,11.5312 L48.7656,12.6406 C48.349,12.8177 47.9193,12.9531 47.4766,13.0469 C47.0339,13.1406 46.5885,13.1875 46.1406,13.1875 C45.0052,13.1875 44.1068,12.8568 43.4453,12.1953 C42.7839,11.5339 42.4531,10.6406 42.4531,9.51562 C42.4531,8.34896 42.7682,7.42448 43.3984,6.74219 C44.0286,6.0599 44.875,5.71875 45.9375,5.71875 C46.8958,5.71875 47.6536,6.02604 48.2109,6.64062 C48.7682,7.25521 49.0469,8.09375 49.0469,9.15625 M47.875,8.8125 C47.8646,8.17708 47.6849,7.66667 47.3359,7.28125 C46.987,6.89583 46.526,6.70312 45.9531,6.70312 C45.2969,6.70312 44.7734,6.88802 44.3828,7.25781 C43.9922,7.6276 43.7656,8.14583 43.7031,8.8125 L47.875,8.8125 M52.0938,3.875 L52.0938,5.89062 L54.5,5.89062 L54.5,6.79688 L52.0938,6.79688 L52.0938,10.6562 C52.0938,11.2396 52.1745,11.612 52.3359,11.7734 C52.4974,11.9349 52.8229,12.0156 53.3125,12.0156 L54.5,12.0156 L54.5,13 L53.3125,13 C52.4062,13 51.7812,12.8307 51.4375,12.4922 C51.0938,12.1536 50.9219,11.5417 50.9219,10.6562 L50.9219,6.79688 L50.0625,6.79688 L50.0625,5.89062 L50.9219,5.89062 L50.9219,3.875 L52.0938,3.875 M62.125,9.15625 L62.125,9.71875 L56.75,9.71875 C56.8021,10.5312 57.0443,11.1458 57.4766,11.5625 C57.9089,11.9792 58.5104,12.1875 59.2812,12.1875 C59.7292,12.1875 60.1641,12.1328 60.5859,12.0234 C61.0078,11.9141 61.4271,11.75 61.8438,11.5312 L61.8438,12.6406 C61.4271,12.8177 60.9974,12.9531 60.5547,13.0469 C60.112,13.1406 59.6667,13.1875 59.2188,13.1875 C58.0833,13.1875 57.1849,12.8568 56.5234,12.1953 C55.862,11.5339 55.5312,10.6406 55.5312,9.51562 C55.5312,8.34896 55.8464,7.42448 56.4766,6.74219 C57.1068,6.0599 57.9531,5.71875 59.0156,5.71875 C59.974,5.71875 60.7318,6.02604 61.2891,6.64062 C61.8464,7.25521 62.125,8.09375 62.125,9.15625 M60.9531,8.8125 C60.9427,8.17708 60.763,7.66667 60.4141,7.28125 C60.0651,6.89583 59.6042,6.70312 59.0312,6.70312 C58.375,6.70312 57.8516,6.88802 57.4609,7.25781 C57.0703,7.6276 56.8438,8.14583 56.7812,8.8125 L60.9531,8.8125 M68.1406,6.98438 C68.0052,6.91146 67.862,6.85677 67.7109,6.82031 C67.5599,6.78385 67.3906,6.76562 67.2031,6.76562 C66.5469,6.76562 66.0417,6.97917 65.6875,7.40625 C65.3333,7.83333 65.1562,8.44792 65.1562,9.25 L65.1562,13 L63.9844,13 L63.9844,5.89062 L65.1562,5.89062 L65.1562,7 C65.3958,6.5625 65.7135,6.23958 66.1094,6.03125 C66.5052,5.82292 66.9844,5.71875 67.5469,5.71875 C67.6302,5.71875 67.7188,5.72396 67.8125,5.73438 C67.9062,5.74479 68.0156,5.76042 68.1406,5.78125 L68.1406,6.98438"/>
</g>

<g fill="none" stroke="#000080" stroke-opacity="1" stroke-width="1" stroke-linecap="square" stroke-linejoin="bevel" transform="matrix(0.997966,0,0,0.997966,0,0)"
font-family="Oxygen-Sans Sans-Book" font-size="10" font-weight="400" font-style="normal" 
>
</g>

<g fill="none" stroke="#000000" stroke-opacity="1" stroke-width="1" stroke-linecap="square" stroke-linejoin="bevel" transform="matrix(0.997966,0,0,0.997966,0,0)"
font-family="Oxygen-Sans Sans-Book" font-size="10" font-weight="400" font-style="normal" 
>
</g>

<g fill="none" stroke="#000000" stroke-opacity="1" stroke-width="1" stroke-linecap="square" stroke-linejoin="bevel" transform="matrix(0.997966,0,0,0.997966,0,0)"
font-family="Oxygen-Sans Sans-Book" font-size="10" font-weight="400" font-style="normal" 
>
</g>

<g fill="none" stroke="#000080" stroke-opacity="1" stroke-width="1" stroke-linecap="square" stroke-linejoin="bevel" transform="matrix(0.997966,0,0,0.997966,0,0)"
font-family="Oxygen-Sans Sans-Book" font-size="10" font-weight="400" font-style="normal" 
>
</g>

<g fill="#000080" fill-opacity="1" stroke="#000000" stroke-opacity="1" stroke-width="1" stroke-linecap="round" stroke-linejoin="round" transform="matrix(0.997966,0,0,0.997966,0,0)"
font-family="Oxygen-Sans Sans-Book" font-size="10" font-weight="400" font-style="normal" 
>
<path vector-effect="non-scaling-stroke" fill-rule="nonzero" d="M5.75,6.09375 L5.75,7.20312 C5.42708,7.03646 5.08854,6.91146 4.73438,6.82812 C4.38021,6.74479 4.01042,6.70312 3.625,6.70312 C3.04167,6.70312 2.60677,6.79167 2.32031,6.96875 C2.03385,7.14583 1.89062,7.41146 1.89062,7.76562 C1.89062,8.03646 1.99219,8.2474 2.19531,8.39844 C2.39844,8.54948 2.81771,8.69792 3.45312,8.84375 L3.84375,8.9375 C4.67708,9.11458 5.26823,9.36458 5.61719,9.6875 C5.96615,10.0104 6.14062,10.4583 6.14062,11.0312 C6.14062,11.6979 5.88021,12.224 5.35938,12.6094 C4.83854,12.9948 4.11979,13.1875 3.20312,13.1875 C2.81771,13.1875 2.41927,13.151 2.00781,13.0781 C1.59635,13.0052 1.16146,12.8906 0.703125,12.7344 L0.703125,11.5312 C1.14062,11.7604 1.56771,11.9297 1.98438,12.0391 C2.40104,12.1484 2.8125,12.2031 3.21875,12.2031 C3.77083,12.2031 4.19531,12.1094 4.49219,11.9219 C4.78906,11.7344 4.9375,11.4688 4.9375,11.125 C4.9375,10.8125 4.83073,10.5703 4.61719,10.3984 C4.40365,10.2266 3.9375,10.0625 3.21875,9.90625 L2.8125,9.8125 C2.08333,9.65625 1.55729,9.42188 1.23438,9.10938 C0.911458,8.79688 0.75,8.36458 0.75,7.8125 C0.75,7.14583 0.986979,6.63021 1.46094,6.26562 C1.9349,5.90104 2.60938,5.71875 3.48438,5.71875 C3.91146,5.71875 4.31771,5.75 4.70312,5.8125 C5.08854,5.875 5.4375,5.96875 5.75,6.09375 M7.3125,5.89062 L8.48438,5.89062 L9.9375,11.4375 L11.3906,5.89062 L12.7656,5.89062 L14.2344,11.4375 L15.6875,5.89062 L16.8594,5.89062 L15,13 L13.6094,13 L12.0781,7.17188 L10.5469,13 L9.17188,13 L7.3125,5.89062 M24.7031,9.15625 L24.7031,9.71875 L19.3281,9.71875 C19.3802,10.5312 19.6224,11.1458 20.0547,11.5625 C20.487,11.9792 21.0885,12.1875 21.8594,12.1875 C22.3073,12.1875 22.7422,12.1328 23.1641,12.0234 C23.5859,11.9141 24.0052,11.75 24.4219,11.5312 L24.4219,12.6406 C24.0052,12.8177 23.5755,12.9531 23.1328,13.0469 C22.6901,13.1406 22.2448,13.1875 21.7969,13.1875 C20.6615,13.1875 19.763,12.8568 19.1016,12.1953 C18.4401,11.5339 18.1094,10.6406 18.1094,9.51562 C18.1094,8.34896 18.4245,7.42448 19.0547,6.74219 C19.6849,6.0599 20.5312,5.71875 21.5938,5.71875 C22.5521,5.71875 23.3099,6.02604 23.8672,6.64062 C24.4245,7.25521 24.7031,8.09375 24.7031,9.15625 M23.5312,8.8125 C23.5208,8.17708 23.3411,7.66667 22.9922,7.28125 C22.6432,6.89583 22.1823,6.70312 21.6094,6.70312 C20.9531,6.70312 20.4297,6.88802 20.0391,7.25781 C19.6484,7.6276 19.4219,8.14583 19.3594,8.8125 L23.5312,8.8125 M32.6875,9.15625 L32.6875,9.71875 L27.3125,9.71875 C27.3646,10.5312 27.6068,11.1458 28.0391,11.5625 C28.4714,11.9792 29.0729,12.1875 29.8438,12.1875 C30.2917,12.1875 30.7266,12.1328 31.1484,12.0234 C31.5703,11.9141 31.9896,11.75 32.4062,11.5312 L32.4062,12.6406 C31.9896,12.8177 31.5599,12.9531 31.1172,13.0469 C30.6745,13.1406 30.2292,13.1875 29.7812,13.1875 C28.6458,13.1875 27.7474,12.8568 27.0859,12.1953 C26.4245,11.5339 26.0938,10.6406 26.0938,9.51562 C26.0938,8.34896 26.4089,7.42448 27.0391,6.74219 C27.6693,6.0599 28.5156,5.71875 29.5781,5.71875 C30.5365,5.71875 31.2943,6.02604 31.8516,6.64062 C32.4089,7.25521 32.6875,8.09375 32.6875,9.15625 M31.5156,8.8125 C31.5052,8.17708 31.3255,7.66667 30.9766,7.28125 C30.6276,6.89583 30.1667,6.70312 29.5938,6.70312 C28.9375,6.70312 28.4141,6.88802 28.0234,7.25781 C27.6328,7.6276 27.4062,8.14583 27.3438,8.8125 L31.5156,8.8125 M35.7188,11.9375 L35.7188,15.7031 L34.5469,15.7031 L34.5469,5.89062 L35.7188,5.89062 L35.7188,6.96875 C35.9583,6.54167 36.2656,6.22656 36.6406,6.02344 C37.0156,5.82031 37.4635,5.71875 37.9844,5.71875 C38.849,5.71875 39.5521,6.0625 40.0938,6.75 C40.6354,7.4375 40.9062,8.33854 40.9062,9.45312 C40.9062,10.5677 40.6354,11.4688 40.0938,12.1562 C39.5521,12.8438 38.849,13.1875 37.9844,13.1875 C37.4635,13.1875 37.0156,13.0833 36.6406,12.875 C36.2656,12.6667 35.9583,12.3542 35.7188,11.9375 M39.6875,9.45312 C39.6875,8.58854 39.5104,7.91406 39.1562,7.42969 C38.8021,6.94531 38.3177,6.70312 37.7031,6.70312 C37.0885,6.70312 36.6042,6.94531 36.25,7.42969 C35.8958,7.91406 35.7188,8.58854 35.7188,9.45312 C35.7188,10.3073 35.8958,10.9792 36.25,11.4688 C36.6042,11.9583 37.0885,12.2031 37.7031,12.2031 C38.3177,12.2031 38.8021,11.9583 39.1562,11.4688 C39.5104,10.9792 39.6875,10.3073 39.6875,9.45312 "/>
</g>

<g fill="none" stroke="#000080" stroke-opacity="1" stroke-width="1" stroke-linecap="square" stroke-linejoin="bevel" transform="matrix(0.997966,0,0,0.997966,0,0)"
font-family="Oxygen-Sans Sans-Book" font-size="10" font-weight="400" font-style="normal" 
>
</g>

<g fill="none" stroke="#000000" stroke-opacity="1" stroke-width="1" stroke-linecap="square" stroke-linejoin="bevel" transform="matrix(0.997966,0,0,0.997966,0,0)"
font-family="Oxygen-Sans Sans-Book" font-size="10" font-weight="400" font-style="normal" 
>
</g>

<g fill="none" stroke="#000000" stroke-opacity="1" stroke-width="1" stroke-linecap="square" stroke-linejoin="bevel" transform="matrix(1,0,0,1,0,0)"
font-family="Oxygen-Sans Sans-Book" font-size="10" font-weight="400" font-style="normal" 
>
</g>
</g>
</svg>
