<?xml version="1.0" encoding="UTF-8" standalone="no"?>
<svg width="29.2806mm" height="5.99722mm"
 viewBox="0 0 83 17"
 xmlns="http://www.w3.org/2000/svg" xmlns:xlink="http://www.w3.org/1999/xlink"  version="1.2" baseProfile="tiny">
<title>optimization</title>
<desc>Optimization</desc>
<defs>
</defs>
<g fill="none" stroke="black" stroke-width="1" fill-rule="evenodd" stroke-linecap="square" stroke-linejoin="bevel" >

<g fill="none" stroke="#000000" stroke-opacity="1" stroke-width="1" stroke-linecap="square" stroke-linejoin="bevel" transform="matrix(1,0,0,1,0,0)"
font-family="Oxygen-Sans Sans-Book" font-size="10" font-weight="400" font-style="normal" 
>
</g>

<g fill="none" stroke="#000000" stroke-opacity="1" stroke-width="1" stroke-linecap="square" stroke-linejoin="bevel" transform="matrix(1,0,0,1,0,0)"
font-family="Oxygen-Sans Sans-Book" font-size="10" font-weight="400" font-style="normal" 
>
</g>

<g fill="none" stroke="#000000" stroke-opacity="1" stroke-width="1" stroke-linecap="square" stroke-linejoin="bevel" transform="matrix(0.998872,0,0,0.998872,0,0)"
font-family="Oxygen-Sans Sans-Book" font-size="10" font-weight="400" font-style="normal" 
>
</g>

<g fill="none" stroke="#000000" stroke-opacity="1" stroke-width="1" stroke-linecap="square" stroke-linejoin="bevel" transform="matrix(0.998872,0,0,0.998872,0,0)"
font-family="Oxygen-Sans Sans-Book" font-size="10" font-weight="400" font-style="normal" 
>
</g>

<g fill="none" stroke="#000000" stroke-opacity="1" stroke-width="1" stroke-linecap="square" stroke-linejoin="bevel" transform="matrix(0.998872,0,0,0.998872,0,0)"
font-family="Oxygen-Sans Sans-Book" font-size="10" font-weight="400" font-style="normal" 
>
</g>

<g fill="none" stroke="#000080" stroke-opacity="1" stroke-width="1" stroke-linecap="square" stroke-linejoin="bevel" transform="matrix(0.998872,0,0,0.998872,0,0)"
font-family="Oxygen-Sans Sans-Book" font-size="10" font-weight="400" font-style="normal" 
>
</g>

<g fill="#000080" fill-opacity="1" stroke="#000000" stroke-opacity="1" stroke-width="1" stroke-linecap="round" stroke-linejoin="round" transform="matrix(0.998872,0,0,0.998872,0,0)"
font-family="Oxygen-Sans Sans-Book" font-size="10" font-weight="400" font-style="normal" 
>
<path vector-effect="non-scaling-stroke" fill-rule="nonzero" d="M5.125,4.39062 C4.1875,4.39062 3.44531,4.73698 2.89844,5.42969 C2.35156,6.1224 2.07812,7.06771 2.07812,8.26562 C2.07812,9.46354 2.35156,10.4089 2.89844,11.1016 C3.44531,11.7943 4.1875,12.1406 5.125,12.1406 C6.05208,12.1406 6.78906,11.7943 7.33594,11.1016 C7.88281,10.4089 8.15625,9.46354 8.15625,8.26562 C8.15625,7.06771 7.88281,6.1224 7.33594,5.42969 C6.78906,4.73698 6.05208,4.39062 5.125,4.39062 M5.125,3.34375 C6.44792,3.34375 7.50781,3.79167 8.30469,4.6875 C9.10156,5.58333 9.5,6.77604 9.5,8.26562 C9.5,9.76562 9.10156,10.9609 8.30469,11.8516 C7.50781,12.7422 6.44792,13.1875 5.125,13.1875 C3.79167,13.1875 2.72656,12.7422 1.92969,11.8516 C1.13281,10.9609 0.734375,9.76562 0.734375,8.26562 C0.734375,6.77604 1.13281,5.58333 1.92969,4.6875 C2.72656,3.79167 3.79167,3.34375 5.125,3.34375 M12.5781,11.9375 L12.5781,15.7031 L11.4062,15.7031 L11.4062,5.89062 L12.5781,5.89062 L12.5781,6.96875 C12.8177,6.54167 13.125,6.22656 13.5,6.02344 C13.875,5.82031 14.3229,5.71875 14.8438,5.71875 C15.7083,5.71875 16.4115,6.0625 16.9531,6.75 C17.4948,7.4375 17.7656,8.33854 17.7656,9.45312 C17.7656,10.5677 17.4948,11.4688 16.9531,12.1562 C16.4115,12.8438 15.7083,13.1875 14.8438,13.1875 C14.3229,13.1875 13.875,13.0833 13.5,12.875 C13.125,12.6667 12.8177,12.3542 12.5781,11.9375 M16.5469,9.45312 C16.5469,8.58854 16.3698,7.91406 16.0156,7.42969 C15.6615,6.94531 15.1771,6.70312 14.5625,6.70312 C13.9479,6.70312 13.4635,6.94531 13.1094,7.42969 C12.7552,7.91406 12.5781,8.58854 12.5781,9.45312 C12.5781,10.3073 12.7552,10.9792 13.1094,11.4688 C13.4635,11.9583 13.9479,12.2031 14.5625,12.2031 C15.1771,12.2031 15.6615,11.9583 16.0156,11.4688 C16.3698,10.9792 16.5469,10.3073 16.5469,9.45312 M20.8438,3.875 L20.8438,5.89062 L23.25,5.89062 L23.25,6.79688 L20.8438,6.79688 L20.8438,10.6562 C20.8438,11.2396 20.9245,11.612 21.0859,11.7734 C21.2474,11.9349 21.5729,12.0156 22.0625,12.0156 L23.25,12.0156 L23.25,13 L22.0625,13 C21.1562,13 20.5312,12.8307 20.1875,12.4922 C19.8438,12.1536 19.6719,11.5417 19.6719,10.6562 L19.6719,6.79688 L18.8125,6.79688 L18.8125,5.89062 L19.6719,5.89062 L19.6719,3.875 L20.8438,3.875 M24.7812,5.89062 L25.9531,5.89062 L25.9531,13 L24.7812,13 L24.7812,5.89062 M24.7812,3.125 L25.9531,3.125 L25.9531,4.60938 L24.7812,4.60938 L24.7812,3.125 M33.9375,7.25 C34.2292,6.72917 34.5781,6.34375 34.9844,6.09375 C35.3906,5.84375 35.8698,5.71875 36.4219,5.71875 C37.1615,5.71875 37.7318,5.97917 38.1328,6.5 C38.5339,7.02083 38.7344,7.75521 38.7344,8.70312 L38.7344,13 L37.5625,13 L37.5625,8.75 C37.5625,8.0625 37.4401,7.55469 37.1953,7.22656 C36.9505,6.89844 36.5833,6.73438 36.0938,6.73438 C35.4896,6.73438 35.0104,6.9349 34.6562,7.33594 C34.3021,7.73698 34.125,8.28646 34.125,8.98438 L34.125,13 L32.9531,13 L32.9531,8.75 C32.9531,8.0625 32.8333,7.55469 32.5938,7.22656 C32.3542,6.89844 31.9792,6.73438 31.4688,6.73438 C30.875,6.73438 30.4036,6.9375 30.0547,7.34375 C29.7057,7.75 29.5312,8.29688 29.5312,8.98438 L29.5312,13 L28.3594,13 L28.3594,5.89062 L29.5312,5.89062 L29.5312,7 C29.7917,6.5625 30.1094,6.23958 30.4844,6.03125 C30.8594,5.82292 31.3021,5.71875 31.8125,5.71875 C32.3333,5.71875 32.7734,5.84896 33.1328,6.10938 C33.4922,6.36979 33.7604,6.75 33.9375,7.25 M41.0469,5.89062 L42.2188,5.89062 L42.2188,13 L41.0469,13 L41.0469,5.89062 M41.0469,3.125 L42.2188,3.125 L42.2188,4.60938 L41.0469,4.60938 L41.0469,3.125 M44.1562,5.89062 L49.7031,5.89062 L49.7031,6.95312 L45.3125,12.0625 L49.7031,12.0625 L49.7031,13 L44,13 L44,11.9375 L48.3906,6.82812 L44.1562,6.82812 L44.1562,5.89062 M54.7031,9.42188 C53.7656,9.42188 53.1146,9.53125 52.75,9.75 C52.3854,9.96875 52.2031,10.3385 52.2031,10.8594 C52.2031,11.2656 52.3385,11.5911 52.6094,11.8359 C52.8802,12.0807 53.25,12.2031 53.7188,12.2031 C54.3646,12.2031 54.8854,11.974 55.2812,11.5156 C55.6771,11.0573 55.875,10.4479 55.875,9.6875 L55.875,9.42188 L54.7031,9.42188 M57.0312,8.9375 L57.0312,13 L55.875,13 L55.875,11.9219 C55.6042,12.349 55.2708,12.6667 54.875,12.875 C54.4792,13.0833 53.9896,13.1875 53.4062,13.1875 C52.6771,13.1875 52.099,12.9818 51.6719,12.5703 C51.2448,12.1589 51.0312,11.6146 51.0312,10.9375 C51.0312,10.1354 51.2995,9.53125 51.8359,9.125 C52.3724,8.71875 53.1719,8.51562 54.2344,8.51562 L55.875,8.51562 L55.875,8.39062 C55.875,7.85938 55.6979,7.44531 55.3438,7.14844 C54.9896,6.85156 54.4896,6.70312 53.8438,6.70312 C53.4375,6.70312 53.0417,6.7526 52.6562,6.85156 C52.2708,6.95052 51.901,7.09896 51.5469,7.29688 L51.5469,6.21875 C51.974,6.05208 52.3906,5.92708 52.7969,5.84375 C53.2031,5.76042 53.5938,5.71875 53.9688,5.71875 C55,5.71875 55.7682,5.98438 56.2734,6.51562 C56.7786,7.04688 57.0312,7.85417 57.0312,8.9375 M60.5781,3.875 L60.5781,5.89062 L62.9844,5.89062 L62.9844,6.79688 L60.5781,6.79688 L60.5781,10.6562 C60.5781,11.2396 60.6589,11.612 60.8203,11.7734 C60.9818,11.9349 61.3073,12.0156 61.7969,12.0156 L62.9844,12.0156 L62.9844,13 L61.7969,13 C60.8906,13 60.2656,12.8307 59.9219,12.4922 C59.5781,12.1536 59.4062,11.5417 59.4062,10.6562 L59.4062,6.79688 L58.5469,6.79688 L58.5469,5.89062 L59.4062,5.89062 L59.4062,3.875 L60.5781,3.875 M64.5156,5.89062 L65.6875,5.89062 L65.6875,13 L64.5156,13 L64.5156,5.89062 M64.5156,3.125 L65.6875,3.125 L65.6875,4.60938 L64.5156,4.60938 L64.5156,3.125 M70.8906,6.70312 C70.2656,6.70312 69.7708,6.94792 69.4062,7.4375 C69.0417,7.92708 68.8594,8.59896 68.8594,9.45312 C68.8594,10.3073 69.0391,10.9766 69.3984,11.4609 C69.7578,11.9453 70.2552,12.1875 70.8906,12.1875 C71.5052,12.1875 71.9948,11.9427 72.3594,11.4531 C72.724,10.9635 72.9062,10.2969 72.9062,9.45312 C72.9062,8.60938 72.724,7.9401 72.3594,7.44531 C71.9948,6.95052 71.5052,6.70312 70.8906,6.70312 M70.8906,5.71875 C71.901,5.71875 72.6979,6.04948 73.2812,6.71094 C73.8646,7.3724 74.1562,8.28646 74.1562,9.45312 C74.1562,10.6198 73.8646,11.5339 73.2812,12.1953 C72.6979,12.8568 71.901,13.1875 70.8906,13.1875 C69.8698,13.1875 69.0703,12.8568 68.4922,12.1953 C67.9141,11.5339 67.625,10.6198 67.625,9.45312 C67.625,8.28646 67.9141,7.3724 68.4922,6.71094 C69.0703,6.04948 69.8698,5.71875 70.8906,5.71875 M82,8.70312 L82,13 L80.8281,13 L80.8281,8.75 C80.8281,8.07292 80.6979,7.56771 80.4375,7.23438 C80.1771,6.90104 79.7812,6.73438 79.25,6.73438 C78.625,6.73438 78.1302,6.9349 77.7656,7.33594 C77.401,7.73698 77.2188,8.28646 77.2188,8.98438 L77.2188,13 L76.0469,13 L76.0469,5.89062 L77.2188,5.89062 L77.2188,7 C77.5,6.57292 77.8281,6.2526 78.2031,6.03906 C78.5781,5.82552 79.0156,5.71875 79.5156,5.71875 C80.3281,5.71875 80.9453,5.97135 81.3672,6.47656 C81.7891,6.98177 82,7.72396 82,8.70312 "/>
</g>

<g fill="none" stroke="#000080" stroke-opacity="1" stroke-width="1" stroke-linecap="square" stroke-linejoin="bevel" transform="matrix(0.998872,0,0,0.998872,0,0)"
font-family="Oxygen-Sans Sans-Book" font-size="10" font-weight="400" font-style="normal" 
>
</g>

<g fill="none" stroke="#000000" stroke-opacity="1" stroke-width="1" stroke-linecap="square" stroke-linejoin="bevel" transform="matrix(0.998872,0,0,0.998872,0,0)"
font-family="Oxygen-Sans Sans-Book" font-size="10" font-weight="400" font-style="normal" 
>
</g>

<g fill="none" stroke="#000000" stroke-opacity="1" stroke-width="1" stroke-linecap="square" stroke-linejoin="bevel" transform="matrix(1,0,0,1,0,0)"
font-family="Oxygen-Sans Sans-Book" font-size="10" font-weight="400" font-style="normal" 
>
</g>
</g>
</svg>
