<?xml version="1.0" encoding="UTF-8" standalone="no"?>
<svg width="12.7mm" height="10.5833mm"
 viewBox="0 0 36 30"
 xmlns="http://www.w3.org/2000/svg" xmlns:xlink="http://www.w3.org/1999/xlink"  version="1.2" baseProfile="tiny">
<title>SPICE netlist</title>
<desc>SPICE netlist file</desc>
<defs>
</defs>
<g fill="none" stroke="black" stroke-width="1" fill-rule="evenodd" stroke-linecap="square" stroke-linejoin="bevel" >

<g fill="none" stroke="#000000" stroke-opacity="1" stroke-width="1" stroke-linecap="square" stroke-linejoin="bevel" transform="matrix(1,0,0,1,0,0)"
font-family="Oxygen-Sans Sans-Book" font-size="10" font-weight="400" font-style="normal" 
>
</g>

<g fill="none" stroke="#000000" stroke-opacity="1" stroke-width="1" stroke-linecap="square" stroke-linejoin="bevel" transform="matrix(1,0,0,1,0,0)"
font-family="Oxygen-Sans Sans-Book" font-size="10" font-weight="400" font-style="normal" 
>
</g>

<g fill="none" stroke="#000000" stroke-opacity="1" stroke-width="1" stroke-linecap="square" stroke-linejoin="bevel" transform="matrix(0.986842,0,0,0.986842,16.9737,15)"
font-family="Oxygen-Sans Sans-Book" font-size="10" font-weight="400" font-style="normal" 
>
</g>

<g fill="none" stroke="#000000" stroke-opacity="1" stroke-width="1" stroke-linecap="square" stroke-linejoin="bevel" transform="matrix(0.986842,0,0,0.986842,16.9737,15)"
font-family="Oxygen-Sans Sans-Book" font-size="10" font-weight="400" font-style="normal" 
>
</g>

<g fill="none" stroke="#000000" stroke-opacity="1" stroke-width="1" stroke-linecap="square" stroke-linejoin="bevel" transform="matrix(0.986842,0,0,0.986842,16.9737,15)"
font-family="Oxygen-Sans Sans-Book" font-size="10" font-weight="400" font-style="normal" 
>
</g>

<g fill="none" stroke="#000080" stroke-opacity="1" stroke-width="0.4" stroke-linecap="round" stroke-linejoin="round" transform="matrix(0.986842,0,0,0.986842,16.9737,15)"
font-family="Oxygen-Sans Sans-Book" font-size="10" font-weight="400" font-style="normal" 
>
<polyline fill="none" vector-effect="none" points="-17,-15 17,-15 " />
</g>

<g fill="none" stroke="#000000" stroke-opacity="1" stroke-width="1" stroke-linecap="square" stroke-linejoin="bevel" transform="matrix(0.986842,0,0,0.986842,16.9737,15)"
font-family="Oxygen-Sans Sans-Book" font-size="10" font-weight="400" font-style="normal" 
>
</g>

<g fill="none" stroke="#000000" stroke-opacity="1" stroke-width="1" stroke-linecap="square" stroke-linejoin="bevel" transform="matrix(0.986842,0,0,0.986842,16.9737,15)"
font-family="Oxygen-Sans Sans-Book" font-size="10" font-weight="400" font-style="normal" 
>
</g>

<g fill="none" stroke="#000080" stroke-opacity="1" stroke-width="0.4" stroke-linecap="round" stroke-linejoin="round" transform="matrix(0.986842,0,0,0.986842,16.9737,15)"
font-family="Oxygen-Sans Sans-Book" font-size="10" font-weight="400" font-style="normal" 
>
<polyline fill="none" vector-effect="none" points="17,-15 17,15 " />
</g>

<g fill="none" stroke="#000000" stroke-opacity="1" stroke-width="1" stroke-linecap="square" stroke-linejoin="bevel" transform="matrix(0.986842,0,0,0.986842,16.9737,15)"
font-family="Oxygen-Sans Sans-Book" font-size="10" font-weight="400" font-style="normal" 
>
</g>

<g fill="none" stroke="#000000" stroke-opacity="1" stroke-width="1" stroke-linecap="square" stroke-linejoin="bevel" transform="matrix(0.986842,0,0,0.986842,16.9737,15)"
font-family="Oxygen-Sans Sans-Book" font-size="10" font-weight="400" font-style="normal" 
>
</g>

<g fill="none" stroke="#000080" stroke-opacity="1" stroke-width="0.4" stroke-linecap="round" stroke-linejoin="round" transform="matrix(0.986842,0,0,0.986842,16.9737,15)"
font-family="Oxygen-Sans Sans-Book" font-size="10" font-weight="400" font-style="normal" 
>
<polyline fill="none" vector-effect="none" points="-17,15 17,15 " />
</g>

<g fill="none" stroke="#000000" stroke-opacity="1" stroke-width="1" stroke-linecap="square" stroke-linejoin="bevel" transform="matrix(0.986842,0,0,0.986842,16.9737,15)"
font-family="Oxygen-Sans Sans-Book" font-size="10" font-weight="400" font-style="normal" 
>
</g>

<g fill="none" stroke="#000000" stroke-opacity="1" stroke-width="1" stroke-linecap="square" stroke-linejoin="bevel" transform="matrix(0.986842,0,0,0.986842,16.9737,15)"
font-family="Oxygen-Sans Sans-Book" font-size="10" font-weight="400" font-style="normal" 
>
</g>

<g fill="none" stroke="#000080" stroke-opacity="1" stroke-width="0.4" stroke-linecap="round" stroke-linejoin="round" transform="matrix(0.986842,0,0,0.986842,16.9737,15)"
font-family="Oxygen-Sans Sans-Book" font-size="10" font-weight="400" font-style="normal" 
>
<polyline fill="none" vector-effect="none" points="-17,-15 -17,15 " />
</g>

<g fill="none" stroke="#000000" stroke-opacity="1" stroke-width="1" stroke-linecap="square" stroke-linejoin="bevel" transform="matrix(0.986842,0,0,0.986842,16.9737,15)"
font-family="Oxygen-Sans Sans-Book" font-size="10" font-weight="400" font-style="normal" 
>
</g>

<g fill="none" stroke="#000000" stroke-opacity="1" stroke-width="1" stroke-linecap="square" stroke-linejoin="bevel" transform="matrix(0.986842,0,0,0.986842,2.17105,6.11842)"
font-family="Oxygen-Sans Sans-Book" font-size="10" font-weight="400" font-style="normal" 
>
</g>

<g fill="none" stroke="#000000" stroke-opacity="1" stroke-width="1" stroke-linecap="square" stroke-linejoin="bevel" transform="matrix(0.986842,0,0,0.986842,2.17105,6.11842)"
font-family="Oxygen-Sans Sans-Book" font-size="10" font-weight="400" font-style="normal" 
>
</g>

<g fill="#000000" fill-opacity="1" stroke="#000000" stroke-opacity="1" stroke-width="1" stroke-linecap="round" stroke-linejoin="round" transform="matrix(0.986842,0,0,0.986842,2.17105,6.11842)"
font-family="Oxygen-Sans Sans-Book" font-size="10" font-weight="400" font-style="normal" 
>
<path vector-effect="non-scaling-stroke" fill-rule="nonzero" d="M5.75,6.09375 L5.75,7.20312 C5.42708,7.03646 5.08854,6.91146 4.73438,6.82812 C4.38021,6.74479 4.01042,6.70312 3.625,6.70312 C3.04167,6.70312 2.60677,6.79167 2.32031,6.96875 C2.03385,7.14583 1.89062,7.41146 1.89062,7.76562 C1.89062,8.03646 1.99219,8.2474 2.19531,8.39844 C2.39844,8.54948 2.81771,8.69792 3.45312,8.84375 L3.84375,8.9375 C4.67708,9.11458 5.26823,9.36458 5.61719,9.6875 C5.96615,10.0104 6.14062,10.4583 6.14062,11.0312 C6.14062,11.6979 5.88021,12.224 5.35938,12.6094 C4.83854,12.9948 4.11979,13.1875 3.20312,13.1875 C2.81771,13.1875 2.41927,13.151 2.00781,13.0781 C1.59635,13.0052 1.16146,12.8906 0.703125,12.7344 L0.703125,11.5312 C1.14062,11.7604 1.56771,11.9297 1.98438,12.0391 C2.40104,12.1484 2.8125,12.2031 3.21875,12.2031 C3.77083,12.2031 4.19531,12.1094 4.49219,11.9219 C4.78906,11.7344 4.9375,11.4688 4.9375,11.125 C4.9375,10.8125 4.83073,10.5703 4.61719,10.3984 C4.40365,10.2266 3.9375,10.0625 3.21875,9.90625 L2.8125,9.8125 C2.08333,9.65625 1.55729,9.42188 1.23438,9.10938 C0.911458,8.79688 0.75,8.36458 0.75,7.8125 C0.75,7.14583 0.986979,6.63021 1.46094,6.26562 C1.9349,5.90104 2.60938,5.71875 3.48438,5.71875 C3.91146,5.71875 4.31771,5.75 4.70312,5.8125 C5.08854,5.875 5.4375,5.96875 5.75,6.09375 M9.125,11.9375 L9.125,15.7031 L7.95312,15.7031 L7.95312,5.89062 L9.125,5.89062 L9.125,6.96875 C9.36458,6.54167 9.67188,6.22656 10.0469,6.02344 C10.4219,5.82031 10.8698,5.71875 11.3906,5.71875 C12.2552,5.71875 12.9583,6.0625 13.5,6.75 C14.0417,7.4375 14.3125,8.33854 14.3125,9.45312 C14.3125,10.5677 14.0417,11.4688 13.5,12.1562 C12.9583,12.8438 12.2552,13.1875 11.3906,13.1875 C10.8698,13.1875 10.4219,13.0833 10.0469,12.875 C9.67188,12.6667 9.36458,12.3542 9.125,11.9375 M13.0938,9.45312 C13.0938,8.58854 12.9167,7.91406 12.5625,7.42969 C12.2083,6.94531 11.724,6.70312 11.1094,6.70312 C10.4948,6.70312 10.0104,6.94531 9.65625,7.42969 C9.30208,7.91406 9.125,8.58854 9.125,9.45312 C9.125,10.3073 9.30208,10.9792 9.65625,11.4688 C10.0104,11.9583 10.4948,12.2031 11.1094,12.2031 C11.724,12.2031 12.2083,11.9583 12.5625,11.4688 C12.9167,10.9792 13.0938,10.3073 13.0938,9.45312 M16.2344,5.89062 L17.4062,5.89062 L17.4062,13 L16.2344,13 L16.2344,5.89062 M16.2344,3.125 L17.4062,3.125 L17.4062,4.60938 L16.2344,4.60938 L16.2344,3.125 M24.9688,6.15625 L24.9688,7.25 C24.6354,7.07292 24.3021,6.9375 23.9688,6.84375 C23.6354,6.75 23.3021,6.70312 22.9688,6.70312 C22.2083,6.70312 21.6198,6.94531 21.2031,7.42969 C20.7865,7.91406 20.5781,8.58854 20.5781,9.45312 C20.5781,10.3177 20.7865,10.9896 21.2031,11.4688 C21.6198,11.9479 22.2083,12.1875 22.9688,12.1875 C23.3021,12.1875 23.6354,12.1432 23.9688,12.0547 C24.3021,11.9661 24.6354,11.8281 24.9688,11.6406 L24.9688,12.7344 C24.6458,12.8802 24.3099,12.9922 23.9609,13.0703 C23.612,13.1484 23.2396,13.1875 22.8438,13.1875 C21.7708,13.1875 20.9193,12.8516 20.2891,12.1797 C19.6589,11.5078 19.3438,10.599 19.3438,9.45312 C19.3438,8.29688 19.6615,7.38542 20.2969,6.71875 C20.9323,6.05208 21.8073,5.71875 22.9219,5.71875 C23.276,5.71875 23.625,5.75521 23.9688,5.82812 C24.3125,5.90104 24.6458,6.01042 24.9688,6.15625 M33.0781,9.15625 L33.0781,9.71875 L27.7031,9.71875 C27.7552,10.5312 27.9974,11.1458 28.4297,11.5625 C28.862,11.9792 29.4635,12.1875 30.2344,12.1875 C30.6823,12.1875 31.1172,12.1328 31.5391,12.0234 C31.9609,11.9141 32.3802,11.75 32.7969,11.5312 L32.7969,12.6406 C32.3802,12.8177 31.9505,12.9531 31.5078,13.0469 C31.0651,13.1406 30.6198,13.1875 30.1719,13.1875 C29.0365,13.1875 28.138,12.8568 27.4766,12.1953 C26.8151,11.5339 26.4844,10.6406 26.4844,9.51562 C26.4844,8.34896 26.7995,7.42448 27.4297,6.74219 C28.0599,6.0599 28.9062,5.71875 29.9688,5.71875 C30.9271,5.71875 31.6849,6.02604 32.2422,6.64062 C32.7995,7.25521 33.0781,8.09375 33.0781,9.15625 M31.9062,8.8125 C31.8958,8.17708 31.7161,7.66667 31.3672,7.28125 C31.0182,6.89583 30.5573,6.70312 29.9844,6.70312 C29.3281,6.70312 28.8047,6.88802 28.4141,7.25781 C28.0234,7.6276 27.7969,8.14583 27.7344,8.8125 L31.9062,8.8125"/>
</g>

<g fill="none" stroke="#000000" stroke-opacity="1" stroke-width="1" stroke-linecap="square" stroke-linejoin="bevel" transform="matrix(0.986842,0,0,0.986842,2.17105,6.11842)"
font-family="Oxygen-Sans Sans-Book" font-size="10" font-weight="400" font-style="normal" 
>
</g>

<g fill="none" stroke="#000000" stroke-opacity="1" stroke-width="1" stroke-linecap="square" stroke-linejoin="bevel" transform="matrix(0.986842,0,0,0.986842,2.17105,6.11842)"
font-family="Oxygen-Sans Sans-Book" font-size="10" font-weight="400" font-style="normal" 
>
</g>

<g fill="none" stroke="#000000" stroke-opacity="1" stroke-width="1" stroke-linecap="square" stroke-linejoin="bevel" transform="matrix(1,0,0,1,0,0)"
font-family="Oxygen-Sans Sans-Book" font-size="10" font-weight="400" font-style="normal" 
>
</g>
</g>
</svg>
