<?xml version="1.0" encoding="UTF-8" standalone="no"?>
<svg width="10.5833mm" height="10.5833mm"
 viewBox="0 0 30 30"
 xmlns="http://www.w3.org/2000/svg" xmlns:xlink="http://www.w3.org/1999/xlink"  version="1.2" baseProfile="tiny">
<title>Subcircuit</title>
<desc>subcircuit</desc>
<defs>
</defs>
<g fill="none" stroke="black" stroke-width="1" fill-rule="evenodd" stroke-linecap="square" stroke-linejoin="bevel" >

<g fill="none" stroke="#000000" stroke-opacity="1" stroke-width="1" stroke-linecap="square" stroke-linejoin="bevel" transform="matrix(1,0,0,1,0,0)"
font-family="Oxygen-Sans Sans-Book" font-size="10" font-weight="400" font-style="normal" 
>
</g>

<g fill="none" stroke="#000000" stroke-opacity="1" stroke-width="1" stroke-linecap="square" stroke-linejoin="bevel" transform="matrix(1,0,0,1,0,0)"
font-family="Oxygen-Sans Sans-Book" font-size="10" font-weight="400" font-style="normal" 
>
</g>

<g fill="none" stroke="#000000" stroke-opacity="1" stroke-width="1" stroke-linecap="square" stroke-linejoin="bevel" transform="matrix(0.986842,0,0,0.986842,15,15)"
font-family="Oxygen-Sans Sans-Book" font-size="10" font-weight="400" font-style="normal" 
>
</g>

<g fill="none" stroke="#000000" stroke-opacity="1" stroke-width="1" stroke-linecap="square" stroke-linejoin="bevel" transform="matrix(0.986842,0,0,0.986842,15,15)"
font-family="Oxygen-Sans Sans-Book" font-size="10" font-weight="400" font-style="normal" 
>
</g>

<g fill="none" stroke="#000000" stroke-opacity="1" stroke-width="1" stroke-linecap="square" stroke-linejoin="bevel" transform="matrix(0.986842,0,0,0.986842,15,15)"
font-family="Oxygen-Sans Sans-Book" font-size="10" font-weight="400" font-style="normal" 
>
</g>

<g fill="none" stroke="#000080" stroke-opacity="1" stroke-width="0.4" stroke-linecap="round" stroke-linejoin="round" transform="matrix(0.986842,0,0,0.986842,15,15)"
font-family="Oxygen-Sans Sans-Book" font-size="10" font-weight="400" font-style="normal" 
>
<polyline fill="none" vector-effect="none" points="-15,-15 15,-15 " />
</g>

<g fill="none" stroke="#000000" stroke-opacity="1" stroke-width="1" stroke-linecap="square" stroke-linejoin="bevel" transform="matrix(0.986842,0,0,0.986842,15,15)"
font-family="Oxygen-Sans Sans-Book" font-size="10" font-weight="400" font-style="normal" 
>
</g>

<g fill="none" stroke="#000000" stroke-opacity="1" stroke-width="1" stroke-linecap="square" stroke-linejoin="bevel" transform="matrix(0.986842,0,0,0.986842,15,15)"
font-family="Oxygen-Sans Sans-Book" font-size="10" font-weight="400" font-style="normal" 
>
</g>

<g fill="none" stroke="#000080" stroke-opacity="1" stroke-width="0.4" stroke-linecap="round" stroke-linejoin="round" transform="matrix(0.986842,0,0,0.986842,15,15)"
font-family="Oxygen-Sans Sans-Book" font-size="10" font-weight="400" font-style="normal" 
>
<polyline fill="none" vector-effect="none" points="15,-15 15,15 " />
</g>

<g fill="none" stroke="#000000" stroke-opacity="1" stroke-width="1" stroke-linecap="square" stroke-linejoin="bevel" transform="matrix(0.986842,0,0,0.986842,15,15)"
font-family="Oxygen-Sans Sans-Book" font-size="10" font-weight="400" font-style="normal" 
>
</g>

<g fill="none" stroke="#000000" stroke-opacity="1" stroke-width="1" stroke-linecap="square" stroke-linejoin="bevel" transform="matrix(0.986842,0,0,0.986842,15,15)"
font-family="Oxygen-Sans Sans-Book" font-size="10" font-weight="400" font-style="normal" 
>
</g>

<g fill="none" stroke="#000080" stroke-opacity="1" stroke-width="0.4" stroke-linecap="round" stroke-linejoin="round" transform="matrix(0.986842,0,0,0.986842,15,15)"
font-family="Oxygen-Sans Sans-Book" font-size="10" font-weight="400" font-style="normal" 
>
<polyline fill="none" vector-effect="none" points="-15,15 15,15 " />
</g>

<g fill="none" stroke="#000000" stroke-opacity="1" stroke-width="1" stroke-linecap="square" stroke-linejoin="bevel" transform="matrix(0.986842,0,0,0.986842,15,15)"
font-family="Oxygen-Sans Sans-Book" font-size="10" font-weight="400" font-style="normal" 
>
</g>

<g fill="none" stroke="#000000" stroke-opacity="1" stroke-width="1" stroke-linecap="square" stroke-linejoin="bevel" transform="matrix(0.986842,0,0,0.986842,15,15)"
font-family="Oxygen-Sans Sans-Book" font-size="10" font-weight="400" font-style="normal" 
>
</g>

<g fill="none" stroke="#000080" stroke-opacity="1" stroke-width="0.4" stroke-linecap="round" stroke-linejoin="round" transform="matrix(0.986842,0,0,0.986842,15,15)"
font-family="Oxygen-Sans Sans-Book" font-size="10" font-weight="400" font-style="normal" 
>
<polyline fill="none" vector-effect="none" points="-15,-15 -15,15 " />
</g>

<g fill="none" stroke="#000000" stroke-opacity="1" stroke-width="1" stroke-linecap="square" stroke-linejoin="bevel" transform="matrix(0.986842,0,0,0.986842,15,15)"
font-family="Oxygen-Sans Sans-Book" font-size="10" font-weight="400" font-style="normal" 
>
</g>

<g fill="none" stroke="#000000" stroke-opacity="1" stroke-width="1" stroke-linecap="square" stroke-linejoin="bevel" transform="matrix(0.986842,0,0,0.986842,5.13158,9.07895)"
font-family="Oxygen-Sans Sans-Book" font-size="10" font-weight="400" font-style="normal" 
>
</g>

<g fill="none" stroke="#000000" stroke-opacity="1" stroke-width="1" stroke-linecap="square" stroke-linejoin="bevel" transform="matrix(0.986842,0,0,0.986842,5.13158,9.07895)"
font-family="Oxygen-Sans Sans-Book" font-size="10" font-weight="400" font-style="normal" 
>
</g>

<g fill="#000000" fill-opacity="1" stroke="#000000" stroke-opacity="1" stroke-width="1" stroke-linecap="round" stroke-linejoin="round" transform="matrix(0.986842,0,0,0.986842,5.13158,9.07895)"
font-family="Oxygen-Sans Sans-Book" font-size="10" font-weight="400" font-style="normal" 
>
<path vector-effect="non-scaling-stroke" fill-rule="nonzero" d="M5.75,6.09375 L5.75,7.20312 C5.42708,7.03646 5.08854,6.91146 4.73438,6.82812 C4.38021,6.74479 4.01042,6.70312 3.625,6.70312 C3.04167,6.70312 2.60677,6.79167 2.32031,6.96875 C2.03385,7.14583 1.89062,7.41146 1.89062,7.76562 C1.89062,8.03646 1.99219,8.2474 2.19531,8.39844 C2.39844,8.54948 2.81771,8.69792 3.45312,8.84375 L3.84375,8.9375 C4.67708,9.11458 5.26823,9.36458 5.61719,9.6875 C5.96615,10.0104 6.14062,10.4583 6.14062,11.0312 C6.14062,11.6979 5.88021,12.224 5.35938,12.6094 C4.83854,12.9948 4.11979,13.1875 3.20312,13.1875 C2.81771,13.1875 2.41927,13.151 2.00781,13.0781 C1.59635,13.0052 1.16146,12.8906 0.703125,12.7344 L0.703125,11.5312 C1.14062,11.7604 1.56771,11.9297 1.98438,12.0391 C2.40104,12.1484 2.8125,12.2031 3.21875,12.2031 C3.77083,12.2031 4.19531,12.1094 4.49219,11.9219 C4.78906,11.7344 4.9375,11.4688 4.9375,11.125 C4.9375,10.8125 4.83073,10.5703 4.61719,10.3984 C4.40365,10.2266 3.9375,10.0625 3.21875,9.90625 L2.8125,9.8125 C2.08333,9.65625 1.55729,9.42188 1.23438,9.10938 C0.911458,8.79688 0.75,8.36458 0.75,7.8125 C0.75,7.14583 0.986979,6.63021 1.46094,6.26562 C1.9349,5.90104 2.60938,5.71875 3.48438,5.71875 C3.91146,5.71875 4.31771,5.75 4.70312,5.8125 C5.08854,5.875 5.4375,5.96875 5.75,6.09375 M7.875,10.1875 L7.875,5.89062 L9.03125,5.89062 L9.03125,10.1562 C9.03125,10.8229 9.16406,11.3255 9.42969,11.6641 C9.69531,12.0026 10.0885,12.1719 10.6094,12.1719 C11.2448,12.1719 11.7448,11.9714 12.1094,11.5703 C12.474,11.1693 12.6562,10.6198 12.6562,9.92188 L12.6562,5.89062 L13.8281,5.89062 L13.8281,13 L12.6562,13 L12.6562,11.9062 C12.375,12.3438 12.0469,12.6667 11.6719,12.875 C11.2969,13.0833 10.8594,13.1875 10.3594,13.1875 C9.54688,13.1875 8.92969,12.9323 8.50781,12.4219 C8.08594,11.9115 7.875,11.1667 7.875,10.1875 M21.3281,9.45312 C21.3281,8.58854 21.151,7.91406 20.7969,7.42969 C20.4427,6.94531 19.9583,6.70312 19.3438,6.70312 C18.7292,6.70312 18.2448,6.94531 17.8906,7.42969 C17.5365,7.91406 17.3594,8.58854 17.3594,9.45312 C17.3594,10.3073 17.5365,10.9792 17.8906,11.4688 C18.2448,11.9583 18.7292,12.2031 19.3438,12.2031 C19.9583,12.2031 20.4427,11.9583 20.7969,11.4688 C21.151,10.9792 21.3281,10.3073 21.3281,9.45312 M17.3594,6.96875 C17.599,6.54167 17.9062,6.22656 18.2812,6.02344 C18.6562,5.82031 19.1042,5.71875 19.625,5.71875 C20.4896,5.71875 21.1927,6.0625 21.7344,6.75 C22.276,7.4375 22.5469,8.33854 22.5469,9.45312 C22.5469,10.5677 22.276,11.4688 21.7344,12.1562 C21.1927,12.8438 20.4896,13.1875 19.625,13.1875 C19.1042,13.1875 18.6562,13.0833 18.2812,12.875 C17.9062,12.6667 17.599,12.3542 17.3594,11.9375 L17.3594,13 L16.1875,13 L16.1875,3.125 L17.3594,3.125 L17.3594,6.96875"/>
</g>

<g fill="none" stroke="#000000" stroke-opacity="1" stroke-width="1" stroke-linecap="square" stroke-linejoin="bevel" transform="matrix(0.986842,0,0,0.986842,5.13158,9.07895)"
font-family="Oxygen-Sans Sans-Book" font-size="10" font-weight="400" font-style="normal" 
>
</g>

<g fill="none" stroke="#000000" stroke-opacity="1" stroke-width="1" stroke-linecap="square" stroke-linejoin="bevel" transform="matrix(0.986842,0,0,0.986842,5.13158,9.07895)"
font-family="Oxygen-Sans Sans-Book" font-size="10" font-weight="400" font-style="normal" 
>
</g>

<g fill="none" stroke="#000000" stroke-opacity="1" stroke-width="1" stroke-linecap="square" stroke-linejoin="bevel" transform="matrix(1,0,0,1,0,0)"
font-family="Oxygen-Sans Sans-Book" font-size="10" font-weight="400" font-style="normal" 
>
</g>
</g>
</svg>
