<?xml version="1.0" encoding="UTF-8" standalone="no"?>
<svg width="27.1639mm" height="24.6944mm"
 viewBox="0 0 77 70"
 xmlns="http://www.w3.org/2000/svg" xmlns:xlink="http://www.w3.org/1999/xlink"  version="1.2" baseProfile="tiny">
<title>OpAmp</title>
<desc>operational amplifier</desc>
<defs>
</defs>
<g fill="none" stroke="black" stroke-width="1" fill-rule="evenodd" stroke-linecap="square" stroke-linejoin="bevel" >

<g fill="none" stroke="#000000" stroke-opacity="1" stroke-width="1" stroke-linecap="square" stroke-linejoin="bevel" transform="matrix(1,0,0,1,0,0)"
font-family="Oxygen-Sans Sans-Book" font-size="10" font-weight="400" font-style="normal" 
>
</g>

<g fill="none" stroke="#000000" stroke-opacity="1" stroke-width="1" stroke-linecap="square" stroke-linejoin="bevel" transform="matrix(1,0,0,1,0,0)"
font-family="Oxygen-Sans Sans-Book" font-size="10" font-weight="400" font-style="normal" 
>
</g>

<g fill="none" stroke="#000000" stroke-opacity="1" stroke-width="1" stroke-linecap="square" stroke-linejoin="bevel" transform="matrix(0.993551,0,0,0.993551,33.2839,35)"
font-family="Oxygen-Sans Sans-Book" font-size="10" font-weight="400" font-style="normal" 
>
</g>

<g fill="none" stroke="#000000" stroke-opacity="1" stroke-width="1" stroke-linecap="square" stroke-linejoin="bevel" transform="matrix(0.993551,0,0,0.993551,33.2839,35)"
font-family="Oxygen-Sans Sans-Book" font-size="10" font-weight="400" font-style="normal" 
>
</g>

<g fill="none" stroke="#000000" stroke-opacity="1" stroke-width="1" stroke-linecap="square" stroke-linejoin="bevel" transform="matrix(0.993551,0,0,0.993551,33.2839,35)"
font-family="Oxygen-Sans Sans-Book" font-size="10" font-weight="400" font-style="normal" 
>
</g>

<g fill="none" stroke="#000080" stroke-opacity="1" stroke-width="0.4" stroke-linecap="round" stroke-linejoin="round" transform="matrix(0.993551,0,0,0.993551,33.2839,35)"
font-family="Oxygen-Sans Sans-Book" font-size="10" font-weight="400" font-style="normal" 
>
<polyline fill="none" vector-effect="none" points="-30,-20 -20,-20 " />
</g>

<g fill="none" stroke="#000000" stroke-opacity="1" stroke-width="1" stroke-linecap="square" stroke-linejoin="bevel" transform="matrix(0.993551,0,0,0.993551,33.2839,35)"
font-family="Oxygen-Sans Sans-Book" font-size="10" font-weight="400" font-style="normal" 
>
</g>

<g fill="none" stroke="#000000" stroke-opacity="1" stroke-width="1" stroke-linecap="square" stroke-linejoin="bevel" transform="matrix(0.993551,0,0,0.993551,33.2839,35)"
font-family="Oxygen-Sans Sans-Book" font-size="10" font-weight="400" font-style="normal" 
>
</g>

<g fill="none" stroke="#000080" stroke-opacity="1" stroke-width="0.4" stroke-linecap="round" stroke-linejoin="round" transform="matrix(0.993551,0,0,0.993551,33.2839,35)"
font-family="Oxygen-Sans Sans-Book" font-size="10" font-weight="400" font-style="normal" 
>
<polyline fill="none" vector-effect="none" points="-30,20 -20,20 " />
</g>

<g fill="none" stroke="#000000" stroke-opacity="1" stroke-width="1" stroke-linecap="square" stroke-linejoin="bevel" transform="matrix(0.993551,0,0,0.993551,33.2839,35)"
font-family="Oxygen-Sans Sans-Book" font-size="10" font-weight="400" font-style="normal" 
>
</g>

<g fill="none" stroke="#000000" stroke-opacity="1" stroke-width="1" stroke-linecap="square" stroke-linejoin="bevel" transform="matrix(0.993551,0,0,0.993551,33.2839,35)"
font-family="Oxygen-Sans Sans-Book" font-size="10" font-weight="400" font-style="normal" 
>
</g>

<g fill="none" stroke="#000080" stroke-opacity="1" stroke-width="0.4" stroke-linecap="round" stroke-linejoin="round" transform="matrix(0.993551,0,0,0.993551,33.2839,35)"
font-family="Oxygen-Sans Sans-Book" font-size="10" font-weight="400" font-style="normal" 
>
<polyline fill="none" vector-effect="none" points="30,0 40,0 " />
</g>

<g fill="none" stroke="#000000" stroke-opacity="1" stroke-width="1" stroke-linecap="square" stroke-linejoin="bevel" transform="matrix(0.993551,0,0,0.993551,33.2839,35)"
font-family="Oxygen-Sans Sans-Book" font-size="10" font-weight="400" font-style="normal" 
>
</g>

<g fill="none" stroke="#000000" stroke-opacity="1" stroke-width="1" stroke-linecap="square" stroke-linejoin="bevel" transform="matrix(0.993551,0,0,0.993551,33.2839,35)"
font-family="Oxygen-Sans Sans-Book" font-size="10" font-weight="400" font-style="normal" 
>
</g>

<g fill="none" stroke="#000080" stroke-opacity="1" stroke-width="0.4" stroke-linecap="round" stroke-linejoin="round" transform="matrix(0.993551,0,0,0.993551,33.2839,35)"
font-family="Oxygen-Sans Sans-Book" font-size="10" font-weight="400" font-style="normal" 
>
<polyline fill="none" vector-effect="none" points="-20,-35 -20,35 " />
</g>

<g fill="none" stroke="#000000" stroke-opacity="1" stroke-width="1" stroke-linecap="square" stroke-linejoin="bevel" transform="matrix(0.993551,0,0,0.993551,33.2839,35)"
font-family="Oxygen-Sans Sans-Book" font-size="10" font-weight="400" font-style="normal" 
>
</g>

<g fill="none" stroke="#000000" stroke-opacity="1" stroke-width="1" stroke-linecap="square" stroke-linejoin="bevel" transform="matrix(0.993551,0,0,0.993551,33.2839,35)"
font-family="Oxygen-Sans Sans-Book" font-size="10" font-weight="400" font-style="normal" 
>
</g>

<g fill="none" stroke="#000080" stroke-opacity="1" stroke-width="0.4" stroke-linecap="round" stroke-linejoin="round" transform="matrix(0.993551,0,0,0.993551,33.2839,35)"
font-family="Oxygen-Sans Sans-Book" font-size="10" font-weight="400" font-style="normal" 
>
<polyline fill="none" vector-effect="none" points="-20,-35 30,0 " />
</g>

<g fill="none" stroke="#000000" stroke-opacity="1" stroke-width="1" stroke-linecap="square" stroke-linejoin="bevel" transform="matrix(0.993551,0,0,0.993551,33.2839,35)"
font-family="Oxygen-Sans Sans-Book" font-size="10" font-weight="400" font-style="normal" 
>
</g>

<g fill="none" stroke="#000000" stroke-opacity="1" stroke-width="1" stroke-linecap="square" stroke-linejoin="bevel" transform="matrix(0.993551,0,0,0.993551,33.2839,35)"
font-family="Oxygen-Sans Sans-Book" font-size="10" font-weight="400" font-style="normal" 
>
</g>

<g fill="none" stroke="#000080" stroke-opacity="1" stroke-width="0.4" stroke-linecap="round" stroke-linejoin="round" transform="matrix(0.993551,0,0,0.993551,33.2839,35)"
font-family="Oxygen-Sans Sans-Book" font-size="10" font-weight="400" font-style="normal" 
>
<polyline fill="none" vector-effect="none" points="-20,35 30,0 " />
</g>

<g fill="none" stroke="#000000" stroke-opacity="1" stroke-width="1" stroke-linecap="square" stroke-linejoin="bevel" transform="matrix(0.993551,0,0,0.993551,33.2839,35)"
font-family="Oxygen-Sans Sans-Book" font-size="10" font-weight="400" font-style="normal" 
>
</g>

<g fill="none" stroke="#000000" stroke-opacity="1" stroke-width="1" stroke-linecap="square" stroke-linejoin="bevel" transform="matrix(0.993551,0,0,0.993551,33.2839,35)"
font-family="Oxygen-Sans Sans-Book" font-size="10" font-weight="400" font-style="normal" 
>
</g>

<g fill="none" stroke="#000000" stroke-opacity="1" stroke-width="0.2" stroke-linecap="round" stroke-linejoin="round" transform="matrix(0.993551,0,0,0.993551,33.2839,35)"
font-family="Oxygen-Sans Sans-Book" font-size="10" font-weight="400" font-style="normal" 
>
<polyline fill="none" vector-effect="none" points="-16,19 -9,19 " />
</g>

<g fill="none" stroke="#000000" stroke-opacity="1" stroke-width="1" stroke-linecap="square" stroke-linejoin="bevel" transform="matrix(0.993551,0,0,0.993551,33.2839,35)"
font-family="Oxygen-Sans Sans-Book" font-size="10" font-weight="400" font-style="normal" 
>
</g>

<g fill="none" stroke="#000000" stroke-opacity="1" stroke-width="1" stroke-linecap="square" stroke-linejoin="bevel" transform="matrix(0.993551,0,0,0.993551,33.2839,35)"
font-family="Oxygen-Sans Sans-Book" font-size="10" font-weight="400" font-style="normal" 
>
</g>

<g fill="none" stroke="#ff0000" stroke-opacity="1" stroke-width="0.2" stroke-linecap="round" stroke-linejoin="round" transform="matrix(0.993551,0,0,0.993551,33.2839,35)"
font-family="Oxygen-Sans Sans-Book" font-size="10" font-weight="400" font-style="normal" 
>
<polyline fill="none" vector-effect="none" points="-16,-19 -9,-19 " />
</g>

<g fill="none" stroke="#000000" stroke-opacity="1" stroke-width="1" stroke-linecap="square" stroke-linejoin="bevel" transform="matrix(0.993551,0,0,0.993551,33.2839,35)"
font-family="Oxygen-Sans Sans-Book" font-size="10" font-weight="400" font-style="normal" 
>
</g>

<g fill="none" stroke="#000000" stroke-opacity="1" stroke-width="1" stroke-linecap="square" stroke-linejoin="bevel" transform="matrix(0.993551,0,0,0.993551,33.2839,35)"
font-family="Oxygen-Sans Sans-Book" font-size="10" font-weight="400" font-style="normal" 
>
</g>

<g fill="none" stroke="#ff0000" stroke-opacity="1" stroke-width="0.2" stroke-linecap="round" stroke-linejoin="round" transform="matrix(0.993551,0,0,0.993551,33.2839,35)"
font-family="Oxygen-Sans Sans-Book" font-size="10" font-weight="400" font-style="normal" 
>
<polyline fill="none" vector-effect="none" points="-13,-22 -13,-15 " />
</g>

<g fill="none" stroke="#000000" stroke-opacity="1" stroke-width="1" stroke-linecap="square" stroke-linejoin="bevel" transform="matrix(0.993551,0,0,0.993551,33.2839,35)"
font-family="Oxygen-Sans Sans-Book" font-size="10" font-weight="400" font-style="normal" 
>
</g>

<g fill="none" stroke="#000000" stroke-opacity="1" stroke-width="1" stroke-linecap="square" stroke-linejoin="bevel" transform="matrix(0.993551,0,0,0.993551,3.47743,54.871)"
font-family="Oxygen-Sans Sans-Book" font-size="10" font-weight="400" font-style="normal" 
>
</g>

<g fill="none" stroke="#ff0000" stroke-opacity="1" stroke-width="1" stroke-linecap="square" stroke-linejoin="bevel" transform="matrix(0.993551,0,0,0.993551,3.47743,54.871)"
font-family="Oxygen-Sans Sans-Book" font-size="10" font-weight="400" font-style="normal" 
>
<path vector-effect="non-scaling-stroke" fill-rule="evenodd" d="M3.5,0 C3.5,1.933 1.933,3.5 0,3.5 C-1.933,3.5 -3.5,1.933 -3.5,0 C-3.5,-1.933 -1.933,-3.5 0,-3.5 C1.933,-3.5 3.5,-1.933 3.5,0 "/>
</g>

<g fill="none" stroke="#000000" stroke-opacity="1" stroke-width="1" stroke-linecap="square" stroke-linejoin="bevel" transform="matrix(0.993551,0,0,0.993551,3.47743,54.871)"
font-family="Oxygen-Sans Sans-Book" font-size="10" font-weight="400" font-style="normal" 
>
</g>

<g fill="none" stroke="#000000" stroke-opacity="1" stroke-width="1" stroke-linecap="square" stroke-linejoin="bevel" transform="matrix(0.993551,0,0,0.993551,3.47743,15.129)"
font-family="Oxygen-Sans Sans-Book" font-size="10" font-weight="400" font-style="normal" 
>
</g>

<g fill="none" stroke="#ff0000" stroke-opacity="1" stroke-width="1" stroke-linecap="square" stroke-linejoin="bevel" transform="matrix(0.993551,0,0,0.993551,3.47743,15.129)"
font-family="Oxygen-Sans Sans-Book" font-size="10" font-weight="400" font-style="normal" 
>
<path vector-effect="non-scaling-stroke" fill-rule="evenodd" d="M3.5,0 C3.5,1.933 1.933,3.5 0,3.5 C-1.933,3.5 -3.5,1.933 -3.5,0 C-3.5,-1.933 -1.933,-3.5 0,-3.5 C1.933,-3.5 3.5,-1.933 3.5,0 "/>
</g>

<g fill="none" stroke="#000000" stroke-opacity="1" stroke-width="1" stroke-linecap="square" stroke-linejoin="bevel" transform="matrix(0.993551,0,0,0.993551,3.47743,15.129)"
font-family="Oxygen-Sans Sans-Book" font-size="10" font-weight="400" font-style="normal" 
>
</g>

<g fill="none" stroke="#000000" stroke-opacity="1" stroke-width="1" stroke-linecap="square" stroke-linejoin="bevel" transform="matrix(0.993551,0,0,0.993551,73.026,35)"
font-family="Oxygen-Sans Sans-Book" font-size="10" font-weight="400" font-style="normal" 
>
</g>

<g fill="none" stroke="#ff0000" stroke-opacity="1" stroke-width="1" stroke-linecap="square" stroke-linejoin="bevel" transform="matrix(0.993551,0,0,0.993551,73.026,35)"
font-family="Oxygen-Sans Sans-Book" font-size="10" font-weight="400" font-style="normal" 
>
<path vector-effect="non-scaling-stroke" fill-rule="evenodd" d="M3.5,0 C3.5,1.933 1.933,3.5 0,3.5 C-1.933,3.5 -3.5,1.933 -3.5,0 C-3.5,-1.933 -1.933,-3.5 0,-3.5 C1.933,-3.5 3.5,-1.933 3.5,0 "/>
</g>

<g fill="none" stroke="#000000" stroke-opacity="1" stroke-width="1" stroke-linecap="square" stroke-linejoin="bevel" transform="matrix(0.993551,0,0,0.993551,73.026,35)"
font-family="Oxygen-Sans Sans-Book" font-size="10" font-weight="400" font-style="normal" 
>
</g>

<g fill="none" stroke="#000000" stroke-opacity="1" stroke-width="1" stroke-linecap="square" stroke-linejoin="bevel" transform="matrix(1,0,0,1,0,0)"
font-family="Oxygen-Sans Sans-Book" font-size="10" font-weight="400" font-style="normal" 
>
</g>
</g>
</svg>
