<?xml version="1.0" encoding="UTF-8" standalone="no"?>
<svg width="23.6361mm" height="23.6361mm"
 viewBox="0 0 67 67"
 xmlns="http://www.w3.org/2000/svg" xmlns:xlink="http://www.w3.org/1999/xlink"  version="1.2" baseProfile="tiny">
<title>Transformer</title>
<desc>ideal transformer</desc>
<defs>
</defs>
<g fill="none" stroke="black" stroke-width="1" fill-rule="evenodd" stroke-linecap="square" stroke-linejoin="bevel" >

<g fill="none" stroke="#000000" stroke-opacity="1" stroke-width="1" stroke-linecap="square" stroke-linejoin="bevel" transform="matrix(1,0,0,1,0,0)"
font-family="Oxygen-Sans Sans-Book" font-size="10" font-weight="400" font-style="normal" 
>
</g>

<g fill="none" stroke="#000000" stroke-opacity="1" stroke-width="1" stroke-linecap="square" stroke-linejoin="bevel" transform="matrix(1,0,0,1,0,0)"
font-family="Oxygen-Sans Sans-Book" font-size="10" font-weight="400" font-style="normal" 
>
</g>

<g fill="none" stroke="#000000" stroke-opacity="1" stroke-width="1" stroke-linecap="square" stroke-linejoin="bevel" transform="matrix(1,0,0,1,33.5,33.5)"
font-family="Oxygen-Sans Sans-Book" font-size="10" font-weight="400" font-style="normal" 
>
</g>

<g fill="none" stroke="#000000" stroke-opacity="1" stroke-width="1" stroke-linecap="square" stroke-linejoin="bevel" transform="matrix(1,0,0,1,33.5,33.5)"
font-family="Oxygen-Sans Sans-Book" font-size="10" font-weight="400" font-style="normal" 
>
</g>

<g fill="none" stroke="#000000" stroke-opacity="1" stroke-width="1" stroke-linecap="square" stroke-linejoin="bevel" transform="matrix(1,0,0,1,33.5,33.5)"
font-family="Oxygen-Sans Sans-Book" font-size="10" font-weight="400" font-style="normal" 
>
</g>

<g fill="none" stroke="#000080" stroke-opacity="1" stroke-width="0.4" stroke-linecap="round" stroke-linejoin="round" transform="matrix(1,0,0,1,33.5,33.5)"
font-family="Oxygen-Sans Sans-Book" font-size="10" font-weight="400" font-style="normal" 
>
<polyline fill="none" vector-effect="none" points="-10,-18 -10,-30 " />
</g>

<g fill="none" stroke="#000000" stroke-opacity="1" stroke-width="1" stroke-linecap="square" stroke-linejoin="bevel" transform="matrix(1,0,0,1,33.5,33.5)"
font-family="Oxygen-Sans Sans-Book" font-size="10" font-weight="400" font-style="normal" 
>
</g>

<g fill="none" stroke="#000000" stroke-opacity="1" stroke-width="1" stroke-linecap="square" stroke-linejoin="bevel" transform="matrix(1,0,0,1,33.5,33.5)"
font-family="Oxygen-Sans Sans-Book" font-size="10" font-weight="400" font-style="normal" 
>
</g>

<g fill="none" stroke="#000080" stroke-opacity="1" stroke-width="0.4" stroke-linecap="round" stroke-linejoin="round" transform="matrix(1,0,0,1,33.5,33.5)"
font-family="Oxygen-Sans Sans-Book" font-size="10" font-weight="400" font-style="normal" 
>
<polyline fill="none" vector-effect="none" points="-10,-30 -30,-30 " />
</g>

<g fill="none" stroke="#000000" stroke-opacity="1" stroke-width="1" stroke-linecap="square" stroke-linejoin="bevel" transform="matrix(1,0,0,1,33.5,33.5)"
font-family="Oxygen-Sans Sans-Book" font-size="10" font-weight="400" font-style="normal" 
>
</g>

<g fill="none" stroke="#000000" stroke-opacity="1" stroke-width="1" stroke-linecap="square" stroke-linejoin="bevel" transform="matrix(1,0,0,1,33.5,33.5)"
font-family="Oxygen-Sans Sans-Book" font-size="10" font-weight="400" font-style="normal" 
>
</g>

<g fill="none" stroke="#000080" stroke-opacity="1" stroke-width="0.4" stroke-linecap="round" stroke-linejoin="round" transform="matrix(1,0,0,1,33.5,33.5)"
font-family="Oxygen-Sans Sans-Book" font-size="10" font-weight="400" font-style="normal" 
>
<polyline fill="none" vector-effect="none" points="10,-18 10,-30 " />
</g>

<g fill="none" stroke="#000000" stroke-opacity="1" stroke-width="1" stroke-linecap="square" stroke-linejoin="bevel" transform="matrix(1,0,0,1,33.5,33.5)"
font-family="Oxygen-Sans Sans-Book" font-size="10" font-weight="400" font-style="normal" 
>
</g>

<g fill="none" stroke="#000000" stroke-opacity="1" stroke-width="1" stroke-linecap="square" stroke-linejoin="bevel" transform="matrix(1,0,0,1,33.5,33.5)"
font-family="Oxygen-Sans Sans-Book" font-size="10" font-weight="400" font-style="normal" 
>
</g>

<g fill="none" stroke="#000080" stroke-opacity="1" stroke-width="0.4" stroke-linecap="round" stroke-linejoin="round" transform="matrix(1,0,0,1,33.5,33.5)"
font-family="Oxygen-Sans Sans-Book" font-size="10" font-weight="400" font-style="normal" 
>
<polyline fill="none" vector-effect="none" points="10,-30 30,-30 " />
</g>

<g fill="none" stroke="#000000" stroke-opacity="1" stroke-width="1" stroke-linecap="square" stroke-linejoin="bevel" transform="matrix(1,0,0,1,33.5,33.5)"
font-family="Oxygen-Sans Sans-Book" font-size="10" font-weight="400" font-style="normal" 
>
</g>

<g fill="none" stroke="#000000" stroke-opacity="1" stroke-width="1" stroke-linecap="square" stroke-linejoin="bevel" transform="matrix(1,0,0,1,33.5,33.5)"
font-family="Oxygen-Sans Sans-Book" font-size="10" font-weight="400" font-style="normal" 
>
</g>

<g fill="none" stroke="#000080" stroke-opacity="1" stroke-width="0.4" stroke-linecap="round" stroke-linejoin="round" transform="matrix(1,0,0,1,33.5,33.5)"
font-family="Oxygen-Sans Sans-Book" font-size="10" font-weight="400" font-style="normal" 
>
<polyline fill="none" vector-effect="none" points="-10,18 -10,30 " />
</g>

<g fill="none" stroke="#000000" stroke-opacity="1" stroke-width="1" stroke-linecap="square" stroke-linejoin="bevel" transform="matrix(1,0,0,1,33.5,33.5)"
font-family="Oxygen-Sans Sans-Book" font-size="10" font-weight="400" font-style="normal" 
>
</g>

<g fill="none" stroke="#000000" stroke-opacity="1" stroke-width="1" stroke-linecap="square" stroke-linejoin="bevel" transform="matrix(1,0,0,1,33.5,33.5)"
font-family="Oxygen-Sans Sans-Book" font-size="10" font-weight="400" font-style="normal" 
>
</g>

<g fill="none" stroke="#000080" stroke-opacity="1" stroke-width="0.4" stroke-linecap="round" stroke-linejoin="round" transform="matrix(1,0,0,1,33.5,33.5)"
font-family="Oxygen-Sans Sans-Book" font-size="10" font-weight="400" font-style="normal" 
>
<polyline fill="none" vector-effect="none" points="-10,30 -30,30 " />
</g>

<g fill="none" stroke="#000000" stroke-opacity="1" stroke-width="1" stroke-linecap="square" stroke-linejoin="bevel" transform="matrix(1,0,0,1,33.5,33.5)"
font-family="Oxygen-Sans Sans-Book" font-size="10" font-weight="400" font-style="normal" 
>
</g>

<g fill="none" stroke="#000000" stroke-opacity="1" stroke-width="1" stroke-linecap="square" stroke-linejoin="bevel" transform="matrix(1,0,0,1,33.5,33.5)"
font-family="Oxygen-Sans Sans-Book" font-size="10" font-weight="400" font-style="normal" 
>
</g>

<g fill="none" stroke="#000080" stroke-opacity="1" stroke-width="0.4" stroke-linecap="round" stroke-linejoin="round" transform="matrix(1,0,0,1,33.5,33.5)"
font-family="Oxygen-Sans Sans-Book" font-size="10" font-weight="400" font-style="normal" 
>
<polyline fill="none" vector-effect="none" points="10,18 10,30 " />
</g>

<g fill="none" stroke="#000000" stroke-opacity="1" stroke-width="1" stroke-linecap="square" stroke-linejoin="bevel" transform="matrix(1,0,0,1,33.5,33.5)"
font-family="Oxygen-Sans Sans-Book" font-size="10" font-weight="400" font-style="normal" 
>
</g>

<g fill="none" stroke="#000000" stroke-opacity="1" stroke-width="1" stroke-linecap="square" stroke-linejoin="bevel" transform="matrix(1,0,0,1,33.5,33.5)"
font-family="Oxygen-Sans Sans-Book" font-size="10" font-weight="400" font-style="normal" 
>
</g>

<g fill="none" stroke="#000080" stroke-opacity="1" stroke-width="0.4" stroke-linecap="round" stroke-linejoin="round" transform="matrix(1,0,0,1,33.5,33.5)"
font-family="Oxygen-Sans Sans-Book" font-size="10" font-weight="400" font-style="normal" 
>
<polyline fill="none" vector-effect="none" points="10,30 30,30 " />
</g>

<g fill="none" stroke="#000000" stroke-opacity="1" stroke-width="1" stroke-linecap="square" stroke-linejoin="bevel" transform="matrix(1,0,0,1,33.5,33.5)"
font-family="Oxygen-Sans Sans-Book" font-size="10" font-weight="400" font-style="normal" 
>
</g>

<g fill="none" stroke="#000000" stroke-opacity="1" stroke-width="1" stroke-linecap="square" stroke-linejoin="bevel" transform="matrix(1,0,0,1,33.5,33.5)"
font-family="Oxygen-Sans Sans-Book" font-size="10" font-weight="400" font-style="normal" 
>
</g>

<g fill="none" stroke="#000080" stroke-opacity="1" stroke-width="0.2" stroke-linecap="round" stroke-linejoin="round" transform="matrix(1,0,0,1,33.5,33.5)"
font-family="Oxygen-Sans Sans-Book" font-size="10" font-weight="400" font-style="normal" 
>
<polyline fill="none" vector-effect="none" points="-1,-20 -1,20 " />
</g>

<g fill="none" stroke="#000000" stroke-opacity="1" stroke-width="1" stroke-linecap="square" stroke-linejoin="bevel" transform="matrix(1,0,0,1,33.5,33.5)"
font-family="Oxygen-Sans Sans-Book" font-size="10" font-weight="400" font-style="normal" 
>
</g>

<g fill="none" stroke="#000000" stroke-opacity="1" stroke-width="1" stroke-linecap="square" stroke-linejoin="bevel" transform="matrix(1,0,0,1,33.5,33.5)"
font-family="Oxygen-Sans Sans-Book" font-size="10" font-weight="400" font-style="normal" 
>
</g>

<g fill="none" stroke="#000080" stroke-opacity="1" stroke-width="0.2" stroke-linecap="round" stroke-linejoin="round" transform="matrix(1,0,0,1,33.5,33.5)"
font-family="Oxygen-Sans Sans-Book" font-size="10" font-weight="400" font-style="normal" 
>
<polyline fill="none" vector-effect="none" points="1,-20 1,20 " />
</g>

<g fill="none" stroke="#000000" stroke-opacity="1" stroke-width="1" stroke-linecap="square" stroke-linejoin="bevel" transform="matrix(1,0,0,1,33.5,33.5)"
font-family="Oxygen-Sans Sans-Book" font-size="10" font-weight="400" font-style="normal" 
>
</g>

<g fill="none" stroke="#000000" stroke-opacity="1" stroke-width="1" stroke-linecap="square" stroke-linejoin="bevel" transform="matrix(1,0,0,1,33.5,33.5)"
font-family="Oxygen-Sans Sans-Book" font-size="10" font-weight="400" font-style="normal" 
>
</g>

<g fill="none" stroke="#000080" stroke-opacity="1" stroke-width="0.4" stroke-linecap="round" stroke-linejoin="round" transform="matrix(1,0,0,1,33.5,33.5)"
font-family="Oxygen-Sans Sans-Book" font-size="10" font-weight="400" font-style="normal" 
>
<path vector-effect="none" fill-rule="evenodd" d="M-10,-6 C-6.68629,-6 -4,-8.68629 -4,-12 C-4,-15.3137 -6.68629,-18 -10,-18 "/>
</g>

<g fill="none" stroke="#000000" stroke-opacity="1" stroke-width="1" stroke-linecap="square" stroke-linejoin="bevel" transform="matrix(1,0,0,1,33.5,33.5)"
font-family="Oxygen-Sans Sans-Book" font-size="10" font-weight="400" font-style="normal" 
>
</g>

<g fill="none" stroke="#000000" stroke-opacity="1" stroke-width="1" stroke-linecap="square" stroke-linejoin="bevel" transform="matrix(1,0,0,1,33.5,33.5)"
font-family="Oxygen-Sans Sans-Book" font-size="10" font-weight="400" font-style="normal" 
>
</g>

<g fill="none" stroke="#000080" stroke-opacity="1" stroke-width="0.4" stroke-linecap="round" stroke-linejoin="round" transform="matrix(1,0,0,1,33.5,33.5)"
font-family="Oxygen-Sans Sans-Book" font-size="10" font-weight="400" font-style="normal" 
>
<path vector-effect="none" fill-rule="evenodd" d="M-10,6 C-6.68629,6 -4,3.31371 -4,0 C-4,-3.31371 -6.68629,-6 -10,-6 "/>
</g>

<g fill="none" stroke="#000000" stroke-opacity="1" stroke-width="1" stroke-linecap="square" stroke-linejoin="bevel" transform="matrix(1,0,0,1,33.5,33.5)"
font-family="Oxygen-Sans Sans-Book" font-size="10" font-weight="400" font-style="normal" 
>
</g>

<g fill="none" stroke="#000000" stroke-opacity="1" stroke-width="1" stroke-linecap="square" stroke-linejoin="bevel" transform="matrix(1,0,0,1,33.5,33.5)"
font-family="Oxygen-Sans Sans-Book" font-size="10" font-weight="400" font-style="normal" 
>
</g>

<g fill="none" stroke="#000080" stroke-opacity="1" stroke-width="0.4" stroke-linecap="round" stroke-linejoin="round" transform="matrix(1,0,0,1,33.5,33.5)"
font-family="Oxygen-Sans Sans-Book" font-size="10" font-weight="400" font-style="normal" 
>
<path vector-effect="none" fill-rule="evenodd" d="M-10,18 C-6.68629,18 -4,15.3137 -4,12 C-4,8.68629 -6.68629,6 -10,6 "/>
</g>

<g fill="none" stroke="#000000" stroke-opacity="1" stroke-width="1" stroke-linecap="square" stroke-linejoin="bevel" transform="matrix(1,0,0,1,33.5,33.5)"
font-family="Oxygen-Sans Sans-Book" font-size="10" font-weight="400" font-style="normal" 
>
</g>

<g fill="none" stroke="#000000" stroke-opacity="1" stroke-width="1" stroke-linecap="square" stroke-linejoin="bevel" transform="matrix(1,0,0,1,33.5,33.5)"
font-family="Oxygen-Sans Sans-Book" font-size="10" font-weight="400" font-style="normal" 
>
</g>

<g fill="none" stroke="#000080" stroke-opacity="1" stroke-width="0.4" stroke-linecap="round" stroke-linejoin="round" transform="matrix(1,0,0,1,33.5,33.5)"
font-family="Oxygen-Sans Sans-Book" font-size="10" font-weight="400" font-style="normal" 
>
<path vector-effect="none" fill-rule="evenodd" d="M10,-18 C6.68629,-18 4,-15.3137 4,-12 C4,-8.68629 6.68629,-6 10,-6 "/>
</g>

<g fill="none" stroke="#000000" stroke-opacity="1" stroke-width="1" stroke-linecap="square" stroke-linejoin="bevel" transform="matrix(1,0,0,1,33.5,33.5)"
font-family="Oxygen-Sans Sans-Book" font-size="10" font-weight="400" font-style="normal" 
>
</g>

<g fill="none" stroke="#000000" stroke-opacity="1" stroke-width="1" stroke-linecap="square" stroke-linejoin="bevel" transform="matrix(1,0,0,1,33.5,33.5)"
font-family="Oxygen-Sans Sans-Book" font-size="10" font-weight="400" font-style="normal" 
>
</g>

<g fill="none" stroke="#000080" stroke-opacity="1" stroke-width="0.4" stroke-linecap="round" stroke-linejoin="round" transform="matrix(1,0,0,1,33.5,33.5)"
font-family="Oxygen-Sans Sans-Book" font-size="10" font-weight="400" font-style="normal" 
>
<path vector-effect="none" fill-rule="evenodd" d="M10,-6 C6.68629,-6 4,-3.31371 4,0 C4,3.31371 6.68629,6 10,6 "/>
</g>

<g fill="none" stroke="#000000" stroke-opacity="1" stroke-width="1" stroke-linecap="square" stroke-linejoin="bevel" transform="matrix(1,0,0,1,33.5,33.5)"
font-family="Oxygen-Sans Sans-Book" font-size="10" font-weight="400" font-style="normal" 
>
</g>

<g fill="none" stroke="#000000" stroke-opacity="1" stroke-width="1" stroke-linecap="square" stroke-linejoin="bevel" transform="matrix(1,0,0,1,33.5,33.5)"
font-family="Oxygen-Sans Sans-Book" font-size="10" font-weight="400" font-style="normal" 
>
</g>

<g fill="none" stroke="#000080" stroke-opacity="1" stroke-width="0.4" stroke-linecap="round" stroke-linejoin="round" transform="matrix(1,0,0,1,33.5,33.5)"
font-family="Oxygen-Sans Sans-Book" font-size="10" font-weight="400" font-style="normal" 
>
<path vector-effect="none" fill-rule="evenodd" d="M10,6 C6.68629,6 4,8.68629 4,12 C4,15.3137 6.68629,18 10,18 "/>
</g>

<g fill="none" stroke="#000000" stroke-opacity="1" stroke-width="1" stroke-linecap="square" stroke-linejoin="bevel" transform="matrix(1,0,0,1,33.5,33.5)"
font-family="Oxygen-Sans Sans-Book" font-size="10" font-weight="400" font-style="normal" 
>
</g>

<g fill="none" stroke="#000000" stroke-opacity="1" stroke-width="1" stroke-linecap="square" stroke-linejoin="bevel" transform="matrix(1,0,0,1,33.5,33.5)"
font-family="Oxygen-Sans Sans-Book" font-size="10" font-weight="400" font-style="normal" 
>
</g>

<g fill="none" stroke="#000080" stroke-opacity="1" stroke-width="0.4" stroke-linecap="round" stroke-linejoin="round" transform="matrix(1,0,0,1,33.5,33.5)"
font-family="Oxygen-Sans Sans-Book" font-size="10" font-weight="400" font-style="normal" 
>
<path vector-effect="none" fill-rule="evenodd" d="M-16,-21.5 C-16,-22.8807 -17.1193,-24 -18.5,-24 C-19.8807,-24 -21,-22.8807 -21,-21.5 C-21,-20.1193 -19.8807,-19 -18.5,-19 C-17.1193,-19 -16,-20.1193 -16,-21.5 "/>
</g>

<g fill="none" stroke="#000000" stroke-opacity="1" stroke-width="1" stroke-linecap="square" stroke-linejoin="bevel" transform="matrix(1,0,0,1,33.5,33.5)"
font-family="Oxygen-Sans Sans-Book" font-size="10" font-weight="400" font-style="normal" 
>
</g>

<g fill="none" stroke="#000000" stroke-opacity="1" stroke-width="1" stroke-linecap="square" stroke-linejoin="bevel" transform="matrix(1,0,0,1,33.5,33.5)"
font-family="Oxygen-Sans Sans-Book" font-size="10" font-weight="400" font-style="normal" 
>
</g>

<g fill="none" stroke="#000080" stroke-opacity="1" stroke-width="0.4" stroke-linecap="round" stroke-linejoin="round" transform="matrix(1,0,0,1,33.5,33.5)"
font-family="Oxygen-Sans Sans-Book" font-size="10" font-weight="400" font-style="normal" 
>
<path vector-effect="none" fill-rule="evenodd" d="M20,-21.5 C20,-22.8807 18.8807,-24 17.5,-24 C16.1193,-24 15,-22.8807 15,-21.5 C15,-20.1193 16.1193,-19 17.5,-19 C18.8807,-19 20,-20.1193 20,-21.5 "/>
</g>

<g fill="none" stroke="#000000" stroke-opacity="1" stroke-width="1" stroke-linecap="square" stroke-linejoin="bevel" transform="matrix(1,0,0,1,33.5,33.5)"
font-family="Oxygen-Sans Sans-Book" font-size="10" font-weight="400" font-style="normal" 
>
</g>

<g fill="none" stroke="#000000" stroke-opacity="1" stroke-width="1" stroke-linecap="square" stroke-linejoin="bevel" transform="matrix(1,0,0,1,3.5,3.5)"
font-family="Oxygen-Sans Sans-Book" font-size="10" font-weight="400" font-style="normal" 
>
</g>

<g fill="none" stroke="#ff0000" stroke-opacity="1" stroke-width="1" stroke-linecap="square" stroke-linejoin="bevel" transform="matrix(1,0,0,1,3.5,3.5)"
font-family="Oxygen-Sans Sans-Book" font-size="10" font-weight="400" font-style="normal" 
>
<path vector-effect="non-scaling-stroke" fill-rule="evenodd" d="M3.5,0 C3.5,1.933 1.933,3.5 0,3.5 C-1.933,3.5 -3.5,1.933 -3.5,0 C-3.5,-1.933 -1.933,-3.5 0,-3.5 C1.933,-3.5 3.5,-1.933 3.5,0 "/>
</g>

<g fill="none" stroke="#000000" stroke-opacity="1" stroke-width="1" stroke-linecap="square" stroke-linejoin="bevel" transform="matrix(1,0,0,1,3.5,3.5)"
font-family="Oxygen-Sans Sans-Book" font-size="10" font-weight="400" font-style="normal" 
>
</g>

<g fill="none" stroke="#000000" stroke-opacity="1" stroke-width="1" stroke-linecap="square" stroke-linejoin="bevel" transform="matrix(1,0,0,1,63.5,3.5)"
font-family="Oxygen-Sans Sans-Book" font-size="10" font-weight="400" font-style="normal" 
>
</g>

<g fill="none" stroke="#ff0000" stroke-opacity="1" stroke-width="1" stroke-linecap="square" stroke-linejoin="bevel" transform="matrix(1,0,0,1,63.5,3.5)"
font-family="Oxygen-Sans Sans-Book" font-size="10" font-weight="400" font-style="normal" 
>
<path vector-effect="non-scaling-stroke" fill-rule="evenodd" d="M3.5,0 C3.5,1.933 1.933,3.5 0,3.5 C-1.933,3.5 -3.5,1.933 -3.5,0 C-3.5,-1.933 -1.933,-3.5 0,-3.5 C1.933,-3.5 3.5,-1.933 3.5,0 "/>
</g>

<g fill="none" stroke="#000000" stroke-opacity="1" stroke-width="1" stroke-linecap="square" stroke-linejoin="bevel" transform="matrix(1,0,0,1,63.5,3.5)"
font-family="Oxygen-Sans Sans-Book" font-size="10" font-weight="400" font-style="normal" 
>
</g>

<g fill="none" stroke="#000000" stroke-opacity="1" stroke-width="1" stroke-linecap="square" stroke-linejoin="bevel" transform="matrix(1,0,0,1,63.5,63.5)"
font-family="Oxygen-Sans Sans-Book" font-size="10" font-weight="400" font-style="normal" 
>
</g>

<g fill="none" stroke="#ff0000" stroke-opacity="1" stroke-width="1" stroke-linecap="square" stroke-linejoin="bevel" transform="matrix(1,0,0,1,63.5,63.5)"
font-family="Oxygen-Sans Sans-Book" font-size="10" font-weight="400" font-style="normal" 
>
<path vector-effect="non-scaling-stroke" fill-rule="evenodd" d="M3.5,0 C3.5,1.933 1.933,3.5 0,3.5 C-1.933,3.5 -3.5,1.933 -3.5,0 C-3.5,-1.933 -1.933,-3.5 0,-3.5 C1.933,-3.5 3.5,-1.933 3.5,0 "/>
</g>

<g fill="none" stroke="#000000" stroke-opacity="1" stroke-width="1" stroke-linecap="square" stroke-linejoin="bevel" transform="matrix(1,0,0,1,63.5,63.5)"
font-family="Oxygen-Sans Sans-Book" font-size="10" font-weight="400" font-style="normal" 
>
</g>

<g fill="none" stroke="#000000" stroke-opacity="1" stroke-width="1" stroke-linecap="square" stroke-linejoin="bevel" transform="matrix(1,0,0,1,3.5,63.5)"
font-family="Oxygen-Sans Sans-Book" font-size="10" font-weight="400" font-style="normal" 
>
</g>

<g fill="none" stroke="#ff0000" stroke-opacity="1" stroke-width="1" stroke-linecap="square" stroke-linejoin="bevel" transform="matrix(1,0,0,1,3.5,63.5)"
font-family="Oxygen-Sans Sans-Book" font-size="10" font-weight="400" font-style="normal" 
>
<path vector-effect="non-scaling-stroke" fill-rule="evenodd" d="M3.5,0 C3.5,1.933 1.933,3.5 0,3.5 C-1.933,3.5 -3.5,1.933 -3.5,0 C-3.5,-1.933 -1.933,-3.5 0,-3.5 C1.933,-3.5 3.5,-1.933 3.5,0 "/>
</g>

<g fill="none" stroke="#000000" stroke-opacity="1" stroke-width="1" stroke-linecap="square" stroke-linejoin="bevel" transform="matrix(1,0,0,1,3.5,63.5)"
font-family="Oxygen-Sans Sans-Book" font-size="10" font-weight="400" font-style="normal" 
>
</g>

<g fill="none" stroke="#000000" stroke-opacity="1" stroke-width="1" stroke-linecap="square" stroke-linejoin="bevel" transform="matrix(1,0,0,1,12.5,15.5)"
font-family="Oxygen-Sans Sans-Book" font-size="10" font-weight="400" font-style="normal" 
>
</g>

<g fill="none" stroke="#000000" stroke-opacity="1" stroke-width="1" stroke-linecap="square" stroke-linejoin="bevel" transform="matrix(1,0,0,1,12.5,15.5)"
font-family="Oxygen-Sans Sans-Book" font-size="10" font-weight="400" font-style="normal" 
>
</g>

<g fill="#000000" fill-opacity="1" stroke="#000000" stroke-opacity="1" stroke-width="1" stroke-linecap="round" stroke-linejoin="round" transform="matrix(1,0,0,1,12.5,15.5)"
font-family="Oxygen-Sans Sans-Book" font-size="10" font-weight="400" font-style="normal" 
>
<path vector-effect="non-scaling-stroke" fill-rule="nonzero" d="M-0.03125,3.51562 L7.98438,3.51562 L7.98438,4.60938 L4.60938,4.60938 L4.60938,13 L3.32812,13 L3.32812,4.60938 L-0.03125,4.60938 L-0.03125,3.51562"/>
</g>

<g fill="none" stroke="#000000" stroke-opacity="1" stroke-width="1" stroke-linecap="square" stroke-linejoin="bevel" transform="matrix(1,0,0,1,12.5,15.5)"
font-family="Oxygen-Sans Sans-Book" font-size="10" font-weight="400" font-style="normal" 
>
</g>

<g fill="none" stroke="#000000" stroke-opacity="1" stroke-width="1" stroke-linecap="square" stroke-linejoin="bevel" transform="matrix(1,0,0,1,12.5,15.5)"
font-family="Oxygen-Sans Sans-Book" font-size="10" font-weight="400" font-style="normal" 
>
</g>

<g fill="none" stroke="#000000" stroke-opacity="1" stroke-width="1" stroke-linecap="square" stroke-linejoin="bevel" transform="matrix(1,0,0,1,0,0)"
font-family="Oxygen-Sans Sans-Book" font-size="10" font-weight="400" font-style="normal" 
>
</g>
</g>
</svg>
