<?xml version="1.0" encoding="UTF-8" standalone="no"?>
<svg width="23.6361mm" height="12.7mm"
 viewBox="0 0 67 36"
 xmlns="http://www.w3.org/2000/svg" xmlns:xlink="http://www.w3.org/1999/xlink"  version="1.2" baseProfile="tiny">
<title>Equation Defined RF Device</title>
<desc>equation defined RF device</desc>
<defs>
</defs>
<g fill="none" stroke="black" stroke-width="1" fill-rule="evenodd" stroke-linecap="square" stroke-linejoin="bevel" >

<g fill="none" stroke="#000000" stroke-opacity="1" stroke-width="1" stroke-linecap="square" stroke-linejoin="bevel" transform="matrix(1,0,0,1,0,0)"
font-family="Oxygen-Sans Sans-Book" font-size="10" font-weight="400" font-style="normal" 
>
</g>

<g fill="none" stroke="#000000" stroke-opacity="1" stroke-width="1" stroke-linecap="square" stroke-linejoin="bevel" transform="matrix(1,0,0,1,0,0)"
font-family="Oxygen-Sans Sans-Book" font-size="10" font-weight="400" font-style="normal" 
>
</g>

<g fill="none" stroke="#000000" stroke-opacity="1" stroke-width="1" stroke-linecap="square" stroke-linejoin="bevel" transform="matrix(0.994475,0,0,0.994475,33.3149,20.884)"
font-family="Oxygen-Sans Sans-Book" font-size="10" font-weight="400" font-style="normal" 
>
</g>

<g fill="none" stroke="#000000" stroke-opacity="1" stroke-width="1" stroke-linecap="square" stroke-linejoin="bevel" transform="matrix(0.994475,0,0,0.994475,33.3149,20.884)"
font-family="Oxygen-Sans Sans-Book" font-size="10" font-weight="400" font-style="normal" 
>
</g>

<g fill="none" stroke="#000000" stroke-opacity="1" stroke-width="1" stroke-linecap="square" stroke-linejoin="bevel" transform="matrix(0.994475,0,0,0.994475,33.3149,20.884)"
font-family="Oxygen-Sans Sans-Book" font-size="10" font-weight="400" font-style="normal" 
>
</g>

<g fill="none" stroke="#000080" stroke-opacity="1" stroke-width="0.4" stroke-linecap="round" stroke-linejoin="round" transform="matrix(0.994475,0,0,0.994475,33.3149,20.884)"
font-family="Oxygen-Sans Sans-Book" font-size="10" font-weight="400" font-style="normal" 
>
<polyline fill="none" vector-effect="none" points="-17,-15 17,-15 " />
</g>

<g fill="none" stroke="#000000" stroke-opacity="1" stroke-width="1" stroke-linecap="square" stroke-linejoin="bevel" transform="matrix(0.994475,0,0,0.994475,33.3149,20.884)"
font-family="Oxygen-Sans Sans-Book" font-size="10" font-weight="400" font-style="normal" 
>
</g>

<g fill="none" stroke="#000000" stroke-opacity="1" stroke-width="1" stroke-linecap="square" stroke-linejoin="bevel" transform="matrix(0.994475,0,0,0.994475,33.3149,20.884)"
font-family="Oxygen-Sans Sans-Book" font-size="10" font-weight="400" font-style="normal" 
>
</g>

<g fill="none" stroke="#000080" stroke-opacity="1" stroke-width="0.4" stroke-linecap="round" stroke-linejoin="round" transform="matrix(0.994475,0,0,0.994475,33.3149,20.884)"
font-family="Oxygen-Sans Sans-Book" font-size="10" font-weight="400" font-style="normal" 
>
<polyline fill="none" vector-effect="none" points="17,-15 17,15 " />
</g>

<g fill="none" stroke="#000000" stroke-opacity="1" stroke-width="1" stroke-linecap="square" stroke-linejoin="bevel" transform="matrix(0.994475,0,0,0.994475,33.3149,20.884)"
font-family="Oxygen-Sans Sans-Book" font-size="10" font-weight="400" font-style="normal" 
>
</g>

<g fill="none" stroke="#000000" stroke-opacity="1" stroke-width="1" stroke-linecap="square" stroke-linejoin="bevel" transform="matrix(0.994475,0,0,0.994475,33.3149,20.884)"
font-family="Oxygen-Sans Sans-Book" font-size="10" font-weight="400" font-style="normal" 
>
</g>

<g fill="none" stroke="#000080" stroke-opacity="1" stroke-width="0.4" stroke-linecap="round" stroke-linejoin="round" transform="matrix(0.994475,0,0,0.994475,33.3149,20.884)"
font-family="Oxygen-Sans Sans-Book" font-size="10" font-weight="400" font-style="normal" 
>
<polyline fill="none" vector-effect="none" points="-17,15 17,15 " />
</g>

<g fill="none" stroke="#000000" stroke-opacity="1" stroke-width="1" stroke-linecap="square" stroke-linejoin="bevel" transform="matrix(0.994475,0,0,0.994475,33.3149,20.884)"
font-family="Oxygen-Sans Sans-Book" font-size="10" font-weight="400" font-style="normal" 
>
</g>

<g fill="none" stroke="#000000" stroke-opacity="1" stroke-width="1" stroke-linecap="square" stroke-linejoin="bevel" transform="matrix(0.994475,0,0,0.994475,33.3149,20.884)"
font-family="Oxygen-Sans Sans-Book" font-size="10" font-weight="400" font-style="normal" 
>
</g>

<g fill="none" stroke="#000080" stroke-opacity="1" stroke-width="0.4" stroke-linecap="round" stroke-linejoin="round" transform="matrix(0.994475,0,0,0.994475,33.3149,20.884)"
font-family="Oxygen-Sans Sans-Book" font-size="10" font-weight="400" font-style="normal" 
>
<polyline fill="none" vector-effect="none" points="-17,-15 -17,15 " />
</g>

<g fill="none" stroke="#000000" stroke-opacity="1" stroke-width="1" stroke-linecap="square" stroke-linejoin="bevel" transform="matrix(0.994475,0,0,0.994475,33.3149,20.884)"
font-family="Oxygen-Sans Sans-Book" font-size="10" font-weight="400" font-style="normal" 
>
</g>

<g fill="none" stroke="#000000" stroke-opacity="1" stroke-width="1" stroke-linecap="square" stroke-linejoin="bevel" transform="matrix(0.994475,0,0,0.994475,33.3149,20.884)"
font-family="Oxygen-Sans Sans-Book" font-size="10" font-weight="400" font-style="normal" 
>
</g>

<g fill="none" stroke="#000080" stroke-opacity="1" stroke-width="0.4" stroke-linecap="round" stroke-linejoin="round" transform="matrix(0.994475,0,0,0.994475,33.3149,20.884)"
font-family="Oxygen-Sans Sans-Book" font-size="10" font-weight="400" font-style="normal" 
>
<polyline fill="none" vector-effect="none" points="-30,0 -17,0 " />
</g>

<g fill="none" stroke="#000000" stroke-opacity="1" stroke-width="1" stroke-linecap="square" stroke-linejoin="bevel" transform="matrix(0.994475,0,0,0.994475,33.3149,20.884)"
font-family="Oxygen-Sans Sans-Book" font-size="10" font-weight="400" font-style="normal" 
>
</g>

<g fill="none" stroke="#000000" stroke-opacity="1" stroke-width="1" stroke-linecap="square" stroke-linejoin="bevel" transform="matrix(0.994475,0,0,0.994475,33.3149,20.884)"
font-family="Oxygen-Sans Sans-Book" font-size="10" font-weight="400" font-style="normal" 
>
</g>

<g fill="none" stroke="#000080" stroke-opacity="1" stroke-width="0.4" stroke-linecap="round" stroke-linejoin="round" transform="matrix(0.994475,0,0,0.994475,33.3149,20.884)"
font-family="Oxygen-Sans Sans-Book" font-size="10" font-weight="400" font-style="normal" 
>
<polyline fill="none" vector-effect="none" points="17,0 30,0 " />
</g>

<g fill="none" stroke="#000000" stroke-opacity="1" stroke-width="1" stroke-linecap="square" stroke-linejoin="bevel" transform="matrix(0.994475,0,0,0.994475,33.3149,20.884)"
font-family="Oxygen-Sans Sans-Book" font-size="10" font-weight="400" font-style="normal" 
>
</g>

<g fill="none" stroke="#000000" stroke-opacity="1" stroke-width="1" stroke-linecap="square" stroke-linejoin="bevel" transform="matrix(0.994475,0,0,0.994475,3.48066,20.884)"
font-family="Oxygen-Sans Sans-Book" font-size="10" font-weight="400" font-style="normal" 
>
</g>

<g fill="none" stroke="#ff0000" stroke-opacity="1" stroke-width="1" stroke-linecap="square" stroke-linejoin="bevel" transform="matrix(0.994475,0,0,0.994475,3.48066,20.884)"
font-family="Oxygen-Sans Sans-Book" font-size="10" font-weight="400" font-style="normal" 
>
<path vector-effect="non-scaling-stroke" fill-rule="evenodd" d="M3.5,0 C3.5,1.933 1.933,3.5 0,3.5 C-1.933,3.5 -3.5,1.933 -3.5,0 C-3.5,-1.933 -1.933,-3.5 0,-3.5 C1.933,-3.5 3.5,-1.933 3.5,0 "/>
</g>

<g fill="none" stroke="#000000" stroke-opacity="1" stroke-width="1" stroke-linecap="square" stroke-linejoin="bevel" transform="matrix(0.994475,0,0,0.994475,3.48066,20.884)"
font-family="Oxygen-Sans Sans-Book" font-size="10" font-weight="400" font-style="normal" 
>
</g>

<g fill="none" stroke="#000000" stroke-opacity="1" stroke-width="1" stroke-linecap="square" stroke-linejoin="bevel" transform="matrix(0.994475,0,0,0.994475,63.1492,20.884)"
font-family="Oxygen-Sans Sans-Book" font-size="10" font-weight="400" font-style="normal" 
>
</g>

<g fill="none" stroke="#ff0000" stroke-opacity="1" stroke-width="1" stroke-linecap="square" stroke-linejoin="bevel" transform="matrix(0.994475,0,0,0.994475,63.1492,20.884)"
font-family="Oxygen-Sans Sans-Book" font-size="10" font-weight="400" font-style="normal" 
>
<path vector-effect="non-scaling-stroke" fill-rule="evenodd" d="M3.5,0 C3.5,1.933 1.933,3.5 0,3.5 C-1.933,3.5 -3.5,1.933 -3.5,0 C-3.5,-1.933 -1.933,-3.5 0,-3.5 C1.933,-3.5 3.5,-1.933 3.5,0 "/>
</g>

<g fill="none" stroke="#000000" stroke-opacity="1" stroke-width="1" stroke-linecap="square" stroke-linejoin="bevel" transform="matrix(0.994475,0,0,0.994475,63.1492,20.884)"
font-family="Oxygen-Sans Sans-Book" font-size="10" font-weight="400" font-style="normal" 
>
</g>

<g fill="none" stroke="#000000" stroke-opacity="1" stroke-width="1" stroke-linecap="square" stroke-linejoin="bevel" transform="matrix(0.994475,0,0,0.994475,25.3591,11.9337)"
font-family="Oxygen-Sans Sans-Book" font-size="10" font-weight="400" font-style="normal" 
>
</g>

<g fill="none" stroke="#000000" stroke-opacity="1" stroke-width="1" stroke-linecap="square" stroke-linejoin="bevel" transform="matrix(0.994475,0,0,0.994475,25.3591,11.9337)"
font-family="Oxygen-Sans Sans-Book" font-size="10" font-weight="400" font-style="normal" 
>
</g>

<g fill="#000000" fill-opacity="1" stroke="#000000" stroke-opacity="1" stroke-width="1" stroke-linecap="round" stroke-linejoin="round" transform="matrix(0.994475,0,0,0.994475,25.3591,11.9337)"
font-family="Oxygen-Sans Sans-Book" font-size="10" font-weight="400" font-style="normal" 
>
<path vector-effect="non-scaling-stroke" fill-rule="nonzero" d="M5.76562,8.5625 C6.04688,8.65625 6.31771,8.85417 6.57812,9.15625 C6.83854,9.45833 7.09896,9.875 7.35938,10.4062 L8.65625,13 L7.28125,13 L6.0625,10.5625 C5.75,9.92708 5.44792,9.50781 5.15625,9.30469 C4.86458,9.10156 4.46354,9 3.95312,9 L2.5625,9 L2.5625,13 L1.28125,13 L1.28125,3.51562 L4.17188,3.51562 C5.25521,3.51562 6.0625,3.74219 6.59375,4.19531 C7.125,4.64844 7.39062,5.33333 7.39062,6.25 C7.39062,6.84375 7.2526,7.33854 6.97656,7.73438 C6.70052,8.13021 6.29688,8.40625 5.76562,8.5625 M2.5625,4.57812 L2.5625,7.9375 L4.17188,7.9375 C4.78646,7.9375 5.2526,7.79427 5.57031,7.50781 C5.88802,7.22135 6.04688,6.80208 6.04688,6.25 C6.04688,5.69792 5.88802,5.28125 5.57031,5 C5.2526,4.71875 4.78646,4.57812 4.17188,4.57812 L2.5625,4.57812 M10.3125,3.51562 L15.75,3.51562 L15.75,4.60938 L11.5938,4.60938 L11.5938,7.39062 L15.3438,7.39062 L15.3438,8.46875 L11.5938,8.46875 L11.5938,13 L10.3125,13 L10.3125,3.51562"/>
</g>

<g fill="none" stroke="#000000" stroke-opacity="1" stroke-width="1" stroke-linecap="square" stroke-linejoin="bevel" transform="matrix(0.994475,0,0,0.994475,25.3591,11.9337)"
font-family="Oxygen-Sans Sans-Book" font-size="10" font-weight="400" font-style="normal" 
>
</g>

<g fill="none" stroke="#000000" stroke-opacity="1" stroke-width="1" stroke-linecap="square" stroke-linejoin="bevel" transform="matrix(0.994475,0,0,0.994475,25.3591,11.9337)"
font-family="Oxygen-Sans Sans-Book" font-size="10" font-weight="400" font-style="normal" 
>
</g>

<g fill="none" stroke="#000000" stroke-opacity="1" stroke-width="1" stroke-linecap="square" stroke-linejoin="bevel" transform="matrix(0.994475,0,0,0.994475,1.49171,0)"
font-family="Oxygen-Sans Sans-Book" font-size="10" font-weight="400" font-style="normal" 
>
</g>

<g fill="none" stroke="#000000" stroke-opacity="1" stroke-width="1" stroke-linecap="square" stroke-linejoin="bevel" transform="matrix(0.994475,0,0,0.994475,1.49171,0)"
font-family="Oxygen-Sans Sans-Book" font-size="10" font-weight="400" font-style="normal" 
>
</g>

<g fill="#000000" fill-opacity="1" stroke="#000000" stroke-opacity="1" stroke-width="1" stroke-linecap="round" stroke-linejoin="round" transform="matrix(0.994475,0,0,0.994475,1.49171,0)"
font-family="Oxygen-Sans Sans-Book" font-size="10" font-weight="400" font-style="normal" 
>
<path vector-effect="non-scaling-stroke" fill-rule="nonzero" d="M1.60938,11.9219 L3.70312,11.9219 L3.70312,4.6875 L1.42188,5.14062 L1.42188,3.98438 L3.6875,3.51562 L4.98438,3.51562 L4.98438,11.9219 L7.07812,11.9219 L7.07812,13 L1.60938,13 L1.60938,11.9219"/>
</g>

<g fill="none" stroke="#000000" stroke-opacity="1" stroke-width="1" stroke-linecap="square" stroke-linejoin="bevel" transform="matrix(0.994475,0,0,0.994475,1.49171,0)"
font-family="Oxygen-Sans Sans-Book" font-size="10" font-weight="400" font-style="normal" 
>
</g>

<g fill="none" stroke="#000000" stroke-opacity="1" stroke-width="1" stroke-linecap="square" stroke-linejoin="bevel" transform="matrix(0.994475,0,0,0.994475,1.49171,0)"
font-family="Oxygen-Sans Sans-Book" font-size="10" font-weight="400" font-style="normal" 
>
</g>

<g fill="none" stroke="#000000" stroke-opacity="1" stroke-width="1" stroke-linecap="square" stroke-linejoin="bevel" transform="matrix(0.994475,0,0,0.994475,58.1768,0)"
font-family="Oxygen-Sans Sans-Book" font-size="10" font-weight="400" font-style="normal" 
>
</g>

<g fill="none" stroke="#000000" stroke-opacity="1" stroke-width="1" stroke-linecap="square" stroke-linejoin="bevel" transform="matrix(0.994475,0,0,0.994475,58.1768,0)"
font-family="Oxygen-Sans Sans-Book" font-size="10" font-weight="400" font-style="normal" 
>
</g>

<g fill="#000000" fill-opacity="1" stroke="#000000" stroke-opacity="1" stroke-width="1" stroke-linecap="round" stroke-linejoin="round" transform="matrix(0.994475,0,0,0.994475,58.1768,0)"
font-family="Oxygen-Sans Sans-Book" font-size="10" font-weight="400" font-style="normal" 
>
<path vector-effect="non-scaling-stroke" fill-rule="nonzero" d="M2.5,11.9219 L6.96875,11.9219 L6.96875,13 L0.953125,13 L0.953125,11.9219 C1.44271,11.4219 2.10677,10.7474 2.94531,9.89844 C3.78385,9.04948 4.3125,8.5 4.53125,8.25 C4.9375,7.79167 5.22135,7.40104 5.38281,7.07812 C5.54427,6.75521 5.625,6.44271 5.625,6.14062 C5.625,5.63021 5.45052,5.21875 5.10156,4.90625 C4.7526,4.59375 4.29167,4.4375 3.71875,4.4375 C3.3125,4.4375 2.88802,4.50521 2.44531,4.64062 C2.0026,4.77604 1.52604,4.98958 1.01562,5.28125 L1.01562,3.98438 C1.53646,3.77604 2.02083,3.61719 2.46875,3.50781 C2.91667,3.39844 3.32292,3.34375 3.6875,3.34375 C4.67708,3.34375 5.46354,3.59115 6.04688,4.08594 C6.63021,4.58073 6.92188,5.23958 6.92188,6.0625 C6.92188,6.44792 6.84896,6.8151 6.70312,7.16406 C6.55729,7.51302 6.29167,7.92188 5.90625,8.39062 C5.80208,8.51562 5.46615,8.8724 4.89844,9.46094 C4.33073,10.0495 3.53125,10.8698 2.5,11.9219 "/>
</g>

<g fill="none" stroke="#000000" stroke-opacity="1" stroke-width="1" stroke-linecap="square" stroke-linejoin="bevel" transform="matrix(0.994475,0,0,0.994475,58.1768,0)"
font-family="Oxygen-Sans Sans-Book" font-size="10" font-weight="400" font-style="normal" 
>
</g>

<g fill="none" stroke="#000000" stroke-opacity="1" stroke-width="1" stroke-linecap="square" stroke-linejoin="bevel" transform="matrix(0.994475,0,0,0.994475,58.1768,0)"
font-family="Oxygen-Sans Sans-Book" font-size="10" font-weight="400" font-style="normal" 
>
</g>

<g fill="none" stroke="#000000" stroke-opacity="1" stroke-width="1" stroke-linecap="square" stroke-linejoin="bevel" transform="matrix(1,0,0,1,0,0)"
font-family="Oxygen-Sans Sans-Book" font-size="10" font-weight="400" font-style="normal" 
>
</g>
</g>
</svg>
