<?xml version="1.0" encoding="UTF-8" standalone="no"?>
<svg width="37.7472mm" height="38.8056mm"
 viewBox="0 0 107 110"
 xmlns="http://www.w3.org/2000/svg" xmlns:xlink="http://www.w3.org/1999/xlink"  version="1.2" baseProfile="tiny">
<title>2to1 Mux</title>
<desc>2to1 multiplexer verilog device</desc>
<defs>
</defs>
<g fill="none" stroke="black" stroke-width="1" fill-rule="evenodd" stroke-linecap="square" stroke-linejoin="bevel" >

<g fill="none" stroke="#000000" stroke-opacity="1" stroke-width="1" stroke-linecap="square" stroke-linejoin="bevel" transform="matrix(1,0,0,1,0,0)"
font-family="Oxygen-Sans Sans-Book" font-size="10" font-weight="400" font-style="normal" 
>
</g>

<g fill="none" stroke="#000000" stroke-opacity="1" stroke-width="1" stroke-linecap="square" stroke-linejoin="bevel" transform="matrix(1,0,0,1,0,0)"
font-family="Oxygen-Sans Sans-Book" font-size="10" font-weight="400" font-style="normal" 
>
</g>

<g fill="none" stroke="#000000" stroke-opacity="1" stroke-width="1" stroke-linecap="square" stroke-linejoin="bevel" transform="matrix(0.996377,0,0,0.996377,53.3062,59.9819)"
font-family="Oxygen-Sans Sans-Book" font-size="10" font-weight="400" font-style="normal" 
>
</g>

<g fill="none" stroke="#000000" stroke-opacity="1" stroke-width="1" stroke-linecap="square" stroke-linejoin="bevel" transform="matrix(0.996377,0,0,0.996377,53.3062,59.9819)"
font-family="Oxygen-Sans Sans-Book" font-size="10" font-weight="400" font-style="normal" 
>
</g>

<g fill="none" stroke="#000000" stroke-opacity="1" stroke-width="1" stroke-linecap="square" stroke-linejoin="bevel" transform="matrix(0.996377,0,0,0.996377,53.3062,59.9819)"
font-family="Oxygen-Sans Sans-Book" font-size="10" font-weight="400" font-style="normal" 
>
</g>

<g fill="none" stroke="#000080" stroke-opacity="1" stroke-width="0.4" stroke-linecap="round" stroke-linejoin="round" transform="matrix(0.996377,0,0,0.996377,53.3062,59.9819)"
font-family="Oxygen-Sans Sans-Book" font-size="10" font-weight="400" font-style="normal" 
>
<polyline fill="none" vector-effect="none" points="-30,-60 30,-60 " />
</g>

<g fill="none" stroke="#000000" stroke-opacity="1" stroke-width="1" stroke-linecap="square" stroke-linejoin="bevel" transform="matrix(0.996377,0,0,0.996377,53.3062,59.9819)"
font-family="Oxygen-Sans Sans-Book" font-size="10" font-weight="400" font-style="normal" 
>
</g>

<g fill="none" stroke="#000000" stroke-opacity="1" stroke-width="1" stroke-linecap="square" stroke-linejoin="bevel" transform="matrix(0.996377,0,0,0.996377,53.3062,59.9819)"
font-family="Oxygen-Sans Sans-Book" font-size="10" font-weight="400" font-style="normal" 
>
</g>

<g fill="none" stroke="#000080" stroke-opacity="1" stroke-width="0.4" stroke-linecap="round" stroke-linejoin="round" transform="matrix(0.996377,0,0,0.996377,53.3062,59.9819)"
font-family="Oxygen-Sans Sans-Book" font-size="10" font-weight="400" font-style="normal" 
>
<polyline fill="none" vector-effect="none" points="30,-60 30,50 " />
</g>

<g fill="none" stroke="#000000" stroke-opacity="1" stroke-width="1" stroke-linecap="square" stroke-linejoin="bevel" transform="matrix(0.996377,0,0,0.996377,53.3062,59.9819)"
font-family="Oxygen-Sans Sans-Book" font-size="10" font-weight="400" font-style="normal" 
>
</g>

<g fill="none" stroke="#000000" stroke-opacity="1" stroke-width="1" stroke-linecap="square" stroke-linejoin="bevel" transform="matrix(0.996377,0,0,0.996377,53.3062,59.9819)"
font-family="Oxygen-Sans Sans-Book" font-size="10" font-weight="400" font-style="normal" 
>
</g>

<g fill="none" stroke="#000080" stroke-opacity="1" stroke-width="0.4" stroke-linecap="round" stroke-linejoin="round" transform="matrix(0.996377,0,0,0.996377,53.3062,59.9819)"
font-family="Oxygen-Sans Sans-Book" font-size="10" font-weight="400" font-style="normal" 
>
<polyline fill="none" vector-effect="none" points="30,50 -30,50 " />
</g>

<g fill="none" stroke="#000000" stroke-opacity="1" stroke-width="1" stroke-linecap="square" stroke-linejoin="bevel" transform="matrix(0.996377,0,0,0.996377,53.3062,59.9819)"
font-family="Oxygen-Sans Sans-Book" font-size="10" font-weight="400" font-style="normal" 
>
</g>

<g fill="none" stroke="#000000" stroke-opacity="1" stroke-width="1" stroke-linecap="square" stroke-linejoin="bevel" transform="matrix(0.996377,0,0,0.996377,53.3062,59.9819)"
font-family="Oxygen-Sans Sans-Book" font-size="10" font-weight="400" font-style="normal" 
>
</g>

<g fill="none" stroke="#000080" stroke-opacity="1" stroke-width="0.4" stroke-linecap="round" stroke-linejoin="round" transform="matrix(0.996377,0,0,0.996377,53.3062,59.9819)"
font-family="Oxygen-Sans Sans-Book" font-size="10" font-weight="400" font-style="normal" 
>
<polyline fill="none" vector-effect="none" points="-30,50 -30,-60 " />
</g>

<g fill="none" stroke="#000000" stroke-opacity="1" stroke-width="1" stroke-linecap="square" stroke-linejoin="bevel" transform="matrix(0.996377,0,0,0.996377,53.3062,59.9819)"
font-family="Oxygen-Sans Sans-Book" font-size="10" font-weight="400" font-style="normal" 
>
</g>

<g fill="none" stroke="#000000" stroke-opacity="1" stroke-width="1" stroke-linecap="square" stroke-linejoin="bevel" transform="matrix(0.996377,0,0,0.996377,53.3062,59.9819)"
font-family="Oxygen-Sans Sans-Book" font-size="10" font-weight="400" font-style="normal" 
>
</g>

<g fill="none" stroke="#000080" stroke-opacity="1" stroke-width="0.4" stroke-linecap="round" stroke-linejoin="round" transform="matrix(0.996377,0,0,0.996377,53.3062,59.9819)"
font-family="Oxygen-Sans Sans-Book" font-size="10" font-weight="400" font-style="normal" 
>
<polyline fill="none" vector-effect="none" points="-50,-20 -40,-20 " />
</g>

<g fill="none" stroke="#000000" stroke-opacity="1" stroke-width="1" stroke-linecap="square" stroke-linejoin="bevel" transform="matrix(0.996377,0,0,0.996377,53.3062,59.9819)"
font-family="Oxygen-Sans Sans-Book" font-size="10" font-weight="400" font-style="normal" 
>
</g>

<g fill="none" stroke="#000000" stroke-opacity="1" stroke-width="1" stroke-linecap="square" stroke-linejoin="bevel" transform="matrix(0.996377,0,0,0.996377,53.3062,59.9819)"
font-family="Oxygen-Sans Sans-Book" font-size="10" font-weight="400" font-style="normal" 
>
</g>

<g fill="none" stroke="#000080" stroke-opacity="1" stroke-width="0.4" stroke-linecap="round" stroke-linejoin="round" transform="matrix(0.996377,0,0,0.996377,53.3062,59.9819)"
font-family="Oxygen-Sans Sans-Book" font-size="10" font-weight="400" font-style="normal" 
>
<polyline fill="none" vector-effect="none" points="-50,0 -30,0 " />
</g>

<g fill="none" stroke="#000000" stroke-opacity="1" stroke-width="1" stroke-linecap="square" stroke-linejoin="bevel" transform="matrix(0.996377,0,0,0.996377,53.3062,59.9819)"
font-family="Oxygen-Sans Sans-Book" font-size="10" font-weight="400" font-style="normal" 
>
</g>

<g fill="none" stroke="#000000" stroke-opacity="1" stroke-width="1" stroke-linecap="square" stroke-linejoin="bevel" transform="matrix(0.996377,0,0,0.996377,53.3062,59.9819)"
font-family="Oxygen-Sans Sans-Book" font-size="10" font-weight="400" font-style="normal" 
>
</g>

<g fill="none" stroke="#000080" stroke-opacity="1" stroke-width="0.4" stroke-linecap="round" stroke-linejoin="round" transform="matrix(0.996377,0,0,0.996377,53.3062,59.9819)"
font-family="Oxygen-Sans Sans-Book" font-size="10" font-weight="400" font-style="normal" 
>
<polyline fill="none" vector-effect="none" points="-50,20 -30,20 " />
</g>

<g fill="none" stroke="#000000" stroke-opacity="1" stroke-width="1" stroke-linecap="square" stroke-linejoin="bevel" transform="matrix(0.996377,0,0,0.996377,53.3062,59.9819)"
font-family="Oxygen-Sans Sans-Book" font-size="10" font-weight="400" font-style="normal" 
>
</g>

<g fill="none" stroke="#000000" stroke-opacity="1" stroke-width="1" stroke-linecap="square" stroke-linejoin="bevel" transform="matrix(0.996377,0,0,0.996377,53.3062,59.9819)"
font-family="Oxygen-Sans Sans-Book" font-size="10" font-weight="400" font-style="normal" 
>
</g>

<g fill="none" stroke="#000080" stroke-opacity="1" stroke-width="0.4" stroke-linecap="round" stroke-linejoin="round" transform="matrix(0.996377,0,0,0.996377,53.3062,59.9819)"
font-family="Oxygen-Sans Sans-Book" font-size="10" font-weight="400" font-style="normal" 
>
<polyline fill="none" vector-effect="none" points="-50,40 -30,40 " />
</g>

<g fill="none" stroke="#000000" stroke-opacity="1" stroke-width="1" stroke-linecap="square" stroke-linejoin="bevel" transform="matrix(0.996377,0,0,0.996377,53.3062,59.9819)"
font-family="Oxygen-Sans Sans-Book" font-size="10" font-weight="400" font-style="normal" 
>
</g>

<g fill="none" stroke="#000000" stroke-opacity="1" stroke-width="1" stroke-linecap="square" stroke-linejoin="bevel" transform="matrix(0.996377,0,0,0.996377,53.3062,59.9819)"
font-family="Oxygen-Sans Sans-Book" font-size="10" font-weight="400" font-style="normal" 
>
</g>

<g fill="none" stroke="#000080" stroke-opacity="1" stroke-width="0.4" stroke-linecap="round" stroke-linejoin="round" transform="matrix(0.996377,0,0,0.996377,53.3062,59.9819)"
font-family="Oxygen-Sans Sans-Book" font-size="10" font-weight="400" font-style="normal" 
>
<polyline fill="none" vector-effect="none" points="30,0 50,0 " />
</g>

<g fill="none" stroke="#000000" stroke-opacity="1" stroke-width="1" stroke-linecap="square" stroke-linejoin="bevel" transform="matrix(0.996377,0,0,0.996377,53.3062,59.9819)"
font-family="Oxygen-Sans Sans-Book" font-size="10" font-weight="400" font-style="normal" 
>
</g>

<g fill="none" stroke="#000000" stroke-opacity="1" stroke-width="1" stroke-linecap="square" stroke-linejoin="bevel" transform="matrix(0.996377,0,0,0.996377,53.3062,59.9819)"
font-family="Oxygen-Sans Sans-Book" font-size="10" font-weight="400" font-style="normal" 
>
</g>

<g fill="none" stroke="#000080" stroke-opacity="1" stroke-width="0.4" stroke-linecap="round" stroke-linejoin="round" transform="matrix(0.996377,0,0,0.996377,53.3062,59.9819)"
font-family="Oxygen-Sans Sans-Book" font-size="10" font-weight="400" font-style="normal" 
>
<polyline fill="none" vector-effect="none" points="11,0 23,0 " />
</g>

<g fill="none" stroke="#000000" stroke-opacity="1" stroke-width="1" stroke-linecap="square" stroke-linejoin="bevel" transform="matrix(0.996377,0,0,0.996377,53.3062,59.9819)"
font-family="Oxygen-Sans Sans-Book" font-size="10" font-weight="400" font-style="normal" 
>
</g>

<g fill="none" stroke="#000000" stroke-opacity="1" stroke-width="1" stroke-linecap="square" stroke-linejoin="bevel" transform="matrix(0.996377,0,0,0.996377,53.3062,59.9819)"
font-family="Oxygen-Sans Sans-Book" font-size="10" font-weight="400" font-style="normal" 
>
</g>

<g fill="none" stroke="#000080" stroke-opacity="1" stroke-width="0.4" stroke-linecap="round" stroke-linejoin="round" transform="matrix(0.996377,0,0,0.996377,53.3062,59.9819)"
font-family="Oxygen-Sans Sans-Book" font-size="10" font-weight="400" font-style="normal" 
>
<path vector-effect="none" fill-rule="evenodd" d="M-30,-20 C-30,-22.7614 -32.2386,-25 -35,-25 C-37.7614,-25 -40,-22.7614 -40,-20 C-40,-17.2386 -37.7614,-15 -35,-15 C-32.2386,-15 -30,-17.2386 -30,-20 "/>
</g>

<g fill="none" stroke="#000000" stroke-opacity="1" stroke-width="1" stroke-linecap="square" stroke-linejoin="bevel" transform="matrix(0.996377,0,0,0.996377,53.3062,59.9819)"
font-family="Oxygen-Sans Sans-Book" font-size="10" font-weight="400" font-style="normal" 
>
</g>

<g fill="none" stroke="#000000" stroke-opacity="1" stroke-width="1" stroke-linecap="square" stroke-linejoin="bevel" transform="matrix(0.996377,0,0,0.996377,3.48732,40.0543)"
font-family="Oxygen-Sans Sans-Book" font-size="10" font-weight="400" font-style="normal" 
>
</g>

<g fill="none" stroke="#ff0000" stroke-opacity="1" stroke-width="1" stroke-linecap="square" stroke-linejoin="bevel" transform="matrix(0.996377,0,0,0.996377,3.48732,40.0543)"
font-family="Oxygen-Sans Sans-Book" font-size="10" font-weight="400" font-style="normal" 
>
<path vector-effect="non-scaling-stroke" fill-rule="evenodd" d="M3.5,0 C3.5,1.933 1.933,3.5 0,3.5 C-1.933,3.5 -3.5,1.933 -3.5,0 C-3.5,-1.933 -1.933,-3.5 0,-3.5 C1.933,-3.5 3.5,-1.933 3.5,0 "/>
</g>

<g fill="none" stroke="#000000" stroke-opacity="1" stroke-width="1" stroke-linecap="square" stroke-linejoin="bevel" transform="matrix(0.996377,0,0,0.996377,3.48732,40.0543)"
font-family="Oxygen-Sans Sans-Book" font-size="10" font-weight="400" font-style="normal" 
>
</g>

<g fill="none" stroke="#000000" stroke-opacity="1" stroke-width="1" stroke-linecap="square" stroke-linejoin="bevel" transform="matrix(0.996377,0,0,0.996377,3.48732,59.9819)"
font-family="Oxygen-Sans Sans-Book" font-size="10" font-weight="400" font-style="normal" 
>
</g>

<g fill="none" stroke="#ff0000" stroke-opacity="1" stroke-width="1" stroke-linecap="square" stroke-linejoin="bevel" transform="matrix(0.996377,0,0,0.996377,3.48732,59.9819)"
font-family="Oxygen-Sans Sans-Book" font-size="10" font-weight="400" font-style="normal" 
>
<path vector-effect="non-scaling-stroke" fill-rule="evenodd" d="M3.5,0 C3.5,1.933 1.933,3.5 0,3.5 C-1.933,3.5 -3.5,1.933 -3.5,0 C-3.5,-1.933 -1.933,-3.5 0,-3.5 C1.933,-3.5 3.5,-1.933 3.5,0 "/>
</g>

<g fill="none" stroke="#000000" stroke-opacity="1" stroke-width="1" stroke-linecap="square" stroke-linejoin="bevel" transform="matrix(0.996377,0,0,0.996377,3.48732,59.9819)"
font-family="Oxygen-Sans Sans-Book" font-size="10" font-weight="400" font-style="normal" 
>
</g>

<g fill="none" stroke="#000000" stroke-opacity="1" stroke-width="1" stroke-linecap="square" stroke-linejoin="bevel" transform="matrix(0.996377,0,0,0.996377,3.48732,79.9094)"
font-family="Oxygen-Sans Sans-Book" font-size="10" font-weight="400" font-style="normal" 
>
</g>

<g fill="none" stroke="#ff0000" stroke-opacity="1" stroke-width="1" stroke-linecap="square" stroke-linejoin="bevel" transform="matrix(0.996377,0,0,0.996377,3.48732,79.9094)"
font-family="Oxygen-Sans Sans-Book" font-size="10" font-weight="400" font-style="normal" 
>
<path vector-effect="non-scaling-stroke" fill-rule="evenodd" d="M3.5,0 C3.5,1.933 1.933,3.5 0,3.5 C-1.933,3.5 -3.5,1.933 -3.5,0 C-3.5,-1.933 -1.933,-3.5 0,-3.5 C1.933,-3.5 3.5,-1.933 3.5,0 "/>
</g>

<g fill="none" stroke="#000000" stroke-opacity="1" stroke-width="1" stroke-linecap="square" stroke-linejoin="bevel" transform="matrix(0.996377,0,0,0.996377,3.48732,79.9094)"
font-family="Oxygen-Sans Sans-Book" font-size="10" font-weight="400" font-style="normal" 
>
</g>

<g fill="none" stroke="#000000" stroke-opacity="1" stroke-width="1" stroke-linecap="square" stroke-linejoin="bevel" transform="matrix(0.996377,0,0,0.996377,3.48732,99.837)"
font-family="Oxygen-Sans Sans-Book" font-size="10" font-weight="400" font-style="normal" 
>
</g>

<g fill="none" stroke="#ff0000" stroke-opacity="1" stroke-width="1" stroke-linecap="square" stroke-linejoin="bevel" transform="matrix(0.996377,0,0,0.996377,3.48732,99.837)"
font-family="Oxygen-Sans Sans-Book" font-size="10" font-weight="400" font-style="normal" 
>
<path vector-effect="non-scaling-stroke" fill-rule="evenodd" d="M3.5,0 C3.5,1.933 1.933,3.5 0,3.5 C-1.933,3.5 -3.5,1.933 -3.5,0 C-3.5,-1.933 -1.933,-3.5 0,-3.5 C1.933,-3.5 3.5,-1.933 3.5,0 "/>
</g>

<g fill="none" stroke="#000000" stroke-opacity="1" stroke-width="1" stroke-linecap="square" stroke-linejoin="bevel" transform="matrix(0.996377,0,0,0.996377,3.48732,99.837)"
font-family="Oxygen-Sans Sans-Book" font-size="10" font-weight="400" font-style="normal" 
>
</g>

<g fill="none" stroke="#000000" stroke-opacity="1" stroke-width="1" stroke-linecap="square" stroke-linejoin="bevel" transform="matrix(0.996377,0,0,0.996377,103.125,59.9819)"
font-family="Oxygen-Sans Sans-Book" font-size="10" font-weight="400" font-style="normal" 
>
</g>

<g fill="none" stroke="#ff0000" stroke-opacity="1" stroke-width="1" stroke-linecap="square" stroke-linejoin="bevel" transform="matrix(0.996377,0,0,0.996377,103.125,59.9819)"
font-family="Oxygen-Sans Sans-Book" font-size="10" font-weight="400" font-style="normal" 
>
<path vector-effect="non-scaling-stroke" fill-rule="evenodd" d="M3.5,0 C3.5,1.933 1.933,3.5 0,3.5 C-1.933,3.5 -3.5,1.933 -3.5,0 C-3.5,-1.933 -1.933,-3.5 0,-3.5 C1.933,-3.5 3.5,-1.933 3.5,0 "/>
</g>

<g fill="none" stroke="#000000" stroke-opacity="1" stroke-width="1" stroke-linecap="square" stroke-linejoin="bevel" transform="matrix(0.996377,0,0,0.996377,103.125,59.9819)"
font-family="Oxygen-Sans Sans-Book" font-size="10" font-weight="400" font-style="normal" 
>
</g>

<g fill="none" stroke="#000000" stroke-opacity="1" stroke-width="1" stroke-linecap="square" stroke-linejoin="bevel" transform="matrix(0.996377,0,0,0.996377,36.3678,5.18116)"
font-family="Oxygen-Sans Sans-Book" font-size="10" font-weight="400" font-style="normal" 
>
</g>

<g fill="none" stroke="#000080" stroke-opacity="1" stroke-width="1" stroke-linecap="square" stroke-linejoin="bevel" transform="matrix(0.996377,0,0,0.996377,36.3678,5.18116)"
font-family="Oxygen-Sans Sans-Book" font-size="10" font-weight="400" font-style="normal" 
>
</g>

<g fill="#000080" fill-opacity="1" stroke="#000000" stroke-opacity="1" stroke-width="1" stroke-linecap="round" stroke-linejoin="round" transform="matrix(0.996377,0,0,0.996377,36.3678,5.18116)"
font-family="Oxygen-Sans Sans-Book" font-size="10" font-weight="400" font-style="normal" 
>
<path vector-effect="non-scaling-stroke" fill-rule="nonzero" d="M1.28125,3.51562 L3.1875,3.51562 L5.60938,9.96875 L8.03125,3.51562 L9.95312,3.51562 L9.95312,13 L8.70312,13 L8.70312,4.67188 L6.25,11.1719 L4.96875,11.1719 L2.51562,4.67188 L2.51562,13 L1.28125,13 L1.28125,3.51562 M12.3281,3.51562 L13.625,3.51562 L13.625,9.28125 C13.625,10.2917 13.8073,11.0208 14.1719,11.4688 C14.5365,11.9167 15.1354,12.1406 15.9688,12.1406 C16.7917,12.1406 17.3854,11.9167 17.75,11.4688 C18.1146,11.0208 18.2969,10.2917 18.2969,9.28125 L18.2969,3.51562 L19.5938,3.51562 L19.5938,9.4375 C19.5938,10.6771 19.2865,11.612 18.6719,12.2422 C18.0573,12.8724 17.1562,13.1875 15.9688,13.1875 C14.7708,13.1875 13.8646,12.8724 13.25,12.2422 C12.6354,11.612 12.3281,10.6771 12.3281,9.4375 L12.3281,3.51562 M21.5156,3.51562 L22.9062,3.51562 L25.25,7.04688 L27.625,3.51562 L29,3.51562 L25.9531,8.07812 L29.2031,13 L27.8281,13 L25.1562,8.96875 L22.4688,13 L21.0938,13 L24.4688,7.9375 L21.5156,3.51562"/>
</g>

<g fill="none" stroke="#000080" stroke-opacity="1" stroke-width="1" stroke-linecap="square" stroke-linejoin="bevel" transform="matrix(0.996377,0,0,0.996377,36.3678,5.18116)"
font-family="Oxygen-Sans Sans-Book" font-size="10" font-weight="400" font-style="normal" 
>
</g>

<g fill="none" stroke="#000000" stroke-opacity="1" stroke-width="1" stroke-linecap="square" stroke-linejoin="bevel" transform="matrix(0.996377,0,0,0.996377,36.3678,5.18116)"
font-family="Oxygen-Sans Sans-Book" font-size="10" font-weight="400" font-style="normal" 
>
</g>

<g fill="none" stroke="#000000" stroke-opacity="1" stroke-width="1" stroke-linecap="square" stroke-linejoin="bevel" transform="matrix(0.996377,0,0,0.996377,28.3967,27.1014)"
font-family="Oxygen-Sans Sans-Book" font-size="10" font-weight="400" font-style="normal" 
>
</g>

<g fill="none" stroke="#000080" stroke-opacity="1" stroke-width="1" stroke-linecap="square" stroke-linejoin="bevel" transform="matrix(0.996377,0,0,0.996377,28.3967,27.1014)"
font-family="Oxygen-Sans Sans-Book" font-size="10" font-weight="400" font-style="normal" 
>
</g>

<g fill="#000080" fill-opacity="1" stroke="#000000" stroke-opacity="1" stroke-width="1" stroke-linecap="round" stroke-linejoin="round" transform="matrix(0.996377,0,0,0.996377,28.3967,27.1014)"
font-family="Oxygen-Sans Sans-Book" font-size="10" font-weight="400" font-style="normal" 
>
<path vector-effect="non-scaling-stroke" fill-rule="nonzero" d="M1.28125,3.51562 L7.26562,3.51562 L7.26562,4.60938 L2.5625,4.60938 L2.5625,7.40625 L7.07812,7.40625 L7.07812,8.48438 L2.5625,8.48438 L2.5625,11.9219 L7.375,11.9219 L7.375,13 L1.28125,13 L1.28125,3.51562 M15.3438,8.70312 L15.3438,13 L14.1719,13 L14.1719,8.75 C14.1719,8.07292 14.0417,7.56771 13.7812,7.23438 C13.5208,6.90104 13.125,6.73438 12.5938,6.73438 C11.9688,6.73438 11.474,6.9349 11.1094,7.33594 C10.7448,7.73698 10.5625,8.28646 10.5625,8.98438 L10.5625,13 L9.39062,13 L9.39062,5.89062 L10.5625,5.89062 L10.5625,7 C10.8438,6.57292 11.1719,6.2526 11.5469,6.03906 C11.9219,5.82552 12.3594,5.71875 12.8594,5.71875 C13.6719,5.71875 14.2891,5.97135 14.7109,6.47656 C15.1328,6.98177 15.3438,7.72396 15.3438,8.70312 "/>
</g>

<g fill="none" stroke="#000080" stroke-opacity="1" stroke-width="1" stroke-linecap="square" stroke-linejoin="bevel" transform="matrix(0.996377,0,0,0.996377,28.3967,27.1014)"
font-family="Oxygen-Sans Sans-Book" font-size="10" font-weight="400" font-style="normal" 
>
</g>

<g fill="none" stroke="#000000" stroke-opacity="1" stroke-width="1" stroke-linecap="square" stroke-linejoin="bevel" transform="matrix(0.996377,0,0,0.996377,28.3967,27.1014)"
font-family="Oxygen-Sans Sans-Book" font-size="10" font-weight="400" font-style="normal" 
>
</g>

<g fill="none" stroke="#000000" stroke-opacity="1" stroke-width="1" stroke-linecap="square" stroke-linejoin="bevel" transform="matrix(0.996377,0,0,0.996377,28.3967,47.029)"
font-family="Oxygen-Sans Sans-Book" font-size="10" font-weight="400" font-style="normal" 
>
</g>

<g fill="none" stroke="#000080" stroke-opacity="1" stroke-width="1" stroke-linecap="square" stroke-linejoin="bevel" transform="matrix(0.996377,0,0,0.996377,28.3967,47.029)"
font-family="Oxygen-Sans Sans-Book" font-size="10" font-weight="400" font-style="normal" 
>
</g>

<g fill="#000080" fill-opacity="1" stroke="#000000" stroke-opacity="1" stroke-width="1" stroke-linecap="round" stroke-linejoin="round" transform="matrix(0.996377,0,0,0.996377,28.3967,47.029)"
font-family="Oxygen-Sans Sans-Book" font-size="10" font-weight="400" font-style="normal" 
>
<path vector-effect="non-scaling-stroke" fill-rule="nonzero" d="M4.125,4.35938 C3.46875,4.35938 2.97396,4.6849 2.64062,5.33594 C2.30729,5.98698 2.14062,6.96354 2.14062,8.26562 C2.14062,9.56771 2.30729,10.5443 2.64062,11.1953 C2.97396,11.8464 3.46875,12.1719 4.125,12.1719 C4.79167,12.1719 5.29167,11.8464 5.625,11.1953 C5.95833,10.5443 6.125,9.56771 6.125,8.26562 C6.125,6.96354 5.95833,5.98698 5.625,5.33594 C5.29167,4.6849 4.79167,4.35938 4.125,4.35938 M4.125,3.34375 C5.1875,3.34375 6,3.76562 6.5625,4.60938 C7.125,5.45312 7.40625,6.67188 7.40625,8.26562 C7.40625,9.85938 7.125,11.0781 6.5625,11.9219 C6,12.7656 5.1875,13.1875 4.125,13.1875 C3.07292,13.1875 2.26562,12.7656 1.70312,11.9219 C1.14062,11.0781 0.859375,9.85938 0.859375,8.26562 C0.859375,6.67188 1.14062,5.45312 1.70312,4.60938 C2.26562,3.76562 3.07292,3.34375 4.125,3.34375 "/>
</g>

<g fill="none" stroke="#000080" stroke-opacity="1" stroke-width="1" stroke-linecap="square" stroke-linejoin="bevel" transform="matrix(0.996377,0,0,0.996377,28.3967,47.029)"
font-family="Oxygen-Sans Sans-Book" font-size="10" font-weight="400" font-style="normal" 
>
</g>

<g fill="none" stroke="#000000" stroke-opacity="1" stroke-width="1" stroke-linecap="square" stroke-linejoin="bevel" transform="matrix(0.996377,0,0,0.996377,28.3967,47.029)"
font-family="Oxygen-Sans Sans-Book" font-size="10" font-weight="400" font-style="normal" 
>
</g>

<g fill="none" stroke="#000000" stroke-opacity="1" stroke-width="1" stroke-linecap="square" stroke-linejoin="bevel" transform="matrix(0.996377,0,0,0.996377,38.3605,45.0362)"
font-family="Oxygen-Sans Sans-Book" font-size="10" font-weight="400" font-style="normal" 
>
</g>

<g fill="none" stroke="#000080" stroke-opacity="1" stroke-width="1" stroke-linecap="square" stroke-linejoin="bevel" transform="matrix(0.996377,0,0,0.996377,38.3605,45.0362)"
font-family="Oxygen-Sans Sans-Book" font-size="10" font-weight="400" font-style="normal" 
>
</g>

<g fill="#000080" fill-opacity="1" stroke="#000000" stroke-opacity="1" stroke-width="1" stroke-linecap="round" stroke-linejoin="round" transform="matrix(0.996377,0,0,0.996377,38.3605,45.0362)"
font-family="Oxygen-Sans Sans-Book" font-size="10" font-weight="400" font-style="normal" 
>
<path vector-effect="non-scaling-stroke" fill-rule="nonzero" d="M7.73438,11.6406 L7.73438,9.10938 L5.64062,9.10938 L5.64062,8.04688 L9,8.04688 L9,12.125 C8.51042,12.4688 7.96615,12.7318 7.36719,12.9141 C6.76823,13.0964 6.13021,13.1875 5.45312,13.1875 C3.97396,13.1875 2.81771,12.7552 1.98438,11.8906 C1.15104,11.026 0.734375,9.81771 0.734375,8.26562 C0.734375,6.72396 1.15104,5.51823 1.98438,4.64844 C2.81771,3.77865 3.97396,3.34375 5.45312,3.34375 C6.07812,3.34375 6.66927,3.42188 7.22656,3.57812 C7.78385,3.73438 8.29688,3.95833 8.76562,4.25 L8.76562,5.625 C8.28646,5.21875 7.78125,4.91406 7.25,4.71094 C6.71875,4.50781 6.15625,4.40625 5.5625,4.40625 C4.40625,4.40625 3.53646,4.72917 2.95312,5.375 C2.36979,6.02083 2.07812,6.98438 2.07812,8.26562 C2.07812,9.54688 2.36979,10.5104 2.95312,11.1562 C3.53646,11.8021 4.40625,12.125 5.5625,12.125 C6.02083,12.125 6.42708,12.0859 6.78125,12.0078 C7.13542,11.9297 7.45312,11.8073 7.73438,11.6406 "/>
</g>

<g fill="none" stroke="#000080" stroke-opacity="1" stroke-width="1" stroke-linecap="square" stroke-linejoin="bevel" transform="matrix(0.996377,0,0,0.996377,38.3605,45.0362)"
font-family="Oxygen-Sans Sans-Book" font-size="10" font-weight="400" font-style="normal" 
>
</g>

<g fill="none" stroke="#000000" stroke-opacity="1" stroke-width="1" stroke-linecap="square" stroke-linejoin="bevel" transform="matrix(0.996377,0,0,0.996377,38.3605,45.0362)"
font-family="Oxygen-Sans Sans-Book" font-size="10" font-weight="400" font-style="normal" 
>
</g>

<g fill="none" stroke="#000000" stroke-opacity="1" stroke-width="1" stroke-linecap="square" stroke-linejoin="bevel" transform="matrix(0.996377,0,0,0.996377,52.3098,39.058)"
font-family="Oxygen-Sans Sans-Book" font-size="10" font-weight="400" font-style="normal" 
>
</g>

<g fill="none" stroke="#000080" stroke-opacity="1" stroke-width="1" stroke-linecap="square" stroke-linejoin="bevel" transform="matrix(0.996377,0,0,0.996377,52.3098,39.058)"
font-family="Oxygen-Sans Sans-Book" font-size="10" font-weight="400" font-style="normal" 
>
</g>

<g fill="#000080" fill-opacity="1" stroke="#000000" stroke-opacity="1" stroke-width="1" stroke-linecap="round" stroke-linejoin="round" transform="matrix(0.996377,0,0,0.996377,52.3098,39.058)"
font-family="Oxygen-Sans Sans-Book" font-size="10" font-weight="400" font-style="normal" 
>
<path vector-effect="non-scaling-stroke" fill-rule="nonzero" d="M1.625,14.2031 L2.0625,14.2031 C2.65625,14.2031 3.04427,14.112 3.22656,13.9297 C3.40885,13.7474 3.5,13.3542 3.5,12.75 L3.5,11.1719 C3.5,10.5156 3.59375,10.0365 3.78125,9.73438 C3.96875,9.43229 4.30208,9.22396 4.78125,9.10938 C4.30208,9.00521 3.96875,8.80469 3.78125,8.50781 C3.59375,8.21094 3.5,7.72917 3.5,7.0625 L3.5,5.48438 C3.5,4.88021 3.40885,4.48698 3.22656,4.30469 C3.04427,4.1224 2.65625,4.03125 2.0625,4.03125 L1.625,4.03125 L1.625,3.125 L2.03125,3.125 C3.08333,3.125 3.78646,3.28125 4.14062,3.59375 C4.49479,3.90625 4.67188,4.52604 4.67188,5.45312 L4.67188,6.98438 C4.67188,7.60938 4.78385,8.04427 5.00781,8.28906 C5.23177,8.53385 5.64583,8.65625 6.25,8.65625 L6.64062,8.65625 L6.64062,9.5625 L6.25,9.5625 C5.64583,9.5625 5.23177,9.6849 5.00781,9.92969 C4.78385,10.1745 4.67188,10.6198 4.67188,11.2656 L4.67188,12.7812 C4.67188,13.7188 4.49479,14.3438 4.14062,14.6562 C3.78646,14.9688 3.08333,15.125 2.03125,15.125 L1.625,15.125 L1.625,14.2031"/>
</g>

<g fill="none" stroke="#000080" stroke-opacity="1" stroke-width="1" stroke-linecap="square" stroke-linejoin="bevel" transform="matrix(0.996377,0,0,0.996377,52.3098,39.058)"
font-family="Oxygen-Sans Sans-Book" font-size="10" font-weight="400" font-style="normal" 
>
</g>

<g fill="none" stroke="#000000" stroke-opacity="1" stroke-width="1" stroke-linecap="square" stroke-linejoin="bevel" transform="matrix(0.996377,0,0,0.996377,52.3098,39.058)"
font-family="Oxygen-Sans Sans-Book" font-size="10" font-weight="400" font-style="normal" 
>
</g>

<g fill="none" stroke="#000000" stroke-opacity="1" stroke-width="1" stroke-linecap="square" stroke-linejoin="bevel" transform="matrix(0.996377,0,0,0.996377,65.2627,38.0616)"
font-family="Oxygen-Sans Sans-Book" font-size="10" font-weight="400" font-style="normal" 
>
</g>

<g fill="none" stroke="#000080" stroke-opacity="1" stroke-width="1" stroke-linecap="square" stroke-linejoin="bevel" transform="matrix(0.996377,0,0,0.996377,65.2627,38.0616)"
font-family="Oxygen-Sans Sans-Book" font-size="10" font-weight="400" font-style="normal" 
>
</g>

<g fill="#000080" fill-opacity="1" stroke="#000000" stroke-opacity="1" stroke-width="1" stroke-linecap="round" stroke-linejoin="round" transform="matrix(0.996377,0,0,0.996377,65.2627,38.0616)"
font-family="Oxygen-Sans Sans-Book" font-size="10" font-weight="400" font-style="normal" 
>
<path vector-effect="non-scaling-stroke" fill-rule="nonzero" d="M4.125,4.35938 C3.46875,4.35938 2.97396,4.6849 2.64062,5.33594 C2.30729,5.98698 2.14062,6.96354 2.14062,8.26562 C2.14062,9.56771 2.30729,10.5443 2.64062,11.1953 C2.97396,11.8464 3.46875,12.1719 4.125,12.1719 C4.79167,12.1719 5.29167,11.8464 5.625,11.1953 C5.95833,10.5443 6.125,9.56771 6.125,8.26562 C6.125,6.96354 5.95833,5.98698 5.625,5.33594 C5.29167,4.6849 4.79167,4.35938 4.125,4.35938 M4.125,3.34375 C5.1875,3.34375 6,3.76562 6.5625,4.60938 C7.125,5.45312 7.40625,6.67188 7.40625,8.26562 C7.40625,9.85938 7.125,11.0781 6.5625,11.9219 C6,12.7656 5.1875,13.1875 4.125,13.1875 C3.07292,13.1875 2.26562,12.7656 1.70312,11.9219 C1.14062,11.0781 0.859375,9.85938 0.859375,8.26562 C0.859375,6.67188 1.14062,5.45312 1.70312,4.60938 C2.26562,3.76562 3.07292,3.34375 4.125,3.34375 "/>
</g>

<g fill="none" stroke="#000080" stroke-opacity="1" stroke-width="1" stroke-linecap="square" stroke-linejoin="bevel" transform="matrix(0.996377,0,0,0.996377,65.2627,38.0616)"
font-family="Oxygen-Sans Sans-Book" font-size="10" font-weight="400" font-style="normal" 
>
</g>

<g fill="none" stroke="#000000" stroke-opacity="1" stroke-width="1" stroke-linecap="square" stroke-linejoin="bevel" transform="matrix(0.996377,0,0,0.996377,65.2627,38.0616)"
font-family="Oxygen-Sans Sans-Book" font-size="10" font-weight="400" font-style="normal" 
>
</g>

<g fill="none" stroke="#000000" stroke-opacity="1" stroke-width="1" stroke-linecap="square" stroke-linejoin="bevel" transform="matrix(0.996377,0,0,0.996377,65.2627,57.9891)"
font-family="Oxygen-Sans Sans-Book" font-size="10" font-weight="400" font-style="normal" 
>
</g>

<g fill="none" stroke="#000080" stroke-opacity="1" stroke-width="1" stroke-linecap="square" stroke-linejoin="bevel" transform="matrix(0.996377,0,0,0.996377,65.2627,57.9891)"
font-family="Oxygen-Sans Sans-Book" font-size="10" font-weight="400" font-style="normal" 
>
</g>

<g fill="#000080" fill-opacity="1" stroke="#000000" stroke-opacity="1" stroke-width="1" stroke-linecap="round" stroke-linejoin="round" transform="matrix(0.996377,0,0,0.996377,65.2627,57.9891)"
font-family="Oxygen-Sans Sans-Book" font-size="10" font-weight="400" font-style="normal" 
>
<path vector-effect="non-scaling-stroke" fill-rule="nonzero" d="M1.60938,11.9219 L3.70312,11.9219 L3.70312,4.6875 L1.42188,5.14062 L1.42188,3.98438 L3.6875,3.51562 L4.98438,3.51562 L4.98438,11.9219 L7.07812,11.9219 L7.07812,13 L1.60938,13 L1.60938,11.9219"/>
</g>

<g fill="none" stroke="#000080" stroke-opacity="1" stroke-width="1" stroke-linecap="square" stroke-linejoin="bevel" transform="matrix(0.996377,0,0,0.996377,65.2627,57.9891)"
font-family="Oxygen-Sans Sans-Book" font-size="10" font-weight="400" font-style="normal" 
>
</g>

<g fill="none" stroke="#000000" stroke-opacity="1" stroke-width="1" stroke-linecap="square" stroke-linejoin="bevel" transform="matrix(0.996377,0,0,0.996377,65.2627,57.9891)"
font-family="Oxygen-Sans Sans-Book" font-size="10" font-weight="400" font-style="normal" 
>
</g>

<g fill="none" stroke="#000000" stroke-opacity="1" stroke-width="1" stroke-linecap="square" stroke-linejoin="bevel" transform="matrix(0.996377,0,0,0.996377,28.3967,66.9565)"
font-family="Oxygen-Sans Sans-Book" font-size="10" font-weight="400" font-style="normal" 
>
</g>

<g fill="none" stroke="#000080" stroke-opacity="1" stroke-width="1" stroke-linecap="square" stroke-linejoin="bevel" transform="matrix(0.996377,0,0,0.996377,28.3967,66.9565)"
font-family="Oxygen-Sans Sans-Book" font-size="10" font-weight="400" font-style="normal" 
>
</g>

<g fill="#000080" fill-opacity="1" stroke="#000000" stroke-opacity="1" stroke-width="1" stroke-linecap="round" stroke-linejoin="round" transform="matrix(0.996377,0,0,0.996377,28.3967,66.9565)"
font-family="Oxygen-Sans Sans-Book" font-size="10" font-weight="400" font-style="normal" 
>
<path vector-effect="non-scaling-stroke" fill-rule="nonzero" d="M4.125,4.35938 C3.46875,4.35938 2.97396,4.6849 2.64062,5.33594 C2.30729,5.98698 2.14062,6.96354 2.14062,8.26562 C2.14062,9.56771 2.30729,10.5443 2.64062,11.1953 C2.97396,11.8464 3.46875,12.1719 4.125,12.1719 C4.79167,12.1719 5.29167,11.8464 5.625,11.1953 C5.95833,10.5443 6.125,9.56771 6.125,8.26562 C6.125,6.96354 5.95833,5.98698 5.625,5.33594 C5.29167,4.6849 4.79167,4.35938 4.125,4.35938 M4.125,3.34375 C5.1875,3.34375 6,3.76562 6.5625,4.60938 C7.125,5.45312 7.40625,6.67188 7.40625,8.26562 C7.40625,9.85938 7.125,11.0781 6.5625,11.9219 C6,12.7656 5.1875,13.1875 4.125,13.1875 C3.07292,13.1875 2.26562,12.7656 1.70312,11.9219 C1.14062,11.0781 0.859375,9.85938 0.859375,8.26562 C0.859375,6.67188 1.14062,5.45312 1.70312,4.60938 C2.26562,3.76562 3.07292,3.34375 4.125,3.34375 "/>
</g>

<g fill="none" stroke="#000080" stroke-opacity="1" stroke-width="1" stroke-linecap="square" stroke-linejoin="bevel" transform="matrix(0.996377,0,0,0.996377,28.3967,66.9565)"
font-family="Oxygen-Sans Sans-Book" font-size="10" font-weight="400" font-style="normal" 
>
</g>

<g fill="none" stroke="#000000" stroke-opacity="1" stroke-width="1" stroke-linecap="square" stroke-linejoin="bevel" transform="matrix(0.996377,0,0,0.996377,28.3967,66.9565)"
font-family="Oxygen-Sans Sans-Book" font-size="10" font-weight="400" font-style="normal" 
>
</g>

<g fill="none" stroke="#000000" stroke-opacity="1" stroke-width="1" stroke-linecap="square" stroke-linejoin="bevel" transform="matrix(0.996377,0,0,0.996377,28.3967,86.8841)"
font-family="Oxygen-Sans Sans-Book" font-size="10" font-weight="400" font-style="normal" 
>
</g>

<g fill="none" stroke="#000080" stroke-opacity="1" stroke-width="1" stroke-linecap="square" stroke-linejoin="bevel" transform="matrix(0.996377,0,0,0.996377,28.3967,86.8841)"
font-family="Oxygen-Sans Sans-Book" font-size="10" font-weight="400" font-style="normal" 
>
</g>

<g fill="#000080" fill-opacity="1" stroke="#000000" stroke-opacity="1" stroke-width="1" stroke-linecap="round" stroke-linejoin="round" transform="matrix(0.996377,0,0,0.996377,28.3967,86.8841)"
font-family="Oxygen-Sans Sans-Book" font-size="10" font-weight="400" font-style="normal" 
>
<path vector-effect="non-scaling-stroke" fill-rule="nonzero" d="M1.60938,11.9219 L3.70312,11.9219 L3.70312,4.6875 L1.42188,5.14062 L1.42188,3.98438 L3.6875,3.51562 L4.98438,3.51562 L4.98438,11.9219 L7.07812,11.9219 L7.07812,13 L1.60938,13 L1.60938,11.9219"/>
</g>

<g fill="none" stroke="#000080" stroke-opacity="1" stroke-width="1" stroke-linecap="square" stroke-linejoin="bevel" transform="matrix(0.996377,0,0,0.996377,28.3967,86.8841)"
font-family="Oxygen-Sans Sans-Book" font-size="10" font-weight="400" font-style="normal" 
>
</g>

<g fill="none" stroke="#000000" stroke-opacity="1" stroke-width="1" stroke-linecap="square" stroke-linejoin="bevel" transform="matrix(0.996377,0,0,0.996377,28.3967,86.8841)"
font-family="Oxygen-Sans Sans-Book" font-size="10" font-weight="400" font-style="normal" 
>
</g>

<g fill="none" stroke="#000000" stroke-opacity="1" stroke-width="1" stroke-linecap="square" stroke-linejoin="bevel" transform="matrix(1,0,0,1,0,0)"
font-family="Oxygen-Sans Sans-Book" font-size="10" font-weight="400" font-style="normal" 
>
</g>
</g>
</svg>
