<?xml version="1.0" encoding="UTF-8" standalone="no"?>
<svg width="13.7583mm" height="7.76111mm"
 viewBox="0 0 39 22"
 xmlns="http://www.w3.org/2000/svg" xmlns:xlink="http://www.w3.org/1999/xlink"  version="1.2" baseProfile="tiny">
<title>Logic 1</title>
<desc>logic 1 verilog device</desc>
<defs>
</defs>
<g fill="none" stroke="black" stroke-width="1" fill-rule="evenodd" stroke-linecap="square" stroke-linejoin="bevel" >

<g fill="none" stroke="#000000" stroke-opacity="1" stroke-width="1" stroke-linecap="square" stroke-linejoin="bevel" transform="matrix(1,0,0,1,0,0)"
font-family="Oxygen-Sans Sans-Book" font-size="10" font-weight="400" font-style="normal" 
>
</g>

<g fill="none" stroke="#000000" stroke-opacity="1" stroke-width="1" stroke-linecap="square" stroke-linejoin="bevel" transform="matrix(1,0,0,1,0,0)"
font-family="Oxygen-Sans Sans-Book" font-size="10" font-weight="400" font-style="normal" 
>
</g>

<g fill="none" stroke="#000000" stroke-opacity="1" stroke-width="1" stroke-linecap="square" stroke-linejoin="bevel" transform="matrix(0.99012,0,0,0.99012,34.8522,11.8814)"
font-family="Oxygen-Sans Sans-Book" font-size="10" font-weight="400" font-style="normal" 
>
</g>

<g fill="none" stroke="#000000" stroke-opacity="1" stroke-width="1" stroke-linecap="square" stroke-linejoin="bevel" transform="matrix(0.99012,0,0,0.99012,34.8522,11.8814)"
font-family="Oxygen-Sans Sans-Book" font-size="10" font-weight="400" font-style="normal" 
>
</g>

<g fill="none" stroke="#000000" stroke-opacity="1" stroke-width="1" stroke-linecap="square" stroke-linejoin="bevel" transform="matrix(0.99012,0,0,0.99012,34.8522,11.8814)"
font-family="Oxygen-Sans Sans-Book" font-size="10" font-weight="400" font-style="normal" 
>
</g>

<g fill="none" stroke="#008000" stroke-opacity="1" stroke-width="0.4" stroke-linecap="round" stroke-linejoin="round" transform="matrix(0.99012,0,0,0.99012,34.8522,11.8814)"
font-family="Oxygen-Sans Sans-Book" font-size="10" font-weight="400" font-style="normal" 
>
<polyline fill="none" vector-effect="none" points="-10,0 0,0 " />
</g>

<g fill="none" stroke="#000000" stroke-opacity="1" stroke-width="1" stroke-linecap="square" stroke-linejoin="bevel" transform="matrix(0.99012,0,0,0.99012,34.8522,11.8814)"
font-family="Oxygen-Sans Sans-Book" font-size="10" font-weight="400" font-style="normal" 
>
</g>

<g fill="none" stroke="#000000" stroke-opacity="1" stroke-width="1" stroke-linecap="square" stroke-linejoin="bevel" transform="matrix(0.99012,0,0,0.99012,34.8522,11.8814)"
font-family="Oxygen-Sans Sans-Book" font-size="10" font-weight="400" font-style="normal" 
>
</g>

<g fill="none" stroke="#008000" stroke-opacity="1" stroke-width="0.4" stroke-linecap="round" stroke-linejoin="round" transform="matrix(0.99012,0,0,0.99012,34.8522,11.8814)"
font-family="Oxygen-Sans Sans-Book" font-size="10" font-weight="400" font-style="normal" 
>
<polyline fill="none" vector-effect="none" points="-20,-10 -10,0 " />
</g>

<g fill="none" stroke="#000000" stroke-opacity="1" stroke-width="1" stroke-linecap="square" stroke-linejoin="bevel" transform="matrix(0.99012,0,0,0.99012,34.8522,11.8814)"
font-family="Oxygen-Sans Sans-Book" font-size="10" font-weight="400" font-style="normal" 
>
</g>

<g fill="none" stroke="#000000" stroke-opacity="1" stroke-width="1" stroke-linecap="square" stroke-linejoin="bevel" transform="matrix(0.99012,0,0,0.99012,34.8522,11.8814)"
font-family="Oxygen-Sans Sans-Book" font-size="10" font-weight="400" font-style="normal" 
>
</g>

<g fill="none" stroke="#008000" stroke-opacity="1" stroke-width="0.4" stroke-linecap="round" stroke-linejoin="round" transform="matrix(0.99012,0,0,0.99012,34.8522,11.8814)"
font-family="Oxygen-Sans Sans-Book" font-size="10" font-weight="400" font-style="normal" 
>
<polyline fill="none" vector-effect="none" points="-20,10 -10,0 " />
</g>

<g fill="none" stroke="#000000" stroke-opacity="1" stroke-width="1" stroke-linecap="square" stroke-linejoin="bevel" transform="matrix(0.99012,0,0,0.99012,34.8522,11.8814)"
font-family="Oxygen-Sans Sans-Book" font-size="10" font-weight="400" font-style="normal" 
>
</g>

<g fill="none" stroke="#000000" stroke-opacity="1" stroke-width="1" stroke-linecap="square" stroke-linejoin="bevel" transform="matrix(0.99012,0,0,0.99012,34.8522,11.8814)"
font-family="Oxygen-Sans Sans-Book" font-size="10" font-weight="400" font-style="normal" 
>
</g>

<g fill="none" stroke="#008000" stroke-opacity="1" stroke-width="0.4" stroke-linecap="round" stroke-linejoin="round" transform="matrix(0.99012,0,0,0.99012,34.8522,11.8814)"
font-family="Oxygen-Sans Sans-Book" font-size="10" font-weight="400" font-style="normal" 
>
<polyline fill="none" vector-effect="none" points="-35,-10 -20,-10 " />
</g>

<g fill="none" stroke="#000000" stroke-opacity="1" stroke-width="1" stroke-linecap="square" stroke-linejoin="bevel" transform="matrix(0.99012,0,0,0.99012,34.8522,11.8814)"
font-family="Oxygen-Sans Sans-Book" font-size="10" font-weight="400" font-style="normal" 
>
</g>

<g fill="none" stroke="#000000" stroke-opacity="1" stroke-width="1" stroke-linecap="square" stroke-linejoin="bevel" transform="matrix(0.99012,0,0,0.99012,34.8522,11.8814)"
font-family="Oxygen-Sans Sans-Book" font-size="10" font-weight="400" font-style="normal" 
>
</g>

<g fill="none" stroke="#008000" stroke-opacity="1" stroke-width="0.4" stroke-linecap="round" stroke-linejoin="round" transform="matrix(0.99012,0,0,0.99012,34.8522,11.8814)"
font-family="Oxygen-Sans Sans-Book" font-size="10" font-weight="400" font-style="normal" 
>
<polyline fill="none" vector-effect="none" points="-35,10 -20,10 " />
</g>

<g fill="none" stroke="#000000" stroke-opacity="1" stroke-width="1" stroke-linecap="square" stroke-linejoin="bevel" transform="matrix(0.99012,0,0,0.99012,34.8522,11.8814)"
font-family="Oxygen-Sans Sans-Book" font-size="10" font-weight="400" font-style="normal" 
>
</g>

<g fill="none" stroke="#000000" stroke-opacity="1" stroke-width="1" stroke-linecap="square" stroke-linejoin="bevel" transform="matrix(0.99012,0,0,0.99012,34.8522,11.8814)"
font-family="Oxygen-Sans Sans-Book" font-size="10" font-weight="400" font-style="normal" 
>
</g>

<g fill="none" stroke="#008000" stroke-opacity="1" stroke-width="0.4" stroke-linecap="round" stroke-linejoin="round" transform="matrix(0.99012,0,0,0.99012,34.8522,11.8814)"
font-family="Oxygen-Sans Sans-Book" font-size="10" font-weight="400" font-style="normal" 
>
<polyline fill="none" vector-effect="none" points="-35,-10 -35,10 " />
</g>

<g fill="none" stroke="#000000" stroke-opacity="1" stroke-width="1" stroke-linecap="square" stroke-linejoin="bevel" transform="matrix(0.99012,0,0,0.99012,34.8522,11.8814)"
font-family="Oxygen-Sans Sans-Book" font-size="10" font-weight="400" font-style="normal" 
>
</g>

<g fill="none" stroke="#000000" stroke-opacity="1" stroke-width="1" stroke-linecap="square" stroke-linejoin="bevel" transform="matrix(0.99012,0,0,0.99012,34.8522,11.8814)"
font-family="Oxygen-Sans Sans-Book" font-size="10" font-weight="400" font-style="normal" 
>
</g>

<g fill="none" stroke="#ff0000" stroke-opacity="1" stroke-width="1" stroke-linecap="square" stroke-linejoin="bevel" transform="matrix(0.99012,0,0,0.99012,34.8522,11.8814)"
font-family="Oxygen-Sans Sans-Book" font-size="10" font-weight="400" font-style="normal" 
>
<path vector-effect="non-scaling-stroke" fill-rule="evenodd" d="M3.5,0 C3.5,1.933 1.933,3.5 0,3.5 C-1.933,3.5 -3.5,1.933 -3.5,0 C-3.5,-1.933 -1.933,-3.5 0,-3.5 C1.933,-3.5 3.5,-1.933 3.5,0 "/>
</g>

<g fill="none" stroke="#000000" stroke-opacity="1" stroke-width="1" stroke-linecap="square" stroke-linejoin="bevel" transform="matrix(0.99012,0,0,0.99012,34.8522,11.8814)"
font-family="Oxygen-Sans Sans-Book" font-size="10" font-weight="400" font-style="normal" 
>
</g>

<g fill="none" stroke="#000000" stroke-opacity="1" stroke-width="1" stroke-linecap="square" stroke-linejoin="bevel" transform="matrix(0.99012,0,0,0.99012,5.14862,0)"
font-family="Oxygen-Sans Sans-Book" font-size="10" font-weight="400" font-style="normal" 
>
</g>

<g fill="none" stroke="#008000" stroke-opacity="1" stroke-width="1" stroke-linecap="square" stroke-linejoin="bevel" transform="matrix(0.99012,0,0,0.99012,5.14862,0)"
font-family="Oxygen-Sans Sans-Book" font-size="10" font-weight="400" font-style="normal" 
>
</g>

<g fill="#008000" fill-opacity="1" stroke="#000000" stroke-opacity="1" stroke-width="1" stroke-linecap="round" stroke-linejoin="round" transform="matrix(0.99012,0,0,0.99012,5.14862,0)"
font-family="Oxygen-Sans Sans-Book" font-size="10" font-weight="400" font-style="normal" 
>
<path vector-effect="non-scaling-stroke" fill-rule="nonzero" d="M1.60938,11.9219 L3.70312,11.9219 L3.70312,4.6875 L1.42188,5.14062 L1.42188,3.98438 L3.6875,3.51562 L4.98438,3.51562 L4.98438,11.9219 L7.07812,11.9219 L7.07812,13 L1.60938,13 L1.60938,11.9219"/>
</g>

<g fill="none" stroke="#008000" stroke-opacity="1" stroke-width="1" stroke-linecap="square" stroke-linejoin="bevel" transform="matrix(0.99012,0,0,0.99012,5.14862,0)"
font-family="Oxygen-Sans Sans-Book" font-size="10" font-weight="400" font-style="normal" 
>
</g>

<g fill="none" stroke="#000000" stroke-opacity="1" stroke-width="1" stroke-linecap="square" stroke-linejoin="bevel" transform="matrix(0.99012,0,0,0.99012,5.14862,0)"
font-family="Oxygen-Sans Sans-Book" font-size="10" font-weight="400" font-style="normal" 
>
</g>

<g fill="none" stroke="#000000" stroke-opacity="1" stroke-width="1" stroke-linecap="square" stroke-linejoin="bevel" transform="matrix(1,0,0,1,0,0)"
font-family="Oxygen-Sans Sans-Book" font-size="10" font-weight="400" font-style="normal" 
>
</g>
</g>
</svg>
