<?xml version="1.0" encoding="UTF-8" standalone="no"?>
<svg width="11.9944mm" height="10.5833mm"
 viewBox="0 0 34 30"
 xmlns="http://www.w3.org/2000/svg" xmlns:xlink="http://www.w3.org/1999/xlink"  version="1.2" baseProfile="tiny">
<title>VHDL file</title>
<desc>VHDL file</desc>
<defs>
</defs>
<g fill="none" stroke="black" stroke-width="1" fill-rule="evenodd" stroke-linecap="square" stroke-linejoin="bevel" >

<g fill="none" stroke="#000000" stroke-opacity="1" stroke-width="1" stroke-linecap="square" stroke-linejoin="bevel" transform="matrix(1,0,0,1,0,0)"
font-family="Oxygen-Sans Sans-Book" font-size="10" font-weight="400" font-style="normal" 
>
</g>

<g fill="none" stroke="#000000" stroke-opacity="1" stroke-width="1" stroke-linecap="square" stroke-linejoin="bevel" transform="matrix(1,0,0,1,0,0)"
font-family="Oxygen-Sans Sans-Book" font-size="10" font-weight="400" font-style="normal" 
>
</g>

<g fill="none" stroke="#000000" stroke-opacity="1" stroke-width="1" stroke-linecap="square" stroke-linejoin="bevel" transform="matrix(0.986842,0,0,0.986842,16.9737,15)"
font-family="Oxygen-Sans Sans-Book" font-size="10" font-weight="400" font-style="normal" 
>
</g>

<g fill="none" stroke="#000000" stroke-opacity="1" stroke-width="1" stroke-linecap="square" stroke-linejoin="bevel" transform="matrix(0.986842,0,0,0.986842,16.9737,15)"
font-family="Oxygen-Sans Sans-Book" font-size="10" font-weight="400" font-style="normal" 
>
</g>

<g fill="none" stroke="#000000" stroke-opacity="1" stroke-width="1" stroke-linecap="square" stroke-linejoin="bevel" transform="matrix(0.986842,0,0,0.986842,16.9737,15)"
font-family="Oxygen-Sans Sans-Book" font-size="10" font-weight="400" font-style="normal" 
>
</g>

<g fill="none" stroke="#000080" stroke-opacity="1" stroke-width="0.4" stroke-linecap="round" stroke-linejoin="round" transform="matrix(0.986842,0,0,0.986842,16.9737,15)"
font-family="Oxygen-Sans Sans-Book" font-size="10" font-weight="400" font-style="normal" 
>
<polyline fill="none" vector-effect="none" points="-17,-15 17,-15 " />
</g>

<g fill="none" stroke="#000000" stroke-opacity="1" stroke-width="1" stroke-linecap="square" stroke-linejoin="bevel" transform="matrix(0.986842,0,0,0.986842,16.9737,15)"
font-family="Oxygen-Sans Sans-Book" font-size="10" font-weight="400" font-style="normal" 
>
</g>

<g fill="none" stroke="#000000" stroke-opacity="1" stroke-width="1" stroke-linecap="square" stroke-linejoin="bevel" transform="matrix(0.986842,0,0,0.986842,16.9737,15)"
font-family="Oxygen-Sans Sans-Book" font-size="10" font-weight="400" font-style="normal" 
>
</g>

<g fill="none" stroke="#000080" stroke-opacity="1" stroke-width="0.4" stroke-linecap="round" stroke-linejoin="round" transform="matrix(0.986842,0,0,0.986842,16.9737,15)"
font-family="Oxygen-Sans Sans-Book" font-size="10" font-weight="400" font-style="normal" 
>
<polyline fill="none" vector-effect="none" points="17,-15 17,15 " />
</g>

<g fill="none" stroke="#000000" stroke-opacity="1" stroke-width="1" stroke-linecap="square" stroke-linejoin="bevel" transform="matrix(0.986842,0,0,0.986842,16.9737,15)"
font-family="Oxygen-Sans Sans-Book" font-size="10" font-weight="400" font-style="normal" 
>
</g>

<g fill="none" stroke="#000000" stroke-opacity="1" stroke-width="1" stroke-linecap="square" stroke-linejoin="bevel" transform="matrix(0.986842,0,0,0.986842,16.9737,15)"
font-family="Oxygen-Sans Sans-Book" font-size="10" font-weight="400" font-style="normal" 
>
</g>

<g fill="none" stroke="#000080" stroke-opacity="1" stroke-width="0.4" stroke-linecap="round" stroke-linejoin="round" transform="matrix(0.986842,0,0,0.986842,16.9737,15)"
font-family="Oxygen-Sans Sans-Book" font-size="10" font-weight="400" font-style="normal" 
>
<polyline fill="none" vector-effect="none" points="-17,15 17,15 " />
</g>

<g fill="none" stroke="#000000" stroke-opacity="1" stroke-width="1" stroke-linecap="square" stroke-linejoin="bevel" transform="matrix(0.986842,0,0,0.986842,16.9737,15)"
font-family="Oxygen-Sans Sans-Book" font-size="10" font-weight="400" font-style="normal" 
>
</g>

<g fill="none" stroke="#000000" stroke-opacity="1" stroke-width="1" stroke-linecap="square" stroke-linejoin="bevel" transform="matrix(0.986842,0,0,0.986842,16.9737,15)"
font-family="Oxygen-Sans Sans-Book" font-size="10" font-weight="400" font-style="normal" 
>
</g>

<g fill="none" stroke="#000080" stroke-opacity="1" stroke-width="0.4" stroke-linecap="round" stroke-linejoin="round" transform="matrix(0.986842,0,0,0.986842,16.9737,15)"
font-family="Oxygen-Sans Sans-Book" font-size="10" font-weight="400" font-style="normal" 
>
<polyline fill="none" vector-effect="none" points="-17,-15 -17,15 " />
</g>

<g fill="none" stroke="#000000" stroke-opacity="1" stroke-width="1" stroke-linecap="square" stroke-linejoin="bevel" transform="matrix(0.986842,0,0,0.986842,16.9737,15)"
font-family="Oxygen-Sans Sans-Book" font-size="10" font-weight="400" font-style="normal" 
>
</g>

<g fill="none" stroke="#000000" stroke-opacity="1" stroke-width="1" stroke-linecap="square" stroke-linejoin="bevel" transform="matrix(0.986842,0,0,0.986842,3.15789,4.14474)"
font-family="Oxygen-Sans Sans-Book" font-size="10" font-weight="400" font-style="normal" 
>
</g>

<g fill="none" stroke="#000000" stroke-opacity="1" stroke-width="1" stroke-linecap="square" stroke-linejoin="bevel" transform="matrix(0.986842,0,0,0.986842,3.15789,4.14474)"
font-family="Oxygen-Sans Sans-Book" font-size="10" font-weight="400" font-style="normal" 
>
</g>

<g fill="#000000" fill-opacity="1" stroke="#000000" stroke-opacity="1" stroke-width="1" stroke-linecap="round" stroke-linejoin="round" transform="matrix(0.986842,0,0,0.986842,3.15789,4.14474)"
font-family="Oxygen-Sans Sans-Book" font-size="10" font-weight="400" font-style="normal" 
>
<path vector-effect="non-scaling-stroke" fill-rule="nonzero" d="M0.390625,5.89062 L1.625,5.89062 L3.84375,11.8594 L6.0625,5.89062 L7.3125,5.89062 L4.64062,13 L3.04688,13 L0.390625,5.89062 M14.8281,8.70312 L14.8281,13 L13.6562,13 L13.6562,8.75 C13.6562,8.07292 13.526,7.56771 13.2656,7.23438 C13.0052,6.90104 12.6094,6.73438 12.0781,6.73438 C11.4531,6.73438 10.9583,6.9349 10.5938,7.33594 C10.2292,7.73698 10.0469,8.28646 10.0469,8.98438 L10.0469,13 L8.875,13 L8.875,3.125 L10.0469,3.125 L10.0469,7 C10.3281,6.57292 10.6562,6.2526 11.0312,6.03906 C11.4062,5.82552 11.8438,5.71875 12.3438,5.71875 C13.1562,5.71875 13.7734,5.97135 14.1953,6.47656 C14.6172,6.98177 14.8281,7.72396 14.8281,8.70312 M21.8281,6.96875 L21.8281,3.125 L23,3.125 L23,13 L21.8281,13 L21.8281,11.9375 C21.5781,12.3542 21.2656,12.6667 20.8906,12.875 C20.5156,13.0833 20.0677,13.1875 19.5469,13.1875 C18.6927,13.1875 17.9948,12.8438 17.4531,12.1562 C16.9115,11.4688 16.6406,10.5677 16.6406,9.45312 C16.6406,8.33854 16.9115,7.4375 17.4531,6.75 C17.9948,6.0625 18.6927,5.71875 19.5469,5.71875 C20.0677,5.71875 20.5156,5.82031 20.8906,6.02344 C21.2656,6.22656 21.5781,6.54167 21.8281,6.96875 M17.8438,9.45312 C17.8438,10.3073 18.0208,10.9792 18.375,11.4688 C18.7292,11.9583 19.2135,12.2031 19.8281,12.2031 C20.4531,12.2031 20.9427,11.9583 21.2969,11.4688 C21.651,10.9792 21.8281,10.3073 21.8281,9.45312 C21.8281,8.58854 21.651,7.91406 21.2969,7.42969 C20.9427,6.94531 20.4531,6.70312 19.8281,6.70312 C19.2135,6.70312 18.7292,6.94531 18.375,7.42969 C18.0208,7.91406 17.8438,8.58854 17.8438,9.45312 M25.3906,3.125 L26.5625,3.125 L26.5625,13 L25.3906,13 L25.3906,3.125"/>
</g>

<g fill="none" stroke="#000000" stroke-opacity="1" stroke-width="1" stroke-linecap="square" stroke-linejoin="bevel" transform="matrix(0.986842,0,0,0.986842,3.15789,4.14474)"
font-family="Oxygen-Sans Sans-Book" font-size="10" font-weight="400" font-style="normal" 
>
</g>

<g fill="none" stroke="#000000" stroke-opacity="1" stroke-width="1" stroke-linecap="square" stroke-linejoin="bevel" transform="matrix(0.986842,0,0,0.986842,3.15789,4.14474)"
font-family="Oxygen-Sans Sans-Book" font-size="10" font-weight="400" font-style="normal" 
>
</g>

<g fill="none" stroke="#000000" stroke-opacity="1" stroke-width="1" stroke-linecap="square" stroke-linejoin="bevel" transform="matrix(1,0,0,1,0,0)"
font-family="Oxygen-Sans Sans-Book" font-size="10" font-weight="400" font-style="normal" 
>
</g>
</g>
</svg>
