<?xml version="1.0" encoding="UTF-8" standalone="no"?>
<svg width="16.9333mm" height="10.5833mm"
 viewBox="0 0 48 30"
 xmlns="http://www.w3.org/2000/svg" xmlns:xlink="http://www.w3.org/1999/xlink"  version="1.2" baseProfile="tiny">
<title>Verilog file</title>
<desc>Verilog file</desc>
<defs>
</defs>
<g fill="none" stroke="black" stroke-width="1" fill-rule="evenodd" stroke-linecap="square" stroke-linejoin="bevel" >

<g fill="none" stroke="#000000" stroke-opacity="1" stroke-width="1" stroke-linecap="square" stroke-linejoin="bevel" transform="matrix(1,0,0,1,0,0)"
font-family="Oxygen-Sans Sans-Book" font-size="10" font-weight="400" font-style="normal" 
>
</g>

<g fill="none" stroke="#000000" stroke-opacity="1" stroke-width="1" stroke-linecap="square" stroke-linejoin="bevel" transform="matrix(1,0,0,1,0,0)"
font-family="Oxygen-Sans Sans-Book" font-size="10" font-weight="400" font-style="normal" 
>
</g>

<g fill="none" stroke="#000000" stroke-opacity="1" stroke-width="1" stroke-linecap="square" stroke-linejoin="bevel" transform="matrix(0.986842,0,0,0.986842,23.8816,15)"
font-family="Oxygen-Sans Sans-Book" font-size="10" font-weight="400" font-style="normal" 
>
</g>

<g fill="none" stroke="#000000" stroke-opacity="1" stroke-width="1" stroke-linecap="square" stroke-linejoin="bevel" transform="matrix(0.986842,0,0,0.986842,23.8816,15)"
font-family="Oxygen-Sans Sans-Book" font-size="10" font-weight="400" font-style="normal" 
>
</g>

<g fill="none" stroke="#000000" stroke-opacity="1" stroke-width="1" stroke-linecap="square" stroke-linejoin="bevel" transform="matrix(0.986842,0,0,0.986842,23.8816,15)"
font-family="Oxygen-Sans Sans-Book" font-size="10" font-weight="400" font-style="normal" 
>
</g>

<g fill="none" stroke="#000080" stroke-opacity="1" stroke-width="0.4" stroke-linecap="round" stroke-linejoin="round" transform="matrix(0.986842,0,0,0.986842,23.8816,15)"
font-family="Oxygen-Sans Sans-Book" font-size="10" font-weight="400" font-style="normal" 
>
<polyline fill="none" vector-effect="none" points="-24,-15 24,-15 " />
</g>

<g fill="none" stroke="#000000" stroke-opacity="1" stroke-width="1" stroke-linecap="square" stroke-linejoin="bevel" transform="matrix(0.986842,0,0,0.986842,23.8816,15)"
font-family="Oxygen-Sans Sans-Book" font-size="10" font-weight="400" font-style="normal" 
>
</g>

<g fill="none" stroke="#000000" stroke-opacity="1" stroke-width="1" stroke-linecap="square" stroke-linejoin="bevel" transform="matrix(0.986842,0,0,0.986842,23.8816,15)"
font-family="Oxygen-Sans Sans-Book" font-size="10" font-weight="400" font-style="normal" 
>
</g>

<g fill="none" stroke="#000080" stroke-opacity="1" stroke-width="0.4" stroke-linecap="round" stroke-linejoin="round" transform="matrix(0.986842,0,0,0.986842,23.8816,15)"
font-family="Oxygen-Sans Sans-Book" font-size="10" font-weight="400" font-style="normal" 
>
<polyline fill="none" vector-effect="none" points="24,-15 24,15 " />
</g>

<g fill="none" stroke="#000000" stroke-opacity="1" stroke-width="1" stroke-linecap="square" stroke-linejoin="bevel" transform="matrix(0.986842,0,0,0.986842,23.8816,15)"
font-family="Oxygen-Sans Sans-Book" font-size="10" font-weight="400" font-style="normal" 
>
</g>

<g fill="none" stroke="#000000" stroke-opacity="1" stroke-width="1" stroke-linecap="square" stroke-linejoin="bevel" transform="matrix(0.986842,0,0,0.986842,23.8816,15)"
font-family="Oxygen-Sans Sans-Book" font-size="10" font-weight="400" font-style="normal" 
>
</g>

<g fill="none" stroke="#000080" stroke-opacity="1" stroke-width="0.4" stroke-linecap="round" stroke-linejoin="round" transform="matrix(0.986842,0,0,0.986842,23.8816,15)"
font-family="Oxygen-Sans Sans-Book" font-size="10" font-weight="400" font-style="normal" 
>
<polyline fill="none" vector-effect="none" points="-24,15 24,15 " />
</g>

<g fill="none" stroke="#000000" stroke-opacity="1" stroke-width="1" stroke-linecap="square" stroke-linejoin="bevel" transform="matrix(0.986842,0,0,0.986842,23.8816,15)"
font-family="Oxygen-Sans Sans-Book" font-size="10" font-weight="400" font-style="normal" 
>
</g>

<g fill="none" stroke="#000000" stroke-opacity="1" stroke-width="1" stroke-linecap="square" stroke-linejoin="bevel" transform="matrix(0.986842,0,0,0.986842,23.8816,15)"
font-family="Oxygen-Sans Sans-Book" font-size="10" font-weight="400" font-style="normal" 
>
</g>

<g fill="none" stroke="#000080" stroke-opacity="1" stroke-width="0.4" stroke-linecap="round" stroke-linejoin="round" transform="matrix(0.986842,0,0,0.986842,23.8816,15)"
font-family="Oxygen-Sans Sans-Book" font-size="10" font-weight="400" font-style="normal" 
>
<polyline fill="none" vector-effect="none" points="-24,-15 -24,15 " />
</g>

<g fill="none" stroke="#000000" stroke-opacity="1" stroke-width="1" stroke-linecap="square" stroke-linejoin="bevel" transform="matrix(0.986842,0,0,0.986842,23.8816,15)"
font-family="Oxygen-Sans Sans-Book" font-size="10" font-weight="400" font-style="normal" 
>
</g>

<g fill="none" stroke="#000000" stroke-opacity="1" stroke-width="1" stroke-linecap="square" stroke-linejoin="bevel" transform="matrix(0.986842,0,0,0.986842,1.18421,4.14474)"
font-family="Oxygen-Sans Sans-Book" font-size="10" font-weight="400" font-style="normal" 
>
</g>

<g fill="none" stroke="#000000" stroke-opacity="1" stroke-width="1" stroke-linecap="square" stroke-linejoin="bevel" transform="matrix(0.986842,0,0,0.986842,1.18421,4.14474)"
font-family="Oxygen-Sans Sans-Book" font-size="10" font-weight="400" font-style="normal" 
>
</g>

<g fill="#000000" fill-opacity="1" stroke="#000000" stroke-opacity="1" stroke-width="1" stroke-linecap="round" stroke-linejoin="round" transform="matrix(0.986842,0,0,0.986842,1.18421,4.14474)"
font-family="Oxygen-Sans Sans-Book" font-size="10" font-weight="400" font-style="normal" 
>
<path vector-effect="non-scaling-stroke" fill-rule="nonzero" d="M0.390625,5.89062 L1.625,5.89062 L3.84375,11.8594 L6.0625,5.89062 L7.3125,5.89062 L4.64062,13 L3.04688,13 L0.390625,5.89062 M15,9.15625 L15,9.71875 L9.625,9.71875 C9.67708,10.5312 9.91927,11.1458 10.3516,11.5625 C10.7839,11.9792 11.3854,12.1875 12.1562,12.1875 C12.6042,12.1875 13.0391,12.1328 13.4609,12.0234 C13.8828,11.9141 14.3021,11.75 14.7188,11.5312 L14.7188,12.6406 C14.3021,12.8177 13.8724,12.9531 13.4297,13.0469 C12.987,13.1406 12.5417,13.1875 12.0938,13.1875 C10.9583,13.1875 10.0599,12.8568 9.39844,12.1953 C8.73698,11.5339 8.40625,10.6406 8.40625,9.51562 C8.40625,8.34896 8.72135,7.42448 9.35156,6.74219 C9.98177,6.0599 10.8281,5.71875 11.8906,5.71875 C12.849,5.71875 13.6068,6.02604 14.1641,6.64062 C14.7214,7.25521 15,8.09375 15,9.15625 M13.8281,8.8125 C13.8177,8.17708 13.638,7.66667 13.2891,7.28125 C12.9401,6.89583 12.4792,6.70312 11.9062,6.70312 C11.25,6.70312 10.7266,6.88802 10.3359,7.25781 C9.94531,7.6276 9.71875,8.14583 9.65625,8.8125 L13.8281,8.8125 M21.0156,6.98438 C20.8802,6.91146 20.737,6.85677 20.5859,6.82031 C20.4349,6.78385 20.2656,6.76562 20.0781,6.76562 C19.4219,6.76562 18.9167,6.97917 18.5625,7.40625 C18.2083,7.83333 18.0312,8.44792 18.0312,9.25 L18.0312,13 L16.8594,13 L16.8594,5.89062 L18.0312,5.89062 L18.0312,7 C18.2708,6.5625 18.5885,6.23958 18.9844,6.03125 C19.3802,5.82292 19.8594,5.71875 20.4219,5.71875 C20.5052,5.71875 20.5938,5.72396 20.6875,5.73438 C20.7812,5.74479 20.8906,5.76042 21.0156,5.78125 L21.0156,6.98438 M22.2344,5.89062 L23.4062,5.89062 L23.4062,13 L22.2344,13 L22.2344,5.89062 M22.2344,3.125 L23.4062,3.125 L23.4062,4.60938 L22.2344,4.60938 L22.2344,3.125 M25.8438,3.125 L27.0156,3.125 L27.0156,13 L25.8438,13 L25.8438,3.125 M32.2188,6.70312 C31.5938,6.70312 31.099,6.94792 30.7344,7.4375 C30.3698,7.92708 30.1875,8.59896 30.1875,9.45312 C30.1875,10.3073 30.3672,10.9766 30.7266,11.4609 C31.0859,11.9453 31.5833,12.1875 32.2188,12.1875 C32.8333,12.1875 33.3229,11.9427 33.6875,11.4531 C34.0521,10.9635 34.2344,10.2969 34.2344,9.45312 C34.2344,8.60938 34.0521,7.9401 33.6875,7.44531 C33.3229,6.95052 32.8333,6.70312 32.2188,6.70312 M32.2188,5.71875 C33.2292,5.71875 34.026,6.04948 34.6094,6.71094 C35.1927,7.3724 35.4844,8.28646 35.4844,9.45312 C35.4844,10.6198 35.1927,11.5339 34.6094,12.1953 C34.026,12.8568 33.2292,13.1875 32.2188,13.1875 C31.1979,13.1875 30.3984,12.8568 29.8203,12.1953 C29.2422,11.5339 28.9531,10.6198 28.9531,9.45312 C28.9531,8.28646 29.2422,7.3724 29.8203,6.71094 C30.3984,6.04948 31.1979,5.71875 32.2188,5.71875 M42.0938,9.35938 C42.0938,8.51562 41.9193,7.86198 41.5703,7.39844 C41.2214,6.9349 40.7292,6.70312 40.0938,6.70312 C39.4688,6.70312 38.9818,6.9349 38.6328,7.39844 C38.2839,7.86198 38.1094,8.51562 38.1094,9.35938 C38.1094,10.2031 38.2839,10.8568 38.6328,11.3203 C38.9818,11.7839 39.4688,12.0156 40.0938,12.0156 C40.7292,12.0156 41.2214,11.7839 41.5703,11.3203 C41.9193,10.8568 42.0938,10.2031 42.0938,9.35938 M43.2656,12.125 C43.2656,13.3333 42.9948,14.2318 42.4531,14.8203 C41.9115,15.4089 41.0885,15.7031 39.9844,15.7031 C39.5781,15.7031 39.1927,15.6719 38.8281,15.6094 C38.4635,15.5469 38.1094,15.4531 37.7656,15.3281 L37.7656,14.1875 C38.1094,14.375 38.4479,14.513 38.7812,14.6016 C39.1146,14.6901 39.4531,14.7344 39.7969,14.7344 C40.5677,14.7344 41.1432,14.5365 41.5234,14.1406 C41.9036,13.7448 42.0938,13.1406 42.0938,12.3281 L42.0938,11.75 C41.8542,12.1667 41.5443,12.4792 41.1641,12.6875 C40.7839,12.8958 40.3333,13 39.8125,13 C38.9375,13 38.2344,12.6667 37.7031,12 C37.1719,11.3333 36.9062,10.4531 36.9062,9.35938 C36.9062,8.26562 37.1719,7.38542 37.7031,6.71875 C38.2344,6.05208 38.9375,5.71875 39.8125,5.71875 C40.3333,5.71875 40.7839,5.82292 41.1641,6.03125 C41.5443,6.23958 41.8542,6.55208 42.0938,6.96875 L42.0938,5.89062 L43.2656,5.89062 L43.2656,12.125"/>
</g>

<g fill="none" stroke="#000000" stroke-opacity="1" stroke-width="1" stroke-linecap="square" stroke-linejoin="bevel" transform="matrix(0.986842,0,0,0.986842,1.18421,4.14474)"
font-family="Oxygen-Sans Sans-Book" font-size="10" font-weight="400" font-style="normal" 
>
</g>

<g fill="none" stroke="#000000" stroke-opacity="1" stroke-width="1" stroke-linecap="square" stroke-linejoin="bevel" transform="matrix(0.986842,0,0,0.986842,1.18421,4.14474)"
font-family="Oxygen-Sans Sans-Book" font-size="10" font-weight="400" font-style="normal" 
>
</g>

<g fill="none" stroke="#000000" stroke-opacity="1" stroke-width="1" stroke-linecap="square" stroke-linejoin="bevel" transform="matrix(1,0,0,1,0,0)"
font-family="Oxygen-Sans Sans-Book" font-size="10" font-weight="400" font-style="normal" 
>
</g>
</g>
</svg>
