<?xml version="1.0" encoding="UTF-8" standalone="no"?>
<svg width="23.9889mm" height="5.99722mm"
 viewBox="0 0 68 17"
 xmlns="http://www.w3.org/2000/svg" xmlns:xlink="http://www.w3.org/1999/xlink"  version="1.2" baseProfile="tiny">
<title>digital simulation</title>
<desc>digital simulation</desc>
<defs>
</defs>
<g fill="none" stroke="black" stroke-width="1" fill-rule="evenodd" stroke-linecap="square" stroke-linejoin="bevel" >

<g fill="none" stroke="#000000" stroke-opacity="1" stroke-width="1" stroke-linecap="square" stroke-linejoin="bevel" transform="matrix(1,0,0,1,0,0)"
font-family="Oxygen-Sans Sans-Book" font-size="10" font-weight="400" font-style="normal" 
>
</g>

<g fill="none" stroke="#000000" stroke-opacity="1" stroke-width="1" stroke-linecap="square" stroke-linejoin="bevel" transform="matrix(1,0,0,1,0,0)"
font-family="Oxygen-Sans Sans-Book" font-size="10" font-weight="400" font-style="normal" 
>
</g>

<g fill="none" stroke="#000000" stroke-opacity="1" stroke-width="1" stroke-linecap="square" stroke-linejoin="bevel" transform="matrix(1,0,0,1,0,0)"
font-family="Oxygen-Sans Sans-Book" font-size="10" font-weight="400" font-style="normal" 
>
</g>

<g fill="none" stroke="#000000" stroke-opacity="1" stroke-width="1" stroke-linecap="square" stroke-linejoin="bevel" transform="matrix(1,0,0,1,0,0)"
font-family="Oxygen-Sans Sans-Book" font-size="10" font-weight="400" font-style="normal" 
>
</g>

<g fill="none" stroke="#000000" stroke-opacity="1" stroke-width="1" stroke-linecap="square" stroke-linejoin="bevel" transform="matrix(1,0,0,1,0,0)"
font-family="Oxygen-Sans Sans-Book" font-size="10" font-weight="400" font-style="normal" 
>
</g>

<g fill="none" stroke="#000080" stroke-opacity="1" stroke-width="1" stroke-linecap="square" stroke-linejoin="bevel" transform="matrix(1,0,0,1,0,0)"
font-family="Oxygen-Sans Sans-Book" font-size="10" font-weight="400" font-style="normal" 
>
</g>

<g fill="#000080" fill-opacity="1" stroke="#000000" stroke-opacity="1" stroke-width="1" stroke-linecap="round" stroke-linejoin="round" transform="matrix(1,0,0,1,0,0)"
font-family="Oxygen-Sans Sans-Book" font-size="10" font-weight="400" font-style="normal" 
>
<path vector-effect="non-scaling-stroke" fill-rule="nonzero" d="M5.90625,6.96875 L5.90625,3.125 L7.07812,3.125 L7.07812,13 L5.90625,13 L5.90625,11.9375 C5.65625,12.3542 5.34375,12.6667 4.96875,12.875 C4.59375,13.0833 4.14583,13.1875 3.625,13.1875 C2.77083,13.1875 2.07292,12.8438 1.53125,12.1562 C0.989583,11.4688 0.71875,10.5677 0.71875,9.45312 C0.71875,8.33854 0.989583,7.4375 1.53125,6.75 C2.07292,6.0625 2.77083,5.71875 3.625,5.71875 C4.14583,5.71875 4.59375,5.82031 4.96875,6.02344 C5.34375,6.22656 5.65625,6.54167 5.90625,6.96875 M1.92188,9.45312 C1.92188,10.3073 2.09896,10.9792 2.45312,11.4688 C2.80729,11.9583 3.29167,12.2031 3.90625,12.2031 C4.53125,12.2031 5.02083,11.9583 5.375,11.4688 C5.72917,10.9792 5.90625,10.3073 5.90625,9.45312 C5.90625,8.58854 5.72917,7.91406 5.375,7.42969 C5.02083,6.94531 4.53125,6.70312 3.90625,6.70312 C3.29167,6.70312 2.80729,6.94531 2.45312,7.42969 C2.09896,7.91406 1.92188,8.58854 1.92188,9.45312 M9.46875,5.89062 L10.6406,5.89062 L10.6406,13 L9.46875,13 L9.46875,5.89062 M9.46875,3.125 L10.6406,3.125 L10.6406,4.60938 L9.46875,4.60938 L9.46875,3.125 M17.7656,9.35938 C17.7656,8.51562 17.5911,7.86198 17.2422,7.39844 C16.8932,6.9349 16.401,6.70312 15.7656,6.70312 C15.1406,6.70312 14.6536,6.9349 14.3047,7.39844 C13.9557,7.86198 13.7812,8.51562 13.7812,9.35938 C13.7812,10.2031 13.9557,10.8568 14.3047,11.3203 C14.6536,11.7839 15.1406,12.0156 15.7656,12.0156 C16.401,12.0156 16.8932,11.7839 17.2422,11.3203 C17.5911,10.8568 17.7656,10.2031 17.7656,9.35938 M18.9375,12.125 C18.9375,13.3333 18.6667,14.2318 18.125,14.8203 C17.5833,15.4089 16.7604,15.7031 15.6562,15.7031 C15.25,15.7031 14.8646,15.6719 14.5,15.6094 C14.1354,15.5469 13.7812,15.4531 13.4375,15.3281 L13.4375,14.1875 C13.7812,14.375 14.1198,14.513 14.4531,14.6016 C14.7865,14.6901 15.125,14.7344 15.4688,14.7344 C16.2396,14.7344 16.8151,14.5365 17.1953,14.1406 C17.5755,13.7448 17.7656,13.1406 17.7656,12.3281 L17.7656,11.75 C17.526,12.1667 17.2161,12.4792 16.8359,12.6875 C16.4557,12.8958 16.0052,13 15.4844,13 C14.6094,13 13.9062,12.6667 13.375,12 C12.8438,11.3333 12.5781,10.4531 12.5781,9.35938 C12.5781,8.26562 12.8438,7.38542 13.375,6.71875 C13.9062,6.05208 14.6094,5.71875 15.4844,5.71875 C16.0052,5.71875 16.4557,5.82292 16.8359,6.03125 C17.2161,6.23958 17.526,6.55208 17.7656,6.96875 L17.7656,5.89062 L18.9375,5.89062 L18.9375,12.125 M21.3281,5.89062 L22.5,5.89062 L22.5,13 L21.3281,13 L21.3281,5.89062 M21.3281,3.125 L22.5,3.125 L22.5,4.60938 L21.3281,4.60938 L21.3281,3.125 M26.0938,3.875 L26.0938,5.89062 L28.5,5.89062 L28.5,6.79688 L26.0938,6.79688 L26.0938,10.6562 C26.0938,11.2396 26.1745,11.612 26.3359,11.7734 C26.4974,11.9349 26.8229,12.0156 27.3125,12.0156 L28.5,12.0156 L28.5,13 L27.3125,13 C26.4062,13 25.7812,12.8307 25.4375,12.4922 C25.0938,12.1536 24.9219,11.5417 24.9219,10.6562 L24.9219,6.79688 L24.0625,6.79688 L24.0625,5.89062 L24.9219,5.89062 L24.9219,3.875 L26.0938,3.875 M33.2656,9.42188 C32.3281,9.42188 31.6771,9.53125 31.3125,9.75 C30.9479,9.96875 30.7656,10.3385 30.7656,10.8594 C30.7656,11.2656 30.901,11.5911 31.1719,11.8359 C31.4427,12.0807 31.8125,12.2031 32.2812,12.2031 C32.9271,12.2031 33.4479,11.974 33.8438,11.5156 C34.2396,11.0573 34.4375,10.4479 34.4375,9.6875 L34.4375,9.42188 L33.2656,9.42188 M35.5938,8.9375 L35.5938,13 L34.4375,13 L34.4375,11.9219 C34.1667,12.349 33.8333,12.6667 33.4375,12.875 C33.0417,13.0833 32.5521,13.1875 31.9688,13.1875 C31.2396,13.1875 30.6615,12.9818 30.2344,12.5703 C29.8073,12.1589 29.5938,11.6146 29.5938,10.9375 C29.5938,10.1354 29.862,9.53125 30.3984,9.125 C30.9349,8.71875 31.7344,8.51562 32.7969,8.51562 L34.4375,8.51562 L34.4375,8.39062 C34.4375,7.85938 34.2604,7.44531 33.9062,7.14844 C33.5521,6.85156 33.0521,6.70312 32.4062,6.70312 C32,6.70312 31.6042,6.7526 31.2188,6.85156 C30.8333,6.95052 30.4635,7.09896 30.1094,7.29688 L30.1094,6.21875 C30.5365,6.05208 30.9531,5.92708 31.3594,5.84375 C31.7656,5.76042 32.1562,5.71875 32.5312,5.71875 C33.5625,5.71875 34.3307,5.98438 34.8359,6.51562 C35.3411,7.04688 35.5938,7.85417 35.5938,8.9375 M37.9844,3.125 L39.1562,3.125 L39.1562,13 L37.9844,13 L37.9844,3.125"/>
</g>

<g fill="none" stroke="#000080" stroke-opacity="1" stroke-width="1" stroke-linecap="square" stroke-linejoin="bevel" transform="matrix(1,0,0,1,0,0)"
font-family="Oxygen-Sans Sans-Book" font-size="10" font-weight="400" font-style="normal" 
>
</g>

<g fill="none" stroke="#000000" stroke-opacity="1" stroke-width="1" stroke-linecap="square" stroke-linejoin="bevel" transform="matrix(1,0,0,1,0,0)"
font-family="Oxygen-Sans Sans-Book" font-size="10" font-weight="400" font-style="normal" 
>
</g>

<g fill="none" stroke="#000000" stroke-opacity="1" stroke-width="1" stroke-linecap="square" stroke-linejoin="bevel" transform="matrix(1,0,0,1,0,0)"
font-family="Oxygen-Sans Sans-Book" font-size="10" font-weight="400" font-style="normal" 
>
</g>

<g fill="none" stroke="#000080" stroke-opacity="1" stroke-width="1" stroke-linecap="square" stroke-linejoin="bevel" transform="matrix(1,0,0,1,0,0)"
font-family="Oxygen-Sans Sans-Book" font-size="10" font-weight="400" font-style="normal" 
>
</g>

<g fill="#000080" fill-opacity="1" stroke="#000000" stroke-opacity="1" stroke-width="1" stroke-linecap="round" stroke-linejoin="round" transform="matrix(1,0,0,1,0,0)"
font-family="Oxygen-Sans Sans-Book" font-size="10" font-weight="400" font-style="normal" 
>
<path vector-effect="non-scaling-stroke" fill-rule="nonzero" d="M5.75,6.09375 L5.75,7.20312 C5.42708,7.03646 5.08854,6.91146 4.73438,6.82812 C4.38021,6.74479 4.01042,6.70312 3.625,6.70312 C3.04167,6.70312 2.60677,6.79167 2.32031,6.96875 C2.03385,7.14583 1.89062,7.41146 1.89062,7.76562 C1.89062,8.03646 1.99219,8.2474 2.19531,8.39844 C2.39844,8.54948 2.81771,8.69792 3.45312,8.84375 L3.84375,8.9375 C4.67708,9.11458 5.26823,9.36458 5.61719,9.6875 C5.96615,10.0104 6.14062,10.4583 6.14062,11.0312 C6.14062,11.6979 5.88021,12.224 5.35938,12.6094 C4.83854,12.9948 4.11979,13.1875 3.20312,13.1875 C2.81771,13.1875 2.41927,13.151 2.00781,13.0781 C1.59635,13.0052 1.16146,12.8906 0.703125,12.7344 L0.703125,11.5312 C1.14062,11.7604 1.56771,11.9297 1.98438,12.0391 C2.40104,12.1484 2.8125,12.2031 3.21875,12.2031 C3.77083,12.2031 4.19531,12.1094 4.49219,11.9219 C4.78906,11.7344 4.9375,11.4688 4.9375,11.125 C4.9375,10.8125 4.83073,10.5703 4.61719,10.3984 C4.40365,10.2266 3.9375,10.0625 3.21875,9.90625 L2.8125,9.8125 C2.08333,9.65625 1.55729,9.42188 1.23438,9.10938 C0.911458,8.79688 0.75,8.36458 0.75,7.8125 C0.75,7.14583 0.986979,6.63021 1.46094,6.26562 C1.9349,5.90104 2.60938,5.71875 3.48438,5.71875 C3.91146,5.71875 4.31771,5.75 4.70312,5.8125 C5.08854,5.875 5.4375,5.96875 5.75,6.09375 M7.98438,5.89062 L9.15625,5.89062 L9.15625,13 L7.98438,13 L7.98438,5.89062 M7.98438,3.125 L9.15625,3.125 L9.15625,4.60938 L7.98438,4.60938 L7.98438,3.125 M17.1406,7.25 C17.4323,6.72917 17.7812,6.34375 18.1875,6.09375 C18.5938,5.84375 19.0729,5.71875 19.625,5.71875 C20.3646,5.71875 20.9349,5.97917 21.3359,6.5 C21.737,7.02083 21.9375,7.75521 21.9375,8.70312 L21.9375,13 L20.7656,13 L20.7656,8.75 C20.7656,8.0625 20.6432,7.55469 20.3984,7.22656 C20.1536,6.89844 19.7865,6.73438 19.2969,6.73438 C18.6927,6.73438 18.2135,6.9349 17.8594,7.33594 C17.5052,7.73698 17.3281,8.28646 17.3281,8.98438 L17.3281,13 L16.1562,13 L16.1562,8.75 C16.1562,8.0625 16.0365,7.55469 15.7969,7.22656 C15.5573,6.89844 15.1823,6.73438 14.6719,6.73438 C14.0781,6.73438 13.6068,6.9375 13.2578,7.34375 C12.9089,7.75 12.7344,8.29688 12.7344,8.98438 L12.7344,13 L11.5625,13 L11.5625,5.89062 L12.7344,5.89062 L12.7344,7 C12.9948,6.5625 13.3125,6.23958 13.6875,6.03125 C14.0625,5.82292 14.5052,5.71875 15.0156,5.71875 C15.5365,5.71875 15.9766,5.84896 16.3359,6.10938 C16.6953,6.36979 16.9635,6.75 17.1406,7.25 M24.1406,10.1875 L24.1406,5.89062 L25.2969,5.89062 L25.2969,10.1562 C25.2969,10.8229 25.4297,11.3255 25.6953,11.6641 C25.9609,12.0026 26.3542,12.1719 26.875,12.1719 C27.5104,12.1719 28.0104,11.9714 28.375,11.5703 C28.7396,11.1693 28.9219,10.6198 28.9219,9.92188 L28.9219,5.89062 L30.0938,5.89062 L30.0938,13 L28.9219,13 L28.9219,11.9062 C28.6406,12.3438 28.3125,12.6667 27.9375,12.875 C27.5625,13.0833 27.125,13.1875 26.625,13.1875 C25.8125,13.1875 25.1953,12.9323 24.7734,12.4219 C24.3516,11.9115 24.1406,11.1667 24.1406,10.1875 M32.4844,3.125 L33.6562,3.125 L33.6562,13 L32.4844,13 L32.4844,3.125 M39.3281,9.42188 C38.3906,9.42188 37.7396,9.53125 37.375,9.75 C37.0104,9.96875 36.8281,10.3385 36.8281,10.8594 C36.8281,11.2656 36.9635,11.5911 37.2344,11.8359 C37.5052,12.0807 37.875,12.2031 38.3438,12.2031 C38.9896,12.2031 39.5104,11.974 39.9062,11.5156 C40.3021,11.0573 40.5,10.4479 40.5,9.6875 L40.5,9.42188 L39.3281,9.42188 M41.6562,8.9375 L41.6562,13 L40.5,13 L40.5,11.9219 C40.2292,12.349 39.8958,12.6667 39.5,12.875 C39.1042,13.0833 38.6146,13.1875 38.0312,13.1875 C37.3021,13.1875 36.724,12.9818 36.2969,12.5703 C35.8698,12.1589 35.6562,11.6146 35.6562,10.9375 C35.6562,10.1354 35.9245,9.53125 36.4609,9.125 C36.9974,8.71875 37.7969,8.51562 38.8594,8.51562 L40.5,8.51562 L40.5,8.39062 C40.5,7.85938 40.3229,7.44531 39.9688,7.14844 C39.6146,6.85156 39.1146,6.70312 38.4688,6.70312 C38.0625,6.70312 37.6667,6.7526 37.2812,6.85156 C36.8958,6.95052 36.526,7.09896 36.1719,7.29688 L36.1719,6.21875 C36.599,6.05208 37.0156,5.92708 37.4219,5.84375 C37.8281,5.76042 38.2188,5.71875 38.5938,5.71875 C39.625,5.71875 40.3932,5.98438 40.8984,6.51562 C41.4036,7.04688 41.6562,7.85417 41.6562,8.9375 M45.2031,3.875 L45.2031,5.89062 L47.6094,5.89062 L47.6094,6.79688 L45.2031,6.79688 L45.2031,10.6562 C45.2031,11.2396 45.2839,11.612 45.4453,11.7734 C45.6068,11.9349 45.9323,12.0156 46.4219,12.0156 L47.6094,12.0156 L47.6094,13 L46.4219,13 C45.5156,13 44.8906,12.8307 44.5469,12.4922 C44.2031,12.1536 44.0312,11.5417 44.0312,10.6562 L44.0312,6.79688 L43.1719,6.79688 L43.1719,5.89062 L44.0312,5.89062 L44.0312,3.875 L45.2031,3.875 M49.1406,5.89062 L50.3125,5.89062 L50.3125,13 L49.1406,13 L49.1406,5.89062 M49.1406,3.125 L50.3125,3.125 L50.3125,4.60938 L49.1406,4.60938 L49.1406,3.125 M55.5156,6.70312 C54.8906,6.70312 54.3958,6.94792 54.0312,7.4375 C53.6667,7.92708 53.4844,8.59896 53.4844,9.45312 C53.4844,10.3073 53.6641,10.9766 54.0234,11.4609 C54.3828,11.9453 54.8802,12.1875 55.5156,12.1875 C56.1302,12.1875 56.6198,11.9427 56.9844,11.4531 C57.349,10.9635 57.5312,10.2969 57.5312,9.45312 C57.5312,8.60938 57.349,7.9401 56.9844,7.44531 C56.6198,6.95052 56.1302,6.70312 55.5156,6.70312 M55.5156,5.71875 C56.526,5.71875 57.3229,6.04948 57.9062,6.71094 C58.4896,7.3724 58.7812,8.28646 58.7812,9.45312 C58.7812,10.6198 58.4896,11.5339 57.9062,12.1953 C57.3229,12.8568 56.526,13.1875 55.5156,13.1875 C54.4948,13.1875 53.6953,12.8568 53.1172,12.1953 C52.5391,11.5339 52.25,10.6198 52.25,9.45312 C52.25,8.28646 52.5391,7.3724 53.1172,6.71094 C53.6953,6.04948 54.4948,5.71875 55.5156,5.71875 M66.625,8.70312 L66.625,13 L65.4531,13 L65.4531,8.75 C65.4531,8.07292 65.3229,7.56771 65.0625,7.23438 C64.8021,6.90104 64.4062,6.73438 63.875,6.73438 C63.25,6.73438 62.7552,6.9349 62.3906,7.33594 C62.026,7.73698 61.8438,8.28646 61.8438,8.98438 L61.8438,13 L60.6719,13 L60.6719,5.89062 L61.8438,5.89062 L61.8438,7 C62.125,6.57292 62.4531,6.2526 62.8281,6.03906 C63.2031,5.82552 63.6406,5.71875 64.1406,5.71875 C64.9531,5.71875 65.5703,5.97135 65.9922,6.47656 C66.4141,6.98177 66.625,7.72396 66.625,8.70312 "/>
</g>

<g fill="none" stroke="#000080" stroke-opacity="1" stroke-width="1" stroke-linecap="square" stroke-linejoin="bevel" transform="matrix(1,0,0,1,0,0)"
font-family="Oxygen-Sans Sans-Book" font-size="10" font-weight="400" font-style="normal" 
>
</g>

<g fill="none" stroke="#000000" stroke-opacity="1" stroke-width="1" stroke-linecap="square" stroke-linejoin="bevel" transform="matrix(1,0,0,1,0,0)"
font-family="Oxygen-Sans Sans-Book" font-size="10" font-weight="400" font-style="normal" 
>
</g>

<g fill="none" stroke="#000000" stroke-opacity="1" stroke-width="1" stroke-linecap="square" stroke-linejoin="bevel" transform="matrix(1,0,0,1,0,0)"
font-family="Oxygen-Sans Sans-Book" font-size="10" font-weight="400" font-style="normal" 
>
</g>
</g>
</svg>
